/* XPM */
static char * blood1_xpm[] = {
"64 64 18 1",
" 	c None",
".	c #980088",
"+	c #490000",
"@	c #8A0000",
"#	c #9E0000",
"$	c #6F0000",
"%	c #550000",
"&	c #810000",
"*	c #780000",
"=	c #920000",
"-	c #660000",
";	c #5E0000",
">	c #610000",
",	c #9E2929",
"'	c #400000",
")	c #9E1515",
"!	c #380000",
"~	c #2F0000",
"................................................................",
"................................................................",
"................................................................",
"................................................................",
"................................................................",
"................................................................",
"................................................................",
"................................................................",
"................................................................",
"................................................................",
"................................................................",
"................................................................",
"................................................................",
"................................................................",
"................................................................",
"................................................................",
"................................................................",
"................................................................",
"................................................................",
"................................................................",
"................................................................",
"................................................................",
"................................................................",
"................................................................",
"................................................................",
"................................................................",
"................................................................",
"................................................................",
"................................................................",
"................................................................",
"................................................................",
"................................................................",
"................................................................",
"................................................................",
"................................................................",
"................................................................",
"................................................................",
"................................................................",
"................................................................",
"................................................................",
"................................................................",
"................................................................",
"................................................................",
"................................................................",
"................................................................",
"................................................................",
"................................................................",
"................................................................",
"................................................................",
"................................................................",
"................................................................",
"................................................................",
"................................................................",
"................................................................",
"................................................................",
"................................................................",
"...................................................+............",
"......@@@@@.....####.............++.............................",
"...@@@@@##########@@@@$%%%.#&*...........%.=======&&&***-%%..%%.",
".......@@@@@@####*$-;%%........$$$$$$$$$$.......>>>>>>>>>.......",
"...$$$$...*#,############=====================$$................",
".$..$''''..**,,)#&&>'%%%%%+++,,))=================--->;.,###$>..",
".............*%>>%%''''.....>>####&&&&&&--------->>!~~~..>>>'...",
".......>>>>.......=@@****'...++!!!!!!!!!!!~~~~~~~~~~............"};
