/* XPM */
static char * ceil1_xpm[] = {
"64 64 6 1",
" 	c None",
".	c #555555",
"+	c #444444",
"@	c #666666",
"#	c #333333",
"$	c #222222",
"............+.+....+++..+...............+.....+.......+.........",
".+....+.....+...+...+.+.++.+..+.......+...............+.........",
"+......@.......+....+.+++#+...+.....+........+.++..@..+.........",
".....+@.....++.+....+..++++...+.++...........++...@....+.......+",
"...+++......+...........++...+.......+..............+....+.++..+",
"+...++....+.............+++.+......+#+.+......+.........++...+..",
".+...+......+......++..++++.+..+....+...+..+.............+......",
"....+..............++.................+...+.+++..........+.....+",
"...+........+......++....+..+.++....++.+....+..................+",
"....++............@.@....+..+.........+...+.+..+......+..+...++.",
".....+.+..........++..+.+.......+...+.....+...#..@..+....#..+...",
".....+..........+.++....+.+.++......+.........+.....+...........",
"..................+..+...............+......+...........+....+..",
".................+......+........+...........++.....+.+.++......",
"+++............+.....+..+.+.........+........++.+...+++.+....+..",
"..+.+...........++...+..#+..........................+...+...+...",
"++.+............#.......+.............+...+@...+..+.#+......+..+",
"++..+@..................+..........@+++.........+.+.#+..+......#",
"........++...........+..........@....+..+++....+.+..++....+.++..",
"+........#........................+.++++++........+....++...++..",
"+#..+................++......+....+.++++..+..+..@........++.++..",
"...+........+.......++.+.@@...+...+..+++....+........+......#...",
".++....+.......#.......+......+...+.++.+..........+.++..........",
"............+..#.....+.+....................+.......+.......+...",
"............+.+.+..+.+@.+...+.....+......+........++............",
"........@+......+++.++++..........+.+..........+..#.+.+...@.....",
"............+...+.+++...+.......................................",
".......+........+.+...++.@+..++.............................+...",
"++..............+.+..+..#+.....+.....@........+...+.........+@..",
"#..@...+......+$+.++.........+.+...+.......++.......+......+..+.",
"............+..#+.++....+...........+..++...++.+...........+....",
"#.....+.@......+.....@....+..+....@........+..............+...+.",
".+.........+...+...+.........+.+............................+...",
"@..........+...++...@@................+............+#..+......+.",
"@.....+......++..............+..+...+...++.....................@",
".........+...++...............+.+........#+...+................@",
"..+.............................+........++...+.......+....+....",
".......@........+...............+...+..+++..........+...........",
"..++.+....+...................+...+++.+.+.....+....@+++..+.+..++",
"............+....................@......+........++..+...+.+.@+.",
".+........+....................+..@.....+........+++............",
"+..+.++....+#.#...........+...+.+........+..........+.+....+.+.@",
"..++......+.+.++............+.++.+......+......@...........+.+.+",
"+.++..+.....................+.......................+.+....+...+",
".......++..++...........+.++...@....+.......@.........+..@.....@",
"+.....+.+++........+.+.+..++..+..@.+............................",
"+...+.+.+#++.+.+...+.+.+.++...+.......+.........................",
"...++....++.+.++.......+..+...+......................@+....+....",
"...+++.+.++.+++#.......++.+..........+.+.........++#.+++...+....",
"+++.........+.#+...+....+...+............@@..+@..+.+.....@++....",
"....++...+.++...@...+.......+.+.........+....+....+#+.........+.",
"...........++.+.+.+.....................+......+..++++........+.",
"...+...+...#+++.+...................+...................+..+....",
".+@............++.+..@............++........@........++.......++",
"....+...+....++.+++........+..............+......+...+#+...++.+.",
"+.......+.+......+.............+...++.............+....+....+...",
"+.......+...+...+.......+........+...........+..................",
".++....+.+.....++...+...+....+.................................+",
".++..+..+.+..+.+........+...+++..+.@...........+...............+",
"..++......+....+............+++.........+.........+.............",
".+..++.++.++...+...........+..+..................+...+...@...+..",
".......+.+#+............++.+......+.+...+..+.+++..+++.+.........",
".+...++.+++..............+.+@..+....+...+....+....+...+.........",
"............+.......++++++..@.....................+...+........."};
