/* XPM */
static char * ceil2_xpm[] = {
"64 64 17 1",
" 	c None",
".	c #1B1313",
"+	c #251B13",
"@	c #251B1B",
"#	c #2D251B",
"$	c #2D1B1B",
"%	c #1B1B13",
"&	c #25251B",
"*	c #251313",
"=	c #2D2525",
"-	c #1B130E",
";	c #382D25",
">	c #382525",
",	c #2D2D25",
"'	c #2D2513",
")	c #13130E",
"!	c #2D2D1B",
".+@+.+++++++++##+@+++..++++++@##$+#++####@@+++++@+..+.+@++++.++.",
"+...%+@++++++@#@+#@+++.@#&++++++++##@###++++++++++.++...++++++@+",
"+..++++@++++*@=@##+++..@++@++++&#########+++++@&+++..-..++...+++",
"+++@@++&###++$####@++++++@##+++@++@@@@@@#+++++@+@@++..@@++++.++@",
"...+#@+@####+++##@@@++++++@@+++++#$++++++++++++++++++++..++++.++",
"..++++++###$+++##+++..++.+++..++#;#$++++.+++.++++++++++...--...+",
"++++++.+##>#+$@#++++++..++++--.+@##++++++++.-.++++++++++++..+@++",
"++++@@+++@##+#@+++++#@++++@&@+++##++$++*@&#++++++++++.+++++@#@++",
"+++.+#+%+@+##+++@+++@@@@++@+++++++&#++++++++++.-+++++++++++&++++",
"+++.+@+#+###+-%+++++++++++++-++++.+@++++++++++++%+++&&+@@+++@+++",
"-%+..++@+###@+@&#@+++++++++--+##+..++++@#@@#@+++++++++##@+@+++++",
"%+++++++++++&##++++++@@&+++%-+##&++++++&#@@&@++@##++++##++&+++++",
"++-.++++@+++@#@+++++###&++++.+##+++++++#@@@++++@+++++++++##+++++",
".+%+++++@+@+#####&@@+++++++++++++@@++++++@@+++++&###@+++##&++++-",
"-@&@@+@@+++++@+#+@#&+++++++++-.++@@++++++++++++#####+++++&++@+++",
"-##@+++@+.+++++@+###+++#++++++++++++@++&#@+#&+++#@#@++++++@+&&++",
"+++++++++++++++@######+#@+++@++.-+++++%++@@@+++++@##@++@+#&+@##+",
"++++++++.+..+@@@+#####+#@++@++.-++++++++++@&#+++++$#++++##++&#@+",
".+++++++++.-+@+++$###@+$+++@+++@&&#+##+++@&##&++$@@@++++++.+&##+",
"+++++@+++@+-+++-+$#;#@#@+@&+++@#+@####@&@&@@#&++$@+@+++++++++&@+",
"++++++++%++++@+-+#=;;##@##@+++++++@++@@#+++++++@@+++@++++++++@&#",
"+%.+++++.+++@@+%.#>;;##@##++@++++++++++++++++++##@+@@++++++++###",
"+%.++++@+++@&+%+*#########@@#++++++++++++++++@@#$@+@++++#++++&#@",
"++++++++@++@#+.++##.+####&++@++@+++++#@++++.++++++++++@##++++@##",
"+@@++++@#++++.-++&@+++###&+.+###++&#++++++.++##++++##&##+++++++&",
"++..+++++++@@++@###+++#=@#@&#&++++@#+.%+++++@&+#++##@+@+++++##++",
".+@++++++##++++@###+++++++@###+#++##+--.+++###+++#,#+@+++++@##++",
".+@@+++#+@++++@#@##&&@+++++@@++++@##++%-..+#;;++++#++&+++++####@",
"++++@##++++++++++@&++++&@&####@++++++#@+.+++#=+#@++++@++++++@###",
"++@@+@&+++++@++++#&++.+&++@@###+++@+##&+++&++@+++++++++@+++%++++",
"-.++.+++@#++++++###++++#++++++++++@@@++++++++@+++++++++@++++++++",
"...++@#+%+++++++++++##@+++@#+++++++++%++@+.+&#&++@+++..+++++++++",
"...%+#@++++##++#+++##&++++++@&@+&+.++++++@#@++@+#++++++++++++++$",
"++++++++++++++++#+++####&&@@++++&+++++@&@+@++++++++@+++@++++##@+",
"+++++++++++++++&@+++++@@@@@++++&+++@++++@++%++++&@@&@++@++++###+",
"++++@++++++#@++++++#+++++++++++&@+++..+.++--+@++&+++@++@#+++###+",
"+++++++++@###++++++@+++@####@++++++%-.+++++.+#@+@+++@@@@#@+@###+",
"+..+++++++@&@++%+..+++++####@++++.+++++@++@@#@+@+++++++@+##++#++",
"+++%.+++++++&#++++.+#@+++&##++++++++++@#++&#@+++-.++++@@+##++++#",
"-+++..+++++@#@++++.+++..@###+%++@++&@++++++++@+-..+++@+.+;####+'",
".+..++++++++@#++++++@+.++#;#+++++##@++++++###++.--+@&+++#=#@####",
".+..+++#@+++++++#@&+++%++#;###++++@+++@+++++++.-).@#@++&###@@&++",
".+..+++###@@@+@#@@###&++&###@@++#@##@+++++++++.--+@&+++@+@#@+@@+",
"+@+++++######&##&+##@#&++++++++@++##@+@@@+++++++++++++++-+#&++##",
"++@@@+++####&@&&#&#@+##@@++++@@@++##++#+@++++.+@++++++++++@@+@#@",
"+++++++@+##@++++++@+@##@&+##+++.####++++++.++.+@+++++++++++++##+",
"&@@++&##+++++.++++++##@&+++++++.#####++++++++++@@++++++++++++@@+",
"@@&###@+@++++-.##++.+@+#&@+++++@#####++#@+++@##@#@+.+++..+++++++",
"###+#=##++++++++@++++++++++++++++###++##+++++++&@&+.+..+++.+++++",
"#!####++###&+###+@++@++++++++++@++++@###&&++++@###@%.-.@++++++.+",
"##&+@@+.##@+@##&+##&##&&++++++++++++@#####@+&#&####+.-.+##&@++.+",
"#+++&@+.@+++@#@++@#@&#&+##++@@++#++++@$@@@&####@@#@++...++++++++",
"++###+++++++@@+%++++++++++++++++@#@++@#@++@&###@++++++++++++++++",
"++@@+++@+++++@+%+++++++++@+++++@@##$@@++@+++++&@++@@+++@++++++..",
"++++.+++@+++@&@++++#+++++++%++%+++@##+++@+++++++++@+++@@.+..++..",
"++@++++.+++.++@+%.+++++++@++++.++.+@#@+@+++@+++++++++@@++++.++++",
"++&++++%...++++++-.++++#@++@+.++.+##+++++++&@++++#@+++++..+@++++",
"+++++++++++++++++%++++++++++++++++++++++++%+++++##++&@++++++++++",
"+++++++++@@+++++++++++%++++++++.+++%%+++++++++++@+++##@+++++.+-.",
"+@@++%+++++%+@@+++++..+++@+++++-+++++.++.+++@+++++++@@++@@.+++-.",
"@@@++%%+.++++##++++%..++++++++..++@++++++&+%++.++++++@&&+++++@++",
"+++@@+%.+++++&#@+@++%.+.+...++.++++@@+%-++++++@##@@@+++++++@@@+@",
"+++@#@+%@+..++@@##+++++..+.+++.++++@#++.+++++++&#@+@+@#++++@++++",
"++++%.++.+++++++=#++++++++++++.+++++..+++++++++@#+@+++@++++#++++"};
