/* XPM */
static char * wall4_xpm[] = {
"64 64 55 1",
" 	c #575757",
".	c #505050",
"+	c #565656",
"@	c #555555",
"#	c #545454",
"$	c #585858",
"%	c #474747",
"&	c #535353",
"*	c #4C4C4C",
"=	c #4D4D4D",
"-	c #515151",
";	c #4E4E4E",
">	c #525252",
",	c #454545",
"'	c #4B4B4B",
")	c #4F4F4F",
"!	c #5A5A5A",
"~	c #5C5C5C",
"{	c #595959",
"]	c #484848",
"^	c #5B5B5B",
"/	c #494949",
"(	c #444444",
"_	c #414141",
":	c #434343",
"<	c #464646",
"[	c #606060",
"}	c #4A4A4A",
"|	c #363636",
"1	c #626262",
"2	c #5E5E5E",
"3	c #424242",
"4	c #5F5F5F",
"5	c #5D5D5D",
"6	c #404040",
"7	c #3C3C3C",
"8	c #343434",
"9	c #3A3A3A",
"0	c #323232",
"a	c #393939",
"b	c #666666",
"c	c #3B3B3B",
"d	c #333333",
"e	c #3D3D3D",
"f	c #636363",
"g	c #303030",
"h	c #373737",
"i	c #383838",
"j	c #656565",
"k	c #3E3E3E",
"l	c #616161",
"m	c #272727",
"n	c #3F3F3F",
"o	c #646464",
"p	c #353535",
" ..+@++##  $%&*=-;>*,';)'.!# >);&#~.=$={*#! +)'>>#-+#{*=-#+@{#~+",
"+*=>&)];#^#!*)&>';.-/-(@_:+/-;<##&@& @* . +>&#;>=@;$&+*#;#>&+.{#",
"');)# >[#+.-;)#/@ )>,>}//|(#)@/- ;+>' &-#&&) }&**- 1>=/)>)$-#>#-",
">!).-'2$ ..-%}#'#)~&]-#}::}#>$'-*})>&&$^$~>#$}3#.#4-;>)*){;#&#.]",
".)~*}%.$$!.-*&).->#-&-~.*'.)>3;&+..#-<{.#+@ $);> @->*#$;=*#]*+$*",
"'+-$<*.${+*#) >-#^#; &5;:}*>'##->-&'|_-<#.-=&.3$@&+.=+~)}%=$#% )",
" 6=-&*> ~@.&*#{-&@#((@#,}],+*$-'^#>-/.>;'-)%>=>++;>@>-+-;< &&@{-",
".)=-/->5 #!>.+&$& +%/$+$&.#$@-.) .$#)>,=-='>%/*  @={-~=$&'{&+!+:",
"!>./-$>{#+@+]{+&>@537>+&&}+@}-%]-@$ *]@'--)&(>&+)^-;=&.$ )#!^&+%",
"@#--*%=$#=&.--&>#.2+[&&!>*^;,>.- -+>)=<>#;'#/..})->-;=_-)}.@#'(>",
"&-{.='-'&$&;&+;.)&,}^>'+(=)&.;@&*.+;*-@.{-}.&$8=;1)=]&>>$9&>* @+",
"{+ +=<>&$#$>-@#-,+*:=+>#/=]{}*{&@)@>*).;$$..&-'>#-))* !#=>=#);@>",
"# ; #.)$$.@5-..);)]- *+&==;)@=).#= !;<=&#.;-*=)#;&+.).->%)+-;*#+",
"@.&#&@;)++&=>+-.-}^#&)>#_;)@$-&&.]> =-@;@;#)&%()@&)-'>'&]/&#). ;",
"*]'-# {#$ $@$@#*#@#&&'@-7=*&@>$->--+}&-=>)) &*,)}--.%/';*.=$5/~)",
"- '=]^&-)>; # &-%'$@&*=.0*>&{@ =-#+@--#+&#=&&#->.>&._-#-]=->,@+)",
"_<&'!^ >;=#--; &a;;{+&&@};&..+&=)@~++;*#^=3b+$)<;>*-c:>+.={.];@'",
"<*)>,1@@>=+{ @+.@.$+{>.#}# >$&.@>{#2'}'&>.-#>&+#*)*=d'==/+$&;+ c",
"@&#&.++._,^>-+-@ @  #}>>##!@$${#4^>@;*.)%<<{##$e+*=-e};>==*.*<#>",
"'&)-&@&)-0 .>#;.&;->#=-;@##!5#+5-@'.]/(*<'>;+$$&$$*>+&;'3-=-,*+-",
":9#@/&;&@@@^.>+=##-@>'*&->{!&*. -@]>]3,<;.'{-'$$4 )$->=&#*'=e*;=",
"&&-';)-.>#&>,&&-;;#@*]>}>4f# >/>&#/.&'_'- .&*##{{&=$>* $=&=&|->-",
"+]}-#{)}>+  -~$g$;;->=@*+-~+ >6#>#'>%*;/>;+ .&{@$-/>]'=@+&>$=& {",
")#+>+{)>>)&$/+.h+-&.&<=*=$+{=)#!>@>#=;>- ;;@*.$+  .=*>--=@&-*#)&",
"+ $-+>+.#= {%@';e-),.*2;}@+.'>@ $&/@$ 5))/;>>=!++&]<->@$@$>&)@^#",
" -&+ +&-2]~+=$-@<*,)}]}}+&.@)&>#)-]>/#+)&.=&=>+]@+i=')' >)2)-##&",
".+++#!+=^;#)<+{5*-}_*&&&*-.#!#;.->;-@@)$&).>+=+>^>-=;$)$&>&.-@{^",
"-+{-+$^*$ @.>#&.%@').)*'-j].@}';&---+!>.={- ;..$~&#--)@;@#>.}#>@",
"k/@#@$^&&>#=-@>&,$k&@}&>c}+@-==/@+@#.2#-)..{.$]>>&_&)&{@)>+@}f)-",
"8@>l5$&'!>>++ <m<#]*@.+;@;) -3=]+#-])#>>>)=/*;.>)#+;*)>@ $@}#$/-",
"+@.-$ &=+@&>*+{i}=7*..##]-=&&- #>{$)}@&/*>))*}@/$   +;{5)--*#@&-",
"c.;- #].4)-;=$=*)&>)![.>){<@=%$>)$2#&5)#.))].-.)#>-#.# ${+'&#;]&",
";*+)#>)>@+{*&$#<=-#3.);--&>&;*&';^{= @);->--#!))$-#+=) ^{@-=*-)>",
"4 .)>>#!@&;'-~+:<@@&22@@.&.&)=-#)!@;.#*&).^>&-.5@+^nc@.'!@#);.*~",
"2>#&)+*-&;=-;3(=># { &-+ &&=@%.@/$&#/+->]()##.-##{{+{$$$@)$$.!>l",
"{+$@+&&@)}#.=}/{$>&!#  +=;@@-=<-*+!~&@)>;9')#=/ {>&;;+>#{#..#+ 2",
"&.'@#+{!+>$& !&>&->;!$@@; #^~@>+' >>;#&.>**-))(+>;#>)#<+&^.}#~.-",
">#@#+@ l=>{-@ @#*+@# @#&-!-.=&&#6{ #,>@,,'-&.-{))@>=_&=& @#-^+>-",
".&<'&*&$)@/.->;>..>+ .{#$$&!; : =^*''&}&*)# #&'- @@2**'=#<@'#>**",
"->)@&+&@) @+*#> @)--$.+)>$-#{$.+&2$ @&))/).$.>)+{**+&}&&#, 3 4';",
".'##&~;&@+/).#+@#{$#+>$>&$)~+@.*;#[ =-;&_..!@&@ $**'&#-&)>@#&^!>",
"*>.'-*}>-^;}c&|=-&@{@-@###, !#/;() !> )@#}.~{++&@)).*-]&@.&<+])4",
".!*()@.>! %)*&_3#5-&#-$&->;-,):*@/+#-+=.}-@>+^+4+;&>=)-&#>!}=*>}",
"'./7)#]&{5{&.>@~- !#&&5$+{#-3.>&&!+#.>)@&+#~>@>+-=>./&:#.  '@@-'",
";@$..+;6'-+'}#--$#@~&#5)({<3=>;1!!.+/{&-#)  2$#.+>$>-.}$!4&;)$-[",
",{@-)@/>/<(>++)#& ^7)] />+<'>>}+.4 *-#-=$>&.^!!@##>-+)^);.>&{+>)",
"*##&<#6./c6<$*;}@  %=]&:#}_=.@]>@~=@#@*>.@.)~{+>#>$+&{-+>>--@&==",
"&-&}}-{#)_<.e)6}=@#.&--%{+:>-.3@>+#@#+&=>#)@$-$@&;{@=2'@#+@3;+-@",
" -=*'* '{}/)]%:c$;+;&-@</;3#=.;;>&)+&'+/=$> @.~>&%}9>':} >@}-$#{",
"]}'@=;#=)$.-n.c6>+;}=#- /{;@}.;#!;{@> >;-2l# no&&];3>^){&2}(&--$",
"+ ->//)).'#}'..-2+@#*&=;^&&&*>(&)+#&-{-._#;$ ,{>.!,9*-+@#~!>-^];",
"$>)..;#-.-&/*+:-]{'@>).-#;+->;-#$>~.-~)+,-&@$-$]& 'n**&)-+{---'@",
">-@}&~)/.-+9/*<#/>.-@+;-@++{^-+;-$#>'&>+@.@@{+>{+));>=#)%#)}-.)>",
"=*1=@&&);)-.=;):'./$#4&> +${#@)+@$'*- &^$>^$[#&@>.=@+%%+.);.$=,}",
"@=5+'= ='$;#-}:;,/'&=#@@  $'@#;>.-.&>>>)))'{!@-@-/=&=,h}=>-/'-%.",
"';>{...~/#'@>-.. %)&;{#.;>&{$!=];@#</{&#-@)!##->;=/@=).'&$)#})+!",
"]>)&.+ #6 &.]>-.3)..>$)@%)!& !)&>}!>>>$5-);>{'.>!-&.>.)  +#&)&@&",
"=*:>.>)};*.>#; }/@;.]{->*>!>&]--)$;+-&.$-!^5!5+&@{! # &@@$$- @ *",
"#*k5>*-#,>%&{]-/>@>)#$--/&@&/'*&&}{45@-!=^{^$#=/>&+ {&+~{++).@!3",
".):*;.&;.)7>@) <@$&$@$&.=@.;*'%)-@> ;~#.' .+-#;.^.*>.$.&{#>=>+@-",
"#')#}:+(k=:*@+!'>..-&--.=&~/$-%&;.#>.;${=+^>{>=#./$.)*)-!f@>^*=;",
"&.#@))-/ 6p}--&-)&>$)- &<}.%{=+-;;'#:.>-]+&*.%}/-=**})'+)#@)&)>=",
"!'.!;]'@**]+;;^&=..>-;#)./@*2&><@&.+*#>~*);#$,;;>$}&;>3+#--{&&#;",
"^-${@=&>$$#-e&&.)-#+***%}*$@2{.+;&@$+&.@+ &)$.>>+#%##.*+ >)@>-5!"};
