/* XPM */
static char * floor2_xpm[] = {
"64 64 379 2",
"  	c #432513",
". 	c #54301A",
"+ 	c #5D391F",
"@ 	c #5F3D21",
"# 	c #613F21",
"$ 	c #59361D",
"% 	c #56331C",
"& 	c #603B20",
"* 	c #56361C",
"= 	c #472A19",
"- 	c #472815",
"; 	c #533019",
"> 	c #5A361C",
", 	c #56321A",
"' 	c #512C17",
") 	c #512D17",
"! 	c #522E18",
"~ 	c #55311B",
"{ 	c #57341B",
"] 	c #4D2E19",
"^ 	c #55361D",
"/ 	c #55321B",
"( 	c #58351C",
"_ 	c #553119",
": 	c #58331A",
"< 	c #452917",
"[ 	c #482A18",
"} 	c #522F18",
"| 	c #58341A",
"1 	c #532F17",
"2 	c #57331B",
"3 	c #56351C",
"4 	c #482A16",
"5 	c #573219",
"6 	c #543018",
"7 	c #512E17",
"8 	c #472915",
"9 	c #4A2D1A",
"0 	c #533219",
"a 	c #5B371D",
"b 	c #5A371E",
"c 	c #5C381E",
"d 	c #57321B",
"e 	c #5C3C22",
"f 	c #54361E",
"g 	c #5B391D",
"h 	c #502D16",
"i 	c #482916",
"j 	c #58371E",
"k 	c #4E2A16",
"l 	c #4B2C19",
"m 	c #583920",
"n 	c #563118",
"o 	c #442616",
"p 	c #58351E",
"q 	c #422614",
"r 	c #56361E",
"s 	c #58361A",
"t 	c #532F19",
"u 	c #543118",
"v 	c #4F2F19",
"w 	c #482914",
"x 	c #4D2D17",
"y 	c #4B2D19",
"z 	c #53331B",
"A 	c #553219",
"B 	c #59351D",
"C 	c #422514",
"D 	c #5C3920",
"E 	c #5E3C20",
"F 	c #613E21",
"G 	c #58391E",
"H 	c #4A2B16",
"I 	c #5B381F",
"J 	c #50311A",
"K 	c #492A15",
"L 	c #553019",
"M 	c #57341D",
"N 	c #512E19",
"O 	c #5B3821",
"P 	c #56331A",
"Q 	c #432717",
"R 	c #5C371E",
"S 	c #482918",
"T 	c #58371C",
"U 	c #533017",
"V 	c #55331D",
"W 	c #482A14",
"X 	c #462714",
"Y 	c #52301A",
"Z 	c #522D18",
"` 	c #492C17",
" .	c #5D381D",
"..	c #412415",
"+.	c #5B371F",
"@.	c #59381D",
"#.	c #54351E",
"$.	c #5D3B1F",
"%.	c #4E2E18",
"&.	c #4E2B16",
"*.	c #58341C",
"=.	c #4F2C15",
"-.	c #542F1A",
";.	c #502C16",
">.	c #432415",
",.	c #5F3B21",
"'.	c #5A351C",
").	c #48291A",
"!.	c #5C3A1E",
"~.	c #4C2C18",
"{.	c #4A2A18",
"].	c #502E1A",
"^.	c #533119",
"/.	c #55341B",
"(.	c #432615",
"_.	c #5E391E",
":.	c #634123",
"<.	c #503118",
"[.	c #4F2C17",
"}.	c #502C18",
"|.	c #4D2913",
"1.	c #59391F",
"2.	c #422314",
"3.	c #5D3A21",
"4.	c #53311B",
"5.	c #4C2F18",
"6.	c #4D2B17",
"7.	c #492B17",
"8.	c #573319",
"9.	c #3D2213",
"0.	c #603D20",
"a.	c #53331D",
"b.	c #452613",
"c.	c #502B16",
"d.	c #603C22",
"e.	c #4E2B14",
"f.	c #4D2915",
"g.	c #442714",
"h.	c #57371F",
"i.	c #472817",
"j.	c #5A381C",
"k.	c #472713",
"l.	c #54341C",
"m.	c #5A361E",
"n.	c #56311A",
"o.	c #624024",
"p.	c #512F19",
"q.	c #4C2D18",
"r.	c #56341E",
"s.	c #523118",
"t.	c #452815",
"u.	c #54311A",
"v.	c #4B2B17",
"w.	c #4F2B15",
"x.	c #55331B",
"y.	c #5E3A20",
"z.	c #613D23",
"A.	c #52331A",
"B.	c #482816",
"C.	c #502B14",
"D.	c #4A2B18",
"E.	c #442816",
"F.	c #54321C",
"G.	c #4B2C17",
"H.	c #442716",
"I.	c #462816",
"J.	c #59381F",
"K.	c #502D18",
"L.	c #4C2E18",
"M.	c #4D2A15",
"N.	c #412413",
"O.	c #462614",
"P.	c #4A2C1A",
"Q.	c #4E2C16",
"R.	c #442818",
"S.	c #492B19",
"T.	c #502E18",
"U.	c #563218",
"V.	c #432413",
"W.	c #5A3A20",
"X.	c #452617",
"Y.	c #442512",
"Z.	c #522F1A",
"`.	c #452715",
" +	c #55351D",
".+	c #52331C",
"++	c #472715",
"@+	c #522E16",
"#+	c #4C2D1A",
"$+	c #512D15",
"%+	c #4B2713",
"&+	c #4B2917",
"*+	c #56371E",
"=+	c #452817",
"-+	c #52321A",
";+	c #492917",
">+	c #5B3A21",
",+	c #59361F",
"'+	c #5B3A1F",
")+	c #4F3019",
"!+	c #58331C",
"~+	c #402312",
"{+	c #532E19",
"]+	c #4A2A16",
"^+	c #5A3920",
"/+	c #4F311B",
"(+	c #57361D",
"_+	c #452717",
":+	c #4D301B",
"<+	c #512C15",
"[+	c #412313",
"}+	c #492C19",
"|+	c #57351F",
"1+	c #462918",
"2+	c #4E2F18",
"3+	c #4E2E1A",
"4+	c #3E2112",
"5+	c #553117",
"6+	c #50321C",
"7+	c #542F16",
"8+	c #4B2E19",
"9+	c #59371B",
"0+	c #422414",
"a+	c #503018",
"b+	c #4F2D17",
"c+	c #603E22",
"d+	c #4C2916",
"e+	c #50301A",
"f+	c #4E2A14",
"g+	c #432819",
"h+	c #452513",
"i+	c #4A2C16",
"j+	c #4D2917",
"k+	c #5A331C",
"l+	c #492615",
"m+	c #513017",
"n+	c #58381E",
"o+	c #51311B",
"p+	c #5F3C1F",
"q+	c #432515",
"r+	c #482B16",
"s+	c #5A391E",
"t+	c #4B2E17",
"u+	c #56331E",
"v+	c #4F2B13",
"w+	c #57311B",
"x+	c #3D2211",
"y+	c #512F1B",
"z+	c #54341E",
"A+	c #4E2F1A",
"B+	c #4F2B17",
"C+	c #4C2A18",
"D+	c #542F18",
"E+	c #402516",
"F+	c #54311C",
"G+	c #4D3019",
"H+	c #562F18",
"I+	c #57381F",
"J+	c #52321C",
"K+	c #5D3921",
"L+	c #56321C",
"M+	c #593319",
"N+	c #442412",
"O+	c #5E3B22",
"P+	c #51341D",
"Q+	c #55321D",
"R+	c #5D3A1D",
"S+	c #5C391C",
"T+	c #552E17",
"U+	c #4C2D16",
"V+	c #442718",
"W+	c #562F1A",
"X+	c #51321B",
"Y+	c #5B361D",
"Z+	c #512B17",
"`+	c #442514",
" @	c #452713",
".@	c #452615",
"+@	c #613C21",
"@@	c #462A18",
"#@	c #4A2B1A",
"$@	c #54331A",
"%@	c #402212",
"&@	c #634023",
"*@	c #472917",
"=@	c #472919",
"-@	c #462814",
";@	c #532E17",
">@	c #54341A",
",@	c #53351D",
"'@	c #412515",
")@	c #5F3A21",
"!@	c #512E15",
"~@	c #5A3720",
"{@	c #422618",
"]@	c #53341B",
"^@	c #422416",
"/@	c #573519",
"(@	c #4F301B",
"_@	c #4E2B18",
":@	c #522C18",
"<@	c #4B2A17",
"[@	c #52341A",
"}@	c #623F22",
"|@	c #502C14",
"1@	c #5B341D",
"2@	c #432715",
"3@	c #402314",
"4@	c #522F16",
"5@	c #613F23",
"6@	c #5F3C23",
"7@	c #472A17",
"8@	c #513119",
"9@	c #412615",
"0@	c #472819",
"a@	c #4D2813",
"b@	c #462916",
"c@	c #5C3820",
"d@	c #452819",
"e@	c #4A2C18",
"f@	c #4E2914",
"g@	c #4E2F16",
"h@	c #5A3820",
"i@	c #432613",
"j@	c #452413",
"k@	c #4D2F19",
"l@	c #502D14",
"m@	c #4D2817",
"n@	c #54351C",
"o@	c #482614",
"p@	c #512A17",
"q@	c #57371D",
"r@	c #55361F",
"s@	c #5C3B22",
"t@	c #422616",
"u@	c #50311C",
"v@	c #3C2012",
"w@	c #583620",
"x@	c #50331E",
"y@	c #603A1E",
"z@	c #492A17",
"A@	c #4E311C",
"B@	c #593419",
"C@	c #492915",
"D@	c #492919",
"E@	c #3F2413",
"F@	c #4E2F1C",
"G@	c #5B3C21",
"H@	c #4C2814",
"I@	c #452511",
"J@	c #57301B",
"K@	c #4D2A17",
"L@	c #4B2815",
"M@	c #4F2F17",
"N@	c #4E301A",
"O@	c #482B1A",
"P@	c #4D2E17",
"Q@	c #3D2313",
"R@	c #502D1A",
"S@	c #50321A",
"T@	c #51331D",
"U@	c #53351F",
"V@	c #59351B",
"W@	c #50321E",
"X@	c #532C17",
"Y@	c #53341F",
"Z@	c #4F2D19",
"`@	c #53341D",
" #	c #58321C",
".#	c #5E3920",
"+#	c #55351B",
"@#	c #5C3B20",
"##	c #432817",
"$#	c #4C2B18",
"%#	c #603C1E",
"&#	c #59341D",
"*#	c #4B2B19",
"=#	c #4C2E1A",
"-#	c #623F20",
"  . + @ # $ % + & * = - ; > , ' ) ! ~ % { ] ^ / ( ( , _ { : { < [ } | ) 1 } { 2 / _ 3 4 5 ! 6 2 ) { 7 / 8 9 0 a ~ { ( / , , 7 % ",
"b   , + @ # c d e f g h i 6 j 6 k ) / 2 2 _ l m n ( 2 / ; a o , p q r s t } ; $ _ 2 u 3 v / ) t _ ; { w x 7 y z c _ / c A 2 { ; ",
"; B C { D E F G H F I c J K L M h N 2 , _ 2 ; - O _ P _ : Q D { ; R S T 2 U t } % , , / V W { ) t _ X Y t _ Z ` V  .; _ + , _ , ",
"B ; , ..+.@ @.#.$ 2 $.+ > Y %.7 ( &._ 2 *.=.-.;.X r , 3 >.{ _ ,.: ; '.).!.~ P ;.) 2 ; 2 _ % ~.( } {.].^.( ! . ' H /.D ; 6 $ / _ ",
"2 { } _ (.Y #._.:.{ ) !.+ a <.~.-.) [.2 6 I P }.|.` 1.2.3 _ p u 3.P 1 '.< + _ / ) } _ 7 % ; 4.w 5.6.1 B h { ; / ) 7.% b _ _ ( 8.",
", ~ p } _ 9.7 0.!.F > 7 E c 2 a.b.c.t ~ 2 ;.*.d.e.f.g.h.t A _ $ 1 D A ; > i.j.t 2 ! ) ! ) 2 ; V   ( ! _ ! ; c ; _ ;.k.l.*._ _ ( ",
"a P / m.; n.(., o.g !.{ } g c 2 p.{.;.; ; t ;., d.=.k q.r.7 > ( g 2 m.2 s.$ t.{ 7 , t ) ;.t % _ u.v.> h ) =.;.b _ t w.- / x., A ",
"P y., _ M 7 _ C *.z.+ ,.( ; E $ % A.B.C./ ) ! ;.{ D w.' D.O h { 2 c u ( P ^.'.E.% N _ . ! ! ; u _ F.G.$ ! ! ! t !.2 ;.k H.; ~ / ",
"% 2 E _ ; 2 ; , o U @ $ a !./ $._ ; 4.I.w.b ; ;.;.{ a ) t [ J.} + / d.A 2 U . ( o } K.2 _ } N _ 2 6 Y L.| ; ; { } a { w.M.X Y u ",
"_ M 2 $., } a ; } N.2 E 2 c ( 6 $ 2 _ A.O.k _ ; &.;.{ + 7 1 P.I Q.y.> y.A M } t 2 R./ ) 2 2 ;.t 7 2 _ 0 q.L ; 2 _ / $.$ ! &.S.6.",
"T.{ b U.b / ; +.1 / (.| $.( $./ 2 b _ ; 4.V.Q._ ~ k &.b > N n.q.W.t !.!.@ } { U _ *.X._ ) ; , &.; ;.M % Y Y.Z.;._ &./ @ c { w.- ",
"`. +| y._ a / _ m.} 2 o ( E { > _ % > _ ; .+++&.! / [.k > $ } @+#+1._ y.y.$.u 2 ; _ ( (.2 ! ! 6 k ~ $+2 % p.G.~ 7 } %+; 2 +.b &.",
"7 &+*+8.+ ; *.; ; M ) ( =+| y.{ ( / _ b , ; -+- c.~ ! w.k / | 7 h ;+>+@+@ 0.y.u ( _ ; : (./ ; ) 2 ;.) } $ 2 ; G.,+{ . &.7 2 ; p ",
"M _ k.r ( y._ % } ; ( k ( C { c > g _ ; I B _ V X ) } ) k f.M B ) &.b.'+} 0.$.+ U M , / b o ~ t ) / ; ) 7 $ % l.)+> *._ ) ! $ % ",
"U { !+H ^ T + 2 % ; _ / k b ~+2 b ( I B _ , $ u J G.{+; ) ;.K.2 c } C.y ( _ y.a + , a P x.*.H.; / ) , 2 ;.; { 1 4..+g _ 2 ) } , ",
"{ u P $ ]+^+$.$._ , ; _ 2 w.b ~+'.c | + / , _ y.6 4.B.N 7 } } / U c ;.! /+(+@+g + T u I % P { _+u _ w./ { &._ > _ -+:+y.{ ; [.t ",
"t { _ { _ D.* E c 8.( . 6 { <+i.[+2 + { !.U _ | c , )+B.) 7 ; 2 { _ b ;.&+}+|+7 E g b ( E 2 2 R 1+; ; f.d { =.t $ _ I.2++ P ; ;.",
";.h > , u _ 3+G 0.!.A | t P (.K._ 4+2 I { $ 5+2 *.c 6 p.i ; A 6 % _ _ 6+&.: q.p 7+$.c { { @ ( _ | I./ ;.k ! 2 w.p.8+( Y J c { t ",
"u ;.t P _ A } G.W.c a _ 9+o { 2 &./ 0+5 3.( a 5+, { c _ a+O.} % 2 _ - b+; ~ *.G. +; !.!.{ , c+> _ %   p f.d+t % V._ 2 a 0 e+$.{ ",
", 2 f+L 2 P P ) ~.* c a g+E _ { % ;.2 (._ I { a u / ( + , )+h+n.{ i+j+; _ 2 / B ]+3 } ,.{ _ A c++ ; k+0+@.) l+i c &.2 | y.m+.++ ",
"c , 2 w._ *.B +.h L.n+P.g $ + _ A A N 2 H.A a ( y.{ _ | { / o+G.4 Y 8.[.; 2 _ P , )+p h + , 2 , E p+; , q+*+L.f+t ( ;.. A E h 2+",
"a.d.A 2 &.2 2 1 P Z r+s++ 2 I E P M { h ( C ; + { + b A { / _ J 8+5 % | ;.} _ N { 2 t+u+v+c _ _ _ c ,.u w+x+c ,+w.; *.=.2 { I y+",
"p.z+@ > 2 f.% _ } > h A+ +g { { E B _ { &.P C , I a !.d.{ M / 2 %.L.2 > > B+;.} } / L 5.u.6 { _ , A + y._ n.q+{ { ;._ _ 6 / B a ",
"a z a.!.{ . w.2 U 2 + ) L.j $ *.{ F > 6 2 ) *.0+2 a j.!.,._ 2 _ , T.C+6 % $ f+&.N _ 2 D+e+Y % { _ _ P + c / *.E+{ ( t _ *.; u > ",
"{ !.F+G++ ( . ;.*.{ B ,.H+#+I+; ; A # T ( t &.% N.6 ( a ,.a . / _ % J+++' { b w.;.h _ 2 7 .+Y _ { 2 _ { > K+A k+X.x.( _ _ > , } ",
", 5 c u.6+a ,.} ; 2 | > _ / q. +P / P p++ P ; ) 2 .._ y.!.y.c / _ ; | x h+7 2 !.k }.;._ L+A #.u._ % +., , ( M u L+_+{ ( ; / a ( ",
", _ 2 ( { )+{ 3.A 2 { > b / M+w a.; } { $.m.2 _ t / C 2 c + > I ;.B A I J+N+{+$ O+w.) ) _ % w+P+Q+/ ( ( _ P > P u.5 (.2 2 7 P $ ",
"T ~ _ { 2 r o+*.R+/ 2 A a b ; 2 l J _ 6 2 E { A ; L ; 0+h b E !.+.7 b { g 4.N+! S+$.[.) 7 ; { T+G+N 2 ( c _ B $ *.; B >.^.( 7 / ",
"2 ( _ / / 8. +U+B !.7 ) ) ( *.h , q.4./ ; { !.{ / / / _ ..~ { @ $.( =.!.u !.v V.! !.E w.; _ } L+L -+p.2 ( > P _ > { . | V+A $ ) ",
"w.*.2 . _ % , r.S.W+!.! &._ a 2 ! 6 x X+*._ { g % 2 } { Y+~+7 c E E c ! ( ( y.p.0+Z+j.3.&.7 _ h M n J z { ( + , 2 ( { u.a _+r ( ",
"{ ;.p , / 2 2 / ( =+Z+7 ) w.2 ( u ) _ q.-+Y+; 2 $., _ % { p 0+6 a $.# c ; $.j.$.a+`+7 { a ) } _ ) % ( q.F.2 $ y./ 6 ( *.} I C 3 ",
"! ,+7 M 7 2 2 2 / (  @T+/ / ; =.3.u ! L ]  +R } { > 2 / % / B ~+A d.E F c ; $.+ y.} .@D+( B ) ) . } *.*.l ~ A $ $ P _ 2 *.h +@@@",
"#@} $ Z _ } ( p { ; M D., ; _ 2 7 ( } _  @}+$@a _ { > , _ A ; m.%@. y.F &@b B g E { *@B.7 > P B+;.t _ % : 9 r.6 B > 2 _ *.2 ^.=@",
"(+q+: s t ; t b _ % ; (+v , ! . ~ t | -@Z.;@A+>@b _ / a A 2 2 1 $   _ + @ # $.2 g ,@g J+&+6 $ 1 f+) } 2 2 8.P.j u { % / _ I '@2 ",
"_ j [ a { , ; } 2 , *.A 3 K 2 ' t / i / } ; 7 ~.l.c L+6 c / / ; 6 *.q+U.!.$.c+j S.c+c a )+H ; B 7 h / 2 _ P H+X >+A M _ (+  )@A ",
"2 ; ( #@+ _ % &.! / ; % U V G.{ D+]+J+!@( t _ ;.G.s.!._ _ ( / ; ~@} n {@2 $.J.]@j._ $.c > -+v ) % &._ P *.} K.! ++m / B ^@{ 2 $.",
"$.2 ; /@=++ : 2 ;.; . 7 2 1 L+4 (@_@} p } { 7 / :@<@z+m._ u ( , 2 ,+; 6 o e+[@$.}@{ 7 c !.a J P.;@! |@{ ! b A ) k 8 c 9.1@; % 2 ",
"_ !.u . ( < { t 2 ; ! } ) % ; L+2@{ ! ~ ; _ c } u.;.k. +*.; _ $ A / M @+n 3@4@d.!.5@$ h E c { 4.`+;.} t A 7 % 6@e.k E.M ; _ _ $ ",
"y./ I P ; j 7@2 p./ ; ) h t / _ u.v.B h . w.! + } ! c.-@8@/ / A c u _ % 7 ; 9@A o.a !.> } !.g | X+B.! h ) ; w._ ,.e.w.L.,+N $ ( ",
"2 !.A B / , r.< % ) / ; ! ! ) % ; z ~.> ) t ! ; $.2 K.w.B.Y _ 2 , + , _ p h / q+8.c++ E $ 2 $.> *.Y ++w./ ;.N ) 2 D &.c.D.,+t *.",
"a A @ _ % } } 3 0@n.h 2 ; ) h t 2 6 Y D.{ @+7 { ! c { M.a@b@8@_ % P E 6 } m.@+, 0+, c+a a > _ y.6 _ -+B.w.c@; ;.) % > &.D+~.j ; ",
"; D ( ,.A 2 } } _ d@5 } / 2 ;.t . 2 _ _ e@D+} _ ; _ @ { ) f@P.g@5 2 2 y._ ; $ 6 .   / @ 2 !.p 1 ( 2 _ -+ @k / 6 ;.;.| 3.&.t ~.r ",
"h@h O+g ,._ % ; ; 2 o / 7 t / ;.. h *.{ L i@! ) ; &.6 c+b *.&.B.Y { a P b ; ; I } 2 2@| $.( g ; % ( / ; 4.j@;.u.2 &.&.a > 7 / k@",
"q.T l@y.y.E A M ; ; { C 5 } ) _ w.t ) B / F+G.L ) ! m@7 2 ( $ :@- n@> I A > / ; p } *.=+{ y.{ b _ % B _ ; -+o@p@7 ~ ;.&.*.b @+! ",
";.i q@h ,.c+!.A B _ _ M _+_ ; N / &.. h B 2 p.- B { _ k ! _ , { h w r@8.$.6 ( _ . B h > (.( E ( > 6 / $ 2 ; a.-@&.t ! [.f@_ ( } ",
"; k X s@!@F E I / ( ; _ T t@6 } ) 2 ; ;.} *.*.4.u@R { _ ) t ( { *.6 X  +( $.u 2 6 7 p w.( E.2 > ( + P _ { p , a.B.;.. w.;.k L+$ ",
"> h k )+n+h + $.+ 1 c P % p (./ ; ! _ { w.} { ; $@X+ .h P =.} { 2 % d H ^ a D ; % ; 6 / &.9+v@{ a ( c *.2 / b _ -+l Z ! ! h ) % ",
"6 b ;.) L.w@;.b !.+ 2 g / 2 3 o / u.B+2 | &.t > ~ ^.x@y@{ } ) ! { 2 2 2 z@w@E 3., 2 _ _ _ &.( C B + 8.a A _ P a 6 Y i N 7 ; _ ; ",
"2 _ b =.[ r+p } d.+ D | d.*._ c _+n.7 f+_ M h _ : 3 S A@c 2 } &.} { _ { B@C@* !.D 8.( ; A *.) D@E@P D | y.A / { D _ J - ) t ; 2 ",
",+_ 6 J Q.2 H 3 / y.g { | c+{ , p o / [.f.! % [.p.F@9+t X++ *.} ;.} { _ / , v.G@@ c U.B _ A q+h L+~+/ !.{ > A 2 ( + ; m+- } / 6 ",
"A L I.Y t ; B K A , + c { P c+T U * [+Y+d+H@} u+q+_ { a F.v c { A &.! P U 2 L H n+!.I A !.t@*.*.|@/ 0+: $.{ $ U 2 P $.1 )+I@J@{ ",
"{ q.K@m+6 2 A ( l /.; 3.{ _ _ c+E 6 % 0+> ) L@z@j.&.d { !.-+8@+ { , w.; { | { &.~.r + s+o ,._ { 2 [.2 H._ $.( a u 2 ( y., v O.L ",
"G.M@P &.t / _ { A N@J.&.y._ , / $.0._ % 0+(+L.M.; *.&.L , c y+X+c ; { k / B { a h L.j O@> b $._ A { ;.L+C 1 c > c ( 2 2 $ P v ~.",
"9 % ( { ) ! / h M 2 P@/.|@$ ; _ , g +@u 5 Q@Y+$ &.t M ;.{ { j.R@S@+@{ 2 &.% p 7 $ 7 - e !.u I p+_ 2 B =.'.2@/ y.( !.g _ | , _ y+",
"M@q./ j.b k ;.; t % 1 )+h % b } , / $.R+L+/ 0+2 M ;./ 2 } , m.b Z.T@+@$ M f+% M ! b 7 %.* g { { c+{ 2 { ;.% o / c T !.c+p { _ 2 ",
"_ 4.r+t ( $ w.&.N } / } U@8@, B _ _ 2 y.V@_ % ^@B@,+7 _ *.2 2 ( c ; W@+ { L w.% ; / E X@l *+> 2 { # ( _ A ;.p C 2 I a g + % 2 6 ",
"/ % 4.- ) | c B+;.;._ P 7 Y@$@; ,+% _ 2 V@O+/ { _+{ p _ _ $ _ 2 , E u./+a > ~ ;.m.P { O+!@#+T ; } P F g 2 ~ ;.% 0+_ c g !.I % _ ",
"_ _ ( Z@  ! ( g }.h ;._ / 2 `@} ; 2 m.A / s { ; % H. #{ ; , j.{ / _ .#-+)+a d./ 1 8.( > 2 , l +#% _ { @ g 2 ; ! / ~+_ I y.!.( 2 ",
"} 2 u @#. V.) > @ M.7 ) _ 2 % /+/._ { $ _ { j./ _ *.t@, B ; A a P ; P ( V J n 6@_ / 2 I b , , H J+_ ; { E b A 6 t . E@2 c $.a $ ",
"> ;.b { T Y b.L g $.&.) 7 ; 2 _ L.h { ( b _ { | { ; 3 o u ,+_ 2 j.d _ 2 { % N@'.$.2 M { > $ ; _ ~.8@_ ; 2 F { 2 ; ; ;   =.b ,.R+",
"F B 7 c@U $.7 0+6 g p+k . _ h % _ #.8@/ { a A ; > *.1 M ##, m.h % ( / 2 2 d ( r+k+,.} ) } { ( ! n <@J+_ _ { 3.{ _ ; / / 0+_ B E ",
"E F I |@I ( $.p.V.h a E k 1 _ ;.2 2 J+p.{ m.c , 2 $ *./ { d@{ $ f+( { ; / 2 2 M D._ D } ) t ( { 7 _ $#4.B u P y., % @+{ c 3@} b ",
"b $.c+D _ + a %#T.0+t $ g &.t } h % *.L.p.2 ( y./ 6 ( 2 ; b X.&#j =.2 2 / 2 2 { j *#) } } w./ I _ } 1 =#<.a } , + A ; 2 { ( 0+6 ",
"_ D +@-#c ; + + !.N h+~ ( { }.! . } { ,+v.a+2 / a P _ { { 6 D O@t $ ) *.} _ % 2 P 3 X L _ _ _ 7 6@_ t ; (@z ( _ { c P / 2 2 *.0+"};
