/* XPM */
static char * floor6_xpm[] = {
"64 64 509 2",
"  	c #393937",
". 	c #20201E",
"+ 	c #1C1C1A",
"@ 	c #222220",
"# 	c #282725",
"$ 	c #2A2927",
"% 	c #1C1B1A",
"& 	c #212020",
"* 	c #1A1A1A",
"= 	c #2E2E2E",
"- 	c #3A3939",
"; 	c #1C1B19",
"> 	c #100F0D",
", 	c #22211F",
"' 	c #242321",
") 	c #262523",
"! 	c #1B1919",
"~ 	c #2F2E2E",
"{ 	c #2C2B29",
"] 	c #181715",
"^ 	c #252323",
"/ 	c #252324",
"( 	c #171616",
"_ 	c #1D1D1C",
": 	c #252623",
"< 	c #1F201C",
"[ 	c #1D1D1A",
"} 	c #1F1F1D",
"| 	c #242422",
"1 	c #161614",
"2 	c #272725",
"3 	c #1B1B19",
"4 	c #201F1D",
"5 	c #292826",
"6 	c #171614",
"7 	c #1B1C19",
"8 	c #232221",
"9 	c #1F1D1D",
"0 	c #222020",
"a 	c #302F2E",
"b 	c #1D1D1B",
"c 	c #21211F",
"d 	c #232220",
"e 	c #1A1917",
"f 	c #30302F",
"g 	c #222222",
"h 	c #141414",
"i 	c #151515",
"j 	c #1C1C1B",
"k 	c #1E1E1C",
"l 	c #252523",
"m 	c #1A1A18",
"n 	c #282826",
"o 	c #2E2E2C",
"p 	c #2B2A28",
"q 	c #1F1E1C",
"r 	c #343331",
"s 	c #383736",
"t 	c #222121",
"u 	c #262626",
"v 	c #141413",
"w 	c #31302E",
"x 	c #2E2D2B",
"y 	c #1B1A18",
"z 	c #181616",
"A 	c #211F20",
"B 	c #282726",
"C 	c #272624",
"D 	c #2B2B2A",
"E 	c #1D1B1C",
"F 	c #302F2F",
"G 	c #383836",
"H 	c #171715",
"I 	c #242522",
"J 	c #2C2C2A",
"K 	c #262624",
"L 	c #232321",
"M 	c #151412",
"N 	c #1E1D1B",
"O 	c #2A2A28",
"P 	c #1D1C1A",
"Q 	c #292927",
"R 	c #343432",
"S 	c #21201E",
"T 	c #222221",
"U 	c #151615",
"V 	c #282828",
"W 	c #212121",
"X 	c #252524",
"Y 	c #11110F",
"Z 	c #191917",
"` 	c #131311",
" .	c #181816",
"..	c #141311",
"+.	c #1E1D1D",
"@.	c #191919",
"#.	c #2A2A2A",
"$.	c #20201F",
"%.	c #12110F",
"&.	c #252422",
"*.	c #1D1B1B",
"=.	c #302E2F",
"-.	c #1B191A",
";.	c #2C2A2A",
">.	c #323130",
",.	c #282627",
"'.	c #1D1C1C",
").	c #171716",
"!.	c #272724",
"~.	c #2A2B27",
"{.	c #1C1D1A",
"].	c #1A1A19",
"^.	c #2D2D2B",
"/.	c #252522",
"(.	c #252421",
"_.	c #3B3A37",
":.	c #161512",
"<.	c #2A2928",
"[.	c #1B1B1C",
"}.	c #1C1C1C",
"|.	c #2F2F2E",
"1.	c #363634",
"2.	c #252525",
"3.	c #2B2B2B",
"4.	c #2D2C2B",
"5.	c #191918",
"6.	c #343333",
"7.	c #191816",
"8.	c #1E1D1C",
"9.	c #242323",
"0.	c #212120",
"a.	c #272726",
"b.	c #222120",
"c.	c #1A1918",
"d.	c #121210",
"e.	c #353533",
"f.	c #1A1A17",
"g.	c #1F1F1C",
"h.	c #2E2D2A",
"i.	c #3B3A38",
"j.	c #2B2B29",
"k.	c #2A2A27",
"l.	c #292926",
"m.	c #111111",
"n.	c #373737",
"o.	c #10100F",
"p.	c #1E1E1D",
"q.	c #232323",
"r.	c #1E1E1E",
"s.	c #1D1D1D",
"t.	c #202020",
"u.	c #242424",
"v.	c #3C3C3B",
"w.	c #373735",
"x.	c #0F0F0D",
"y.	c #1F1F1E",
"z.	c #31312F",
"A.	c #161616",
"B.	c #2E2E2D",
"C.	c #10100E",
"D.	c #323230",
"E.	c #151513",
"F.	c #22221F",
"G.	c #262723",
"H.	c #2F302D",
"I.	c #404040",
"J.	c #323232",
"K.	c #181818",
"L.	c #1B1B1B",
"M.	c #0F0F0F",
"N.	c #1D1C1B",
"O.	c #181817",
"P.	c #242423",
"Q.	c #3D3D3D",
"R.	c #1F1F1F",
"S.	c #272727",
"T.	c #30302E",
"U.	c #282827",
"V.	c #1B1B1A",
"W.	c #343434",
"X.	c #303030",
"Y.	c #353536",
"Z.	c #313131",
"`.	c #171717",
" +	c #3F3F3F",
".+	c #2C2C2B",
"++	c #2F2F2D",
"@+	c #2A2A29",
"#+	c #2F2F30",
"$+	c #262625",
"%+	c #1C1C1D",
"&+	c #2D2D2C",
"*+	c #101010",
"=+	c #131313",
"-+	c #252423",
";+	c #262525",
">+	c #111110",
",+	c #494947",
"'+	c #1F1F20",
")+	c #232322",
"!+	c #4F4F4E",
"~+	c #222321",
"{+	c #1F1E1D",
"]+	c #151514",
"^+	c #141412",
"/+	c #575756",
"(+	c #2C2C2C",
"_+	c #262627",
":+	c #141415",
"<+	c #242421",
"[+	c #21221E",
"}+	c #20211D",
"|+	c #0E0E0E",
"1+	c #333331",
"2+	c #0F0F0E",
"3+	c #2A2A2B",
"4+	c #1A1A1B",
"5+	c #393939",
"6+	c #292928",
"7+	c #161613",
"8+	c #272728",
"9+	c #292929",
"0+	c #282829",
"a+	c #3B3B3C",
"b+	c #131312",
"c+	c #323231",
"d+	c #3F3F3E",
"e+	c #242521",
"f+	c #1C1C19",
"g+	c #333431",
"h+	c #282927",
"i+	c #2F2F2F",
"j+	c #454543",
"k+	c #161615",
"l+	c #202021",
"m+	c #3B3B39",
"n+	c #373736",
"o+	c #1B1C1A",
"p+	c #272827",
"q+	c #21211E",
"r+	c #4E4E4C",
"s+	c #1E1E1F",
"t+	c #4C4D4C",
"u+	c #181A17",
"v+	c #1A1C19",
"w+	c #343633",
"x+	c #212220",
"y+	c #1F201D",
"z+	c #3D3C3A",
"A+	c #0D0E0D",
"B+	c #2D2F2C",
"C+	c #434442",
"D+	c #0C0E0B",
"E+	c #31322D",
"F+	c #2E2E2B",
"G+	c #393938",
"H+	c #464644",
"I+	c #434342",
"J+	c #3D3D3C",
"K+	c #0C0C0A",
"L+	c #0E0F0B",
"M+	c #1C1D18",
"N+	c #252424",
"O+	c #121212",
"P+	c #363533",
"Q+	c #2C2B2B",
"R+	c #11100F",
"S+	c #0B0B0B",
"T+	c #3B3B3B",
"U+	c #383838",
"V+	c #0E0D0C",
"W+	c #0F0E0C",
"X+	c #1D1C19",
"Y+	c #1B1A16",
"Z+	c #1F1E1B",
"`+	c #1C1B18",
" @	c #363636",
".@	c #121211",
"+@	c #2A2929",
"@@	c #32312E",
"#@	c #2F2E2C",
"$@	c #3C3C3A",
"%@	c #171818",
"&@	c #2F2E2D",
"*@	c #191A17",
"=@	c #191818",
"-@	c #161513",
";@	c #2D2D2D",
">@	c #131210",
",@	c #262524",
"'@	c #2B292A",
")@	c #181717",
"!@	c #151413",
"~@	c #3E3E3E",
"{@	c #434343",
"]@	c #0A0A0A",
"^@	c #3C3C3C",
"/@	c #353535",
"(@	c #343433",
"_@	c #333333",
":@	c #0C0C0C",
"<@	c #0E0E0C",
"[@	c #2D2E2A",
"}@	c #494949",
"|@	c #1D1D1F",
"1@	c #515151",
"2@	c #2F2F2C",
"3@	c #080806",
"4@	c #41413F",
"5@	c #3D3D3B",
"6@	c #3B3B3A",
"7@	c #474745",
"8@	c #282825",
"9@	c #1A1B17",
"0@	c #1A1B16",
"a@	c #393A35",
"b@	c #414141",
"c@	c #383837",
"d@	c #22211E",
"e@	c #292A25",
"f@	c #3A3A37",
"g@	c #060606",
"h@	c #4F504B",
"i@	c #242520",
"j@	c #1D1E1B",
"k@	c #2D2D2A",
"l@	c #20211C",
"m@	c #1D1E19",
"n@	c #363635",
"o@	c #302F2C",
"p@	c #43423F",
"q@	c #181916",
"r@	c #43443E",
"s@	c #494A45",
"t@	c #3A3A36",
"u@	c #0D0D0D",
"v@	c #302F2D",
"w@	c #12110E",
"x@	c #0C0C0B",
"y@	c #3A3A3A",
"z@	c #4B4B4B",
"A@	c #121110",
"B@	c #2A2926",
"C@	c #4D4D4B",
"D@	c #0C0C0E",
"E@	c #313133",
"F@	c #29292B",
"G@	c #0F0F10",
"H@	c #161617",
"I@	c #050504",
"J@	c #0A0907",
"K@	c #4B4B49",
"L@	c #353432",
"M@	c #4F4F4F",
"N@	c #2D2C2A",
"O@	c #434240",
"P@	c #0B0B0A",
"Q@	c #40403F",
"R@	c #262623",
"S@	c #181819",
"T@	c #2C2D29",
"U@	c #343532",
"V@	c #0A0A09",
"W@	c #292827",
"X@	c #373634",
"Y@	c #0D0D0B",
"Z@	c #1E1F1B",
"`@	c #31312E",
" #	c #575654",
".#	c #424140",
"+#	c #090907",
"@#	c #373533",
"##	c #41403E",
"$#	c #0B0B09",
"%#	c #161412",
"&#	c #42413F",
"*#	c #3F3E3C",
"=#	c #383735",
"-#	c #3A3937",
";#	c #444442",
">#	c #40403E",
",#	c #1B1A19",
"'#	c #21201D",
")#	c #3A3A38",
"!#	c #21201F",
"~#	c #353331",
"{#	c #212021",
"]#	c #242223",
"^#	c #201E1F",
"/#	c #181716",
"(#	c #3F3F3D",
"_#	c #0B0A08",
":#	c #343233",
"<#	c #3A3839",
"[#	c #232122",
"}#	c #22201E",
"|#	c #464543",
"1#	c #474644",
"2#	c #363735",
"3#	c #11100E",
"4#	c #1F1D1B",
"5#	c #151516",
"6#	c #3E3E3C",
"7#	c #333230",
"8#	c #0F0E0D",
"9#	c #23211F",
"0#	c #272623",
"a#	c #424240",
"b#	c #2C2B28",
"c#	c #393836",
"d#	c #32312F",
"e#	c #181917",
"f#	c #0C0B09",
"g#	c #2F2E2B",
"h#	c #272626",
"i#	c #191718",
"j#	c #222021",
"k#	c #11120F",
"l#	c #3F3F40",
"m#	c #1A1816",
"n#	c #0C0B0A",
"o#	c #333133",
"p#	c #1A1819",
"q#	c #262425",
"r#	c #101011",
"s#	c #272526",
"t#	c #262424",
"u#	c #2F2D2B",
"v#	c #1D1E1C",
"w#	c #302E2C",
"x#	c #161416",
"y#	c #2C2A2B",
"z#	c #191817",
"A#	c #2C2C29",
"B#	c #32322F",
"C#	c #1D1A1B",
"D#	c #242322",
"E#	c #1B1B18",
"F#	c #1E1C1C",
"G#	c #171514",
"H#	c #393936",
"I#	c #1D1D1E",
"J#	c #30312F",
"K#	c #20201D",
"L#	c #212122",
"M#	c #19191B",
"N#	c #272824",
"O#	c #161715",
"P#	c #272729",
"Q#	c #2B2B28",
"R#	c #434341",
"S#	c #2A2827",
"T#	c #2F2D2F",
"U#	c #28282A",
"V#	c #1A1B19",
"W#	c #252526",
"X#	c #1A181A",
"Y#	c #232325",
"Z#	c #2C2A28",
"`#	c #151411",
" $	c #211F1F",
".$	c #282728",
"+$	c #141411",
"@$	c #0F0D0C",
"#$	c #262422",
"$$	c #252322",
"%$	c #252425",
"&$	c #242427",
"*$	c #262628",
"=$	c #1E1D1A",
"-$	c #1B1A1B",
";$	c #424242",
">$	c #30302D",
",$	c #272625",
"'$	c #181617",
")$	c #2B2C2B",
"!$	c #313132",
"~$	c #3C3B39",
"{$	c #161514",
"]$	c #181815",
"^$	c #201F1E",
"/$	c #1E1C1D",
"($	c #363534",
"_$	c #1B1C18",
":$	c #4A4947",
"<$	c #1A1919",
"[$	c #282626",
"}$	c #201F20",
"|$	c #121311",
"1$	c #131612",
"2$	c #282A27",
"3$	c #242724",
"4$	c #11110E",
"5$	c #1C1A1A",
"6$	c #292728",
"7$	c #191916",
"8$	c #1F1E1A",
"9$	c #22211D",
"0$	c #2D2C28",
"a$	c #404041",
"b$	c #232320",
"c$	c #12120F",
"d$	c #2D2E2C",
"e$	c #242525",
"f$	c #0D0C0A",
"g$	c #272627",
"h$	c #12130E",
"i$	c #252621",
"j$	c #222320",
"  . + @ # $ % & * = - ; ; $ > , ' ) ! ~ { ; ] ^ / ( _ : < [ } | 1 2 3 3 4 5 ; ' 6 + 7 % 8 9 0 a b @ c d e 5 f g h i j k l m n 4 ",
". o + p q r s t u * v w x 6 y 0 z 9 A t B C x D E F G H [ I J } K l m L M , { N . O k 4 ' P q q + Q R P S $ T U V W X 3 Y Z . ; ",
"Z `  .@ 5 N ..+.@.#.$.q %.&.*./ =.-./ ;.] ] , >.,.'.).!.~.{.].}  .^.Z Q ] 5 y e , } l /.(._.:.3 O H ` e &., <.~ [.}.|.@ k 1.y N ",
"P n ' l N l | 2.g V 3.b X 4.5.F % & 6.<.8 7.e 8.t 9.$.^.7 c 0.a.X b o ` b.c.n d.1 e.| f._.g.h.i.} j.k.!.l./. .m.g n.o.0.p.T , q ",
"d y # 7.n @ j q.W r.s.t.u.@.v.k  .2 c m | 2 O b  .w.. x.y.q.r.* p.O z.n ].A.A.B..  .1 3 C.D.Y 1 @ E.E.F.< G.H.I.J.K.L.M.W i N.# ",
"q p + D O.b P.W @.Q.R.h A.S.j G c n @ n @ 3 n | l j.m T.K A.W L.).H m Z p.g R.U.j.2 K D.Z 1 . 2 Q + } l O.1.V.K.u.t.W.g X.X  .q ",
"&.C ] ].Y.g g V Z.`. +q.q.j .+o Y m } L Z } ++Y k O O l | @+#+@.@+H e.n $+%+K.O.j 1 H C.J b l 0.2 c j.$.$.P.&+W V A.* *+3.=+q P ",
"<.-+c.;+@.X.u.u.P.T }.i t.u >+T.,+Q ++K D.j. .| 3 l Q + c X W '+g $.)+H R y.q.s.P.a.R e.E.. . k 1.m . T $.V s.`.j D !+~+j _ } {+",
"u u X.R.p.]+y.@ ^+Y /+}.(+g D b 3 | 1 + x.1 } m D.L )++ L c T _+:+u.].Z x.+ k &+.+t.* r.J b c 2 3 . L c j.P.R.n k x.<+[+G.}+H * ",
"A.|+=+p. .1+++_ J $+2+W q.h p.l 3 3 L b 2 k . Q b l H Q | } t.3+4+}.$+O Z j.} j.)+5+#.s.+ } 2 | H 3 K Q L 6+$.k K D. .+  .c c u ",
"2.#._ P.I 7+Z y.8+2.}.t.(+9+U.L L m j.O . K b k Y J l l g.} a.0+a+r.V.. k k . b V.S.@.b+@ o Z L L K m C.m $.c+|.l E.Z P.P.2 o ).",
"d+m._ b e+f+g+h+K.h 3.V }.i+_ b ^.++j.E.3 K 1 H j+L _ k+p.} 5.* l+u X m++  .2 Q g 2.n+U.n m w.T T.+ |.. $+T }. .+ O o+p+)+b+j B.",
"` P.X.* 9+4+O.k+p.`.u.u.L.(+j q+k 4 e # q d K +  .O.`.g 3.j O L 3 b H r+Y H o 1 + b m H L | E.].W g t.++.+* s+R.@.2.t+u+v+w+x+d.",
"y+| 3.W W #.R.k Q y.=+u.h u.@ O j.j.z+4 4 d 1 z.m D A.t.`._ y.)+} m | 1 e.L x.@ } + j.+ . d.m 0.@.q.6+x.Q D * g A.g A+B+C+D+V.P.",
"E+F+o.@+t.r.$.2 X q.t.I.s.* L j.L + &.q 4 y @ @ G+b+9+2.u V 9+u._ 2 H+^+n _ w.m+^.m ^+w. .. k I+}.* u _ p.R.u W.}.`.J+K+b R ].i ",
"L+M+e.0.W t.N+l B.& ;+O+#.0.].` K P+N w C ] c L L ].R.h K.}.g * j Z } .  .J K 3 + 0.&+p.| c ` v Q+)+R+K K f u.t.u.S+O.b o V.W #.",
"l Z + l m L @ 6 M $ .+r.t.T+O l.Q l H @ ].G H 3 z.Q . k 2 2.U+t.6.' z+V+' 5 W+S ~ }.4+W d.c T.X+Y+Z+`+^+J | ` @. @u v O 3 T P.u.",
"Q 3 E.f P.H  .q { (.].W }..@$.c 3 2 b ^+j. .2 c k C.L 1+$+2+s.A.+@%.N @@4 ; #@S i 8+r.3.| n b S # P C + b  .y.K.`.q.V.j.Q L 0.g ",
"D.C.$@y.2.A.j ^.{ C p L.u #.$.Q c . . j.} @ Y b m 0.M.K.t.2.W 9+P.5 &.M N &.M p s.%@t.)+Z b 3 &@% N.7.Z *@@ 5.@.}.K.X 2 k z.5+Z.",
"l 0.5.B.3.X.=@q ' -@B ;@K.$+y.O  .} n H b k R | $+6+u A.K.K.u s.g y # ] q Q >@,@X.n.S._ C.,+H c.=.'@)@!@b X | u h ~@6+K R m O.@+",
"{@r.|+s.Z.]@k+j ++L v }.^@K..+| c b } a.s.K.K.O+W.@.g /@@.3.W q.p.e.. c J Z 2 n  .} D.a.9+R.K.(@K+j  @}.|+R.r.t.;@i r.0.. ~./.b ",
"}.}._@r.t._@P.6+H z.G+t.m.g $.m @ k f.].2.2.v.}.2.#.W.:@}.u L.(+g <@Z j.C.k 3 ++l } c @+r.K.t.V.2 s.q.Z.6+9+B.v A.3.`.U.2 [@}@|@",
"K.* L.2.h O+@.k 3 ^.].X.=+1@o.R z.b 2@)+D _ ` + L j u S._@i+* *+].b 3@+  .3 k 3 u.s.* * X.g S.y.b b+`.| .  .j.L | b )+V.Y f+2 S.",
"J.s.h S.U+K.6+]+b 4@ .A.n.K..@@ E.c k 5.q.T l k+b v h ]+_ O+A.Z.a..+3 a.5@K + K 6@K.u.}.u O.O++ + .+u B.@+]+4@c @ ++1 7@8@9@0@a@",
":@q.}.Z.b@J.c+^.}  .c@W.S.5.@ K ^.Z S q e (.d@P+z 7.e@f@5.j u.Q v g@S.A.c@Z J L ^+. @ b E+h@i@j@q.i i+= m.q..@| T.b k@l@m@}+$.W ",
"g 3.g K.V  @6+K 3 + n@2.g I.a.E.| H   i.e o@p@%.B q@l@k y.%+u J _ q.q.r.>+T.b H d.E. .n L m ^..@* t.o.< r@s@t@D.m j.`    .. s.@.",
"r.u.u@).1 c + k . 3 k+5+u.|+p.+ ^.2 v@5 , w@`+d ^ 4.Z =+V g p.} x@L.L.t.]+<+Q c z.c <@. J E.J 0.R.R.u.$+<@. } 1+J J R 3@| K p.y@",
"s.A.5+p.L k Q n b T.5.3.m.z@5.| | L A@..S X+B@5 A@3 &+u @.L.).G K @+q.I.T K o w.K c C@++O+3.h y.s.W }.D@E@F@=+Y n . k+r.q.a.@.L.",
"d.1 O j G@i $.^.].H@l+#.#.I@y.} j.} 7+6+).r.b  .++#@J@6 y q y y E.` 7@d.3 c k Q . l l $.#.m.L.6+K@L | n l L Z v@] L@} j.c | y.r.",
"Z J | 0.Z.W ].n ]+}.g *+g f k 2  .L K 1 M@n.Z | Z b { P 4 7.N@O@6 ^+` O o 3 3 k @ Y e.p.i = X.c@g.l P@K H ^+` P e i.T.x.d.| L | ",
"c o 1.X L.Z.;@;@$+} ]+h Q.W Q@c 2 Z 1 @+=+@.A.`.* <.' q , ) L@C #  .2 Q T.} H l ^.+ + l P. +R.|.H b @+P.4+J.c+R+N { H Q | R@k.D.",
"+ C.5@P.;@*+}.S@5.T@U@(+u@V@j @ ^+O ^.y.A.S.u.}.T+W@{ y X@w e 7.z.++ .Z Z l L @ @ m j.a.s.h u )++ k o T W }.$.e.d p 1+Y@Z ^.Z@`@",
"b 3 k R K m # y O@M e m ^.` c m 1+J b Z n &.N q q 4 l D.^.} d.. l b 3 Q k D.3 j K.R.q.S.7. #d y.u W 2.q.3.y@t.2.}.S+.#z+4 p C T.",
"| 3 1 n + . -@4 M N . b m . E.b ` 3 k E.e.J@C w C . Y d.` ^.^.^+ .2 G 1 n m 3 @+X R.t.P.q >@P I+O+* `.* K.* J.u.i+r.V@J@5 ' e ` ",
"+#++| c D.o ..# x 7.@#Z . j.L b } j.. Y Y@##4 q N | n ++. k k . K 3 $#| ++1 Z n o Q d.) $ %.> % q.`.}.`.(+i+2.s._@5+-+&.' q $ O ",
"^+. @ ` @ k b %#M N@X@c j.^+x.R | | . K J >@&#, *#M n + H 1 c b Z L O . j.$@E.. c @ } R q *#' -+r.2.#.9+ @u.J.s.5+q.<.=#M y } } ",
"d N $ c c c Z -#P+C z.k o ;#^+. o l E.T.K >#m _ ;+,#'#y S | Z l 3 k + L b+R.W.u.a ] i.4 H )#b b H ^.O . | c } n ^+z.@ ^.&+u.r.g ",
"N@7.{ #@k K @ # ) d &.2  .m G Q 1.^+Q L | l R .@* ]+`+P S l | @ b 3 d.1 5.'+;@&+!#$ ; 4 x.,+Z K + ++T.++2 n 1  .+ x.^+c a.V M.M.",
"L D.K Z ; S &.7.-@~# .m+L m  .^.2 m B.i+S@$.j.&+u.{#]#^#9 k c @ b+i u.= R.=+L.y./#M d k 3 E.j.n L (#C.| G D. .| 5@z. .$+v }.A.}.",
"x.^.2 6 q P P M , _#m 3 H x.d.L T.1+2.h }.p.K (@W ( :#<#[#<.D.c o.X.i R.m.L.s.* r P+] ) ++@ x.@ >#Z Q L @ Z H+n Z H ` 1 V.s.`.9+",
"H <@+ c K @ S }#' N c T.L k j.} 1+L p.i+3+V.j.+ 1 n L 0.L.s.5.m 0.v L.W _ y d X@5 $ =#e %.|#1#1 . ,+Y } l 2#S 3#q 7.N ^.k 2 ^.H ",
"m+Q | m 2 c @ | , 4#@ z.K J ^.|  .U.D s.r.T ^+1+  m o B.5+(+.@b $.5#s.u B ) > 4 # d 7., N@7.) #@1 d.b b L . D.' d e $ Y b 2 Y . ",
"o . m ;#<@n 6#' 7.6 k@$.1 . Z b 3 m g 9+W U.  H J | $.`.@.s.Z.c 3 j.2 ^+J P , , p L@N@5 N 7#, -@o++ + | 3 | } y S >@b o Y ` m 1+",
"L O  .1 D.k+8#9#P L@0#O | H l ^.n L y.t.(+@+j 3 + l a#@+X.V W $.1 c | . ; 7#b#> d C 5 , c#' M d#+ e#K+J 5@j.d y 4 f#g#P@C@n J ^.",
"k  .3 l  .+ L *#4 e >+* L..+% ] 7.q c } | e.J v }.g W S.6@E.E.e.L  .} } h#i#[#j#8 k#1 n k L O 1 #@#@d P 5 q S 4 ' @ _ l#|+S.D @ ",
"} 1+L b n n H 7.' m#Q @.J.K.x $ 5 N@q L m C.H+p.q.}.M.K.M.m e.c T.k + 2 n#o#p#q#, j.k @ . . o $ q , y , 6 4 6 &.z+l T r#h a.5@b ",
"k H } 3 x.5.L ; y C b+S.q.2.0.q ; e Q a#1+} } j s.3.q.V i+j.Z b Z K | 7@!#q#s#t#n 1 . | L C.} ++# 7.] e N -@-#u#y ` &+g R.R.H Y ",
"m O v#^.5@o K 2 y 3#*#R.L.R.L d#w#L T.. o Z  .B.}.u.2.#.k+k++ 1 E.^.} 6 c.x#,.y#z#H Q K R j.!.A#, d#N L@, M m#q >@w.k+U+W t.$.B#",
"y 3#y !@C#D#C Z c l + i #.u.J++ n   b L  .Q H j W L.3.= 0.+ E#} v #.u.g 6+k d.E.2 Q 3 H 2.u r.g R.X k d.4 C P  .m+1 .+A.@.2.k D.",
"q ] -+F#[#G#3 | } m O.W g R.| H ++o b } T.l } G+s.h * l+$+1 . k &+t.h * ).b )#c L 5@1+|.g (+t.i+L.f n n @ K N@b E.K j W #./@5.J ",
"q 5 #@{+'@d#' ] + R 1 u u.q.l m Z ^+Y C.^+k + B.@.9+s.g 2.H L + P@}.`.V s.u.u h P.c m k+#.* K.(+X P.b 1 + P b . n E.].~@i W T L ",
"y 5 ' ,.p#b.&.o b } V.r.R.r.y.K 3 j.A#l d.H#Q k+9+s.X.I#t.p.} 7 J#u.3+i ;@`.2.f k+^.L $.h X.0+t.A. .)#  Z 4 } 2 /.n }.L.r.s.O.. ",
"K z.c k + j.^.3 J   K#@ k w.2 k K Q 2.L#W g } j.z.k c k o r 4 &.; 3#2 + v  +O+t.r.u 8+b+m k m m + 6#3 g #.}.n+&+M#).N#3 3 K o . ",
"H }  .b L | c L . H b D.| j.Z | b $+9+{@#.c+1 l b 1 d.+ | C 4#7.>@v@C R@K.2.u.g q.u.}.u b n ` c j.m y.V u [.{.O#P#2.!.Q Q#| . 3 ",
"o O R#+ @ K } H + c 1 L d.| } 1+k b 5.L.u |.E.1 + . e.J }  .; ; S#j#T#(+i+h u q.r.g u.R.k H a#| . | H p.W g c ^+U#5.C.R.g v O.3 ",
"E.C.V#b + E.@ @ !.]+1.` 6#` K H | @+j W#s+].3 K @ 6# .. D.i.w r {+[#X#9+h n.(+2.q. @S.O.. 1 b o J + Z @.u.%+a.U.Y#T ^.S.* D @+J ",
"v@Z#z#j W 3.S.J T.c `#_.y  $.$;@  +$k 3 Q Q >@$ @$.@@.l+@..@v#+ L A.R.R.P.c w.. 2 @ k T.# N #$j * @.0.w.+$L @ y $$[#%$&$P#*$8+q.",
"e r ; t s.;@a. .1 l (.=$N +.-$}.p.| . Z 2  .b 3 7@j l+@.T L | + _ i+;$s.P.3 L b | j.} -@] C S o.u * W ]. .H # >$,$'$'.2 T. .L.t.",
"-@, p )$!$I#`.X } } ~$`+# N.N+u.p.@ n Q c | R + {$.+g 3.O.a.c b ].S.u.K.0.o R#b c l | | Z d#..,@i K.`.p.R z.J ]$^$/$($_$Z@Q#P.r.",
":$4 &.<$r.(+t.$.} + f.'#S [$}$2+c l [ c m |$1$2$3$=+t.}.W J+J o Q }.@.Z.O.3 C.4$b l . k X@) ; +@V ;$#.T.. x.+ ; 5$6$-$@+|.k+}.S.",
"Q ++V.A.}.}.q.. c w.7$8$9$0$,@a$9+2.q.5.T.m ,+S + s.S.V 2.l + } a.K.L.g a.@ r+o 9+t.h $.f#&.q , w.b$c$H E.} . s.* Z.d$} H . l o ",
" .` + _@}.* M.l 2 3 ;#e z+D#b+}.K.;@K.g >#2 E.3 c 1.[ 3 k K } k @ }.9+;@k+Z b K `.L.e$0.&.d #@<@k k j.Z K @ k }.= @.y.K R L | j.",
"3 2 G * R.`.g | K } f$) 4 { ).S.u.q.q.3.1 @ Z @ 2 ` Z |.Q ^.| m $+S.q.R._ l L C.V u g 0.w y d 7.k 3 + J . + +++ E#O  .x.} H c c ",
"  1  ._ `.S.u v 2 + W@j#A '$g$q.2.s.3+v l ^.k }  .Q#m@h$i$j$b Z a.u.S.`.D . l J+#.K.W#P.3#; S $ 3 K @ . } | . | . z. .j.L b + ^."};
