/* XPM */
static char * floor5_xpm[] = {
"64 64 10 1",
" 	c None",
".	c #554444",
"+	c #333322",
"@	c #333333",
"#	c #443333",
"$	c #332222",
"%	c #444433",
"&	c #554433",
"*	c #555544",
"=	c #444444",
"....+@@@#@++$#%@#@@+++##%%%%%%%%%+%##%&..%.*%&.#%%%%%%%.*&*&&...",
".*..+..&.%.%%@#%.***%%.**...&&..*%#%#.%%&....&.#%%%.%%%&&...&...",
".*.%@*.&....*@#@@@#%%%.%....&%&.&%#%@.%.%......#%.%..%#*........",
"###++...%..%*%***.%%+#**%&..&&&..&+++@++#@#####++#@%%#+%#%##%%%%",
"##%%#*&......#**.***@%.&....&&&.&%@%...%#$#%%%%&%%#++#%%#%%###++",
".*.%+.&..&.*%%.&....#%.%........%%+.**..%+.*&*..*.%@@..%&..&..%%",
"%%&&+.&%..*.#&.....*%%.*%%&.&...*%+.....++**.**....@%.&.&&.%%%%#",
"%%%%#..%%%.%%*&&....#+#####@@@@###+..&..#@.....****#%..&%%&&.%%#",
"..%&@...&%.#%.&.*&%.#%%%%%%%%%%#%++....&%@..&..****#%&&&&&&...%+",
"@#..%&.&..&+&...&*&.@............%@&.*.%%@%.*&%...*#%%&&&&&&.&%@",
".%%#+..%.*%@....&&%%#..&&&&...&..%+%..%.##.%&&...*.#%%%&&&&&&.%#",
"...%+.%%..%%%.%&%%&&#%&&&&&.&&&..#@*&.&.#%*.&&*....#%..%...&%%%#",
"#+#@+.*&*%%.%.%%...&#&.%.........##.%..%#+%###@@++@++#@@@@@@@@++",
"%%%%@&...#%.%&.%&&&%@%%%%%%%%%%%%+@&&&%%%+%%#@+@...#+###%%%%%%%%",
"%.%.@%.*%%..%%*....%++@@@@#####@%+@.&%%.@@..%.@%...&@........&%%",
"&%%.@@#%++%%%+%%#@##@.*....%%%...@%.%%%%#@.&%.@%.&%%+%%%%&&&..&.",
"%%%.#$@#++@@@$+@##%%+..&.....&%&.##&&&..##.%%%@%*&&%+%%%%%%&..%%",
"&%%%@#.%%%%%%@#....%@%.%....**&%.@+++@@#+%*%%%@%.%%%+##%%%%%%%%%",
"+++++#.&.%&&%%+%%.&%@@#@#%%%%%%%%@#%%%##+#&%%.@+#@+@+@@+@+$+++++",
"%%%%@#%%&%&%%#@.%%%.@@##@+++@+++@+%.....@%&%%&@%.........#+%%%%%",
"%%.*##%%&%%%%#@%&%%.@%*..%@..&%#@+%%%%..+#..%%+%&&%%&&..*%@..%&&",
".%%&@#%.%.%%.@+.%.*.@%%#+++%..*.#+%%%%%.#%.%%%@...%%%%...%+%%%%%",
"&%%.#+@++@@@@+$%...%+$@#%%#%..&%.#......@%...%@...&.%%%%&%+%%%.&",
"..%%#@%%%@#%%.@+%#@@%+%*.*%#..%%.+@@#@@@++@@#@@..&%....%&%+%%%%&",
"..&.@@*.&...&&#+#%%.*@%....%%..%%@%%%#%%%%%%%$@..&&&....&%@&.&%.",
"%@@@+%.%%&%%&%@#.....@%.&%&%%.&.%%**...%%....##.&&.&&.&&&&@@#%%%",
"+@+@+#.%..%%.%@%*..&.@#..&.%#.&&%@.%%%%&&&%%%%#.&&&.*.%..#+%@@@+",
"#.%&#@.%.&.*..#+%@%#@+%%....@%&.%@&%%&&.%&%%%%@..&&&.%%%%+@....#",
"%.%%%@%%&%..%.%@%%%%.+%.....#%..%@.%%&&&&.&&&%@%.&&&%%&&@##%..&#",
"%.%%%@&%%%....%%.....+@.%...%#..%@.%%%&..&...&#%%%..&.&##%#%&..#",
"%...%+%%%%%#%#+#*%.%#@%......%..=@%%.&..%%&%%%@%%..%%.%+.%#..%%@",
"@@@@+++@#@##%#+@%&%##%+%&%%#%++@@$+++@#@@@@@@@+@+@@++++++++@@#%+",
"#%%#@..&.%.&..#@@++++@+++@@%+#%%%%%%+@@@&..&&%&.@#%%%%%%%%%#@..#",
"%..%#...&%%%&.#%%#..%%%.....#%.*..&*%%%@.&&&&%&.#%.........%#.&#",
"%%.#@..&%&%%&.##.@......&%%.#%.&.&.%+&%%*&&.&&&.@%.&&.&%&..%#..#",
"%&.##.&%%%&.%.##%@%%%%&&%&%.#%..&&%@%*%#.&.&&.&%+%....&..%%%#..#",
"%.%##..&%%%%%%%#.@%..%...***%%%%#+%.*&.+++@@@@+@+%.&&&%&&%%%#&&#",
"#.%%#%%%&..&%&%@%#@%%&%%@###@+@+#.*.*.%+%%..%%%.@%.&..&.%%%%@..%",
"%.%%@#+@+####@+++@@@+@++##%%%+%&*&.*..@#.....%%*@%%%&.&..%%%+%.%",
"%.%%#.%%%%+#.%#..%%..%@%....*@%.%&**%&#+%%.%%%#*@%%%%%%&%%%%@..%",
"#%%%+%%%%#+..%....%%%&%@.&&%.#%.%&...&%@.%%..%#*@%..%%%%%..%#..#",
"@@@++%%#%%@%%...&..%%%%#...%.#&*....&%@+###%#++@$+@@@#%%@@@++##+",
"...#%**.%.#%%*..&&.&..%#.**..#+##@+++###@#++#%%%%%%####@+#%%%%%%",
"..*#%.....+%.%&%&&.&..%@.%...#@%%%%......*#%**....%%&.**@%%....%",
"..&%%*.*..@%*%&%&&..&.%#*.*..#%**...&&.&%%#%.&.&%%%%%%.*@%&&&%%.",
"..&%%.&.%.%#&%&%&&..&.%#%%&%.#%*&&&&%%&%&.%%%%%%%%%%%%%.+%%&.&&%",
"...%#...%.%#%%..&%&%%.%@%%%%*#%%%&.&%%...*%#..%&&%&&&%&.#%.%%&%%",
"&&&##.&%%%+#%%.&%%&&%.%#.%%.*@%*.......***%#%%%.&&&&&%%.@%..%%%%",
"@#@##%##%%#%.%%%%&&&&%&+%&%%%++%%#%%%%%###+@.%%.&&&.%&%.@++@@+@#",
"+%%%...%.*%%..%%%%.%%%%@+@#@%##%%%@+%%%%%%%+%%%%%&.&%.%%@%.%%%%%",
"@%%%%...%*%%.%&&%%%%%&.@%.*...*..*%+&&%..%&#%%%%%%&&&.&.@.*..%%.",
"#%%%%.&&&%%%......%%%%%@%.*..%.&&.%#&&&.%.%+%%%%%%%&&&&.@%..*%%%",
"@%&..&&.*%%+#%#####@@+@$%.........%%%%..&.%@%..%&%%%&..*@%&&.&.%",
"#%%%&%..&.%@++#%%%%%%%%@%.....&&..%%..&.*..@%*..%%%%%...+%.&&..%",
"#%%%&.&%.*%%&%*********%@&&%%%%%%%##.......+@.....&%%%.%+%%&.&%.",
"@%.%%&&&.&.#%%...***..*%+@@@#@+@@@@+#@#@@#++@@@@#++##+@+$.%%*&%.",
"#%&......*.#%%.*****...%+.&.......*@+%@@@+%&%%&%%%%%%%%&+%.%&...",
"@#%%.%%%%%.#%#**.&***.*%#**.**.&&..#%.%&.#..%&%%&%%%%%%&@%.%%&..",
"%#%@+#%%###++#*****..**%@&...*.....%%%%%.#%...%.%.%%&%%.@%.&&...",
"#=*%@.....%&+%*.***...*%#&..&.&..%.%@...%@%%..%.%.%%%%%.#%.&%&&.",
"@%.#@...%%%&%%*..******%%&..&&&...&%#*..%%%%%&%.%&..&&&.@%......",
"++@+#..%%&&%%#*.&.***.*%%&%&.....*..@#%@@+@@#######%%%#%+@#%%%%#",
"%%%%#..%&.%%.%*....****%%*&..&...&.%+#%@##%#%%%+#%##%++#%%%#@%%%",
".*..+..&.&%.%+%%%%%%%%%++.&%%%%%%%.@#*...*.&...#%..&.#@**.******"};
