/* XPM */
static char * floor4_xpm[] = {
"64 64 20 1",
" 	c #2E2E2E",
".	c #333333",
"+	c #323232",
"@	c #343434",
"#	c #2C2C2C",
"$	c #373737",
"%	c #313131",
"&	c #353535",
"*	c #363636",
"=	c #303030",
"-	c #2F2F2F",
";	c #3A3A3A",
">	c #383838",
",	c #393939",
"'	c #2D2D2D",
")	c #2B2B2B",
"!	c #3B3B3B",
"~	c #3C3C3C",
"{	c #2A2A2A",
"]	c #3D3D3D",
" .. +@#@$$+..%@&#+*$.@++==$$%.@-+=+&#;+*.>=*&-+* >,=.+ .%+=%..##",
"@=>@++&+'.&=>@%.&+,$&@==@=&&@-.&+-+&@.>+%&@%$+@)$&=*>...$& @%-@+",
"&.*-&@.=#>.@'@%++@ > @@'@@*+@*$@'+@.+$* =&;.*@%@.--+==%==+=%=#@.",
"+ ;%+.%.=@+.%&@-+==$%==+>@=$+ +&=@'=++%>.*=-$&--*%@&=@.++'.=@&-+",
"*..%+@.>.& @=%+&&.+=@++=*%+--@@=== =&&=$+.& .-.*$ .-%+++'@%@+=&+",
".=%@%&.@%&@+@.%.#. .*.-$=+''@ -%-%.--%*&*&@-.@>*!%@@-%=,+ >-.%+@",
"@+=%*.=+@=@,-=++,%@=%@.%$ &>+&&@@-@-@>@>.@*%&>%&&'=&-+$.%+%.=&>*",
".%-@=*=...&=+.@%-*>+*+=#.=.=-=@@ . > %$+*%&*@@=&&.+=@@.@='&&.==@",
"+%$>- =='=-%%)&%@&%+$.%@+@=@+-= +. >+)@*.>&@++*==.@&#@&.%-&%=@$-",
"-@&= +=-.%&&=&+-*&$.$.%@;%@@#==$ &++*% %.%.;%&@..@.-==' *~.&.@@%",
"=+=>&=@&@ * @%=.$*-- @+-@==@.&*=%-...@+,-@=@.&%..%@@%-%@'->=.&&@",
"@@=@+&%=@ *$=.@@==.*=+ -=@@).++=#+@'=.--.>%%@+%$+++*@@+=@$& .@%@",
"=>$+.+= .%@.+@+@@%>.-+@+&+ %==%+%.% =&+=&-@%+;.-@+ @-@ @> #+&&.%",
"%= .+%.=>..@%@-@&%@.=&=@@.+ $@='+ @+- .%*%&=@.&;&+.%=-++@%,.&%%=",
"*@@%@%@*+= @=.@=@*.@@'-!*+,. $*-+%-@-.#%,&=*=%===.=#- @=@'>%%@=+",
"+@%>#+*@=.=@%+=+%@%%@@>+*@@*& =& %+ >'@.>&' !-* >=-='.{%%=.+=+%%",
"&@&.$+'@>=>=%#&+>@& @=@@..@=.%$'@.+ >+-=%=.>@.=>=>@@ =*-*=$=+.*=",
"@=*@@&,%-,%+@$.>>%@'=**.> &-*=+@===%.*%=-=@.$%*-+&=*=*=@+. ++@.%",
".-+&%. @+%=@@&+.-+%=@+$@-&$@++=@+%&..+@=&&$@=.-++--.@*+*..-=&@@.",
"@&-@,@&*-&.++@$@&$=.+$+'>@ **=@+.*+@'+.*@!=@+=,&&%&%*=>%=.=@@@.*",
"-+@!'*$+>+++ $=@,%@=*-@%= &.==+*%+;&.,*=@++*++@===..$.=@@&$&.$%=",
"$.+%@@$--@%>&++++.+@$-+#-@#=%.===@*..@ +*%$%=.=@+=%-==@*&+#.*.& ",
"-.&+*#&=&.*+=+%+>=+=*+%!',+$@%=-+$+@+&=$$&%&@>-+++-@]$=+@$!%>@=+",
"-%>;+@>+@@%..++=&+&%.$+.&@)*%=*@%$@-@=+++*&-%$@-&>@@%=->%.-+=&%@",
"$>=-@%.+=@=&%@=&+@+.@+@&%++$*.+#. +>@@%%@@.@& @.+*@.@@*.,@&$-*>*",
"&@+@.%=&&=.=$.@.@.$@@%%'!.=.% +&.>@..&+@+==>@%+@@+@+&&.%'&*+%@+@",
"&-@%&.-@%-++%$@+ @+ -&.=$.%+@.@.& +-@=&.@@*.;&&.%+!@-@@$.=!..*=+",
" @@&- .*%+&+&@@++,@$%.+& *%+>-@.=%+@@+@+&*.% &+@@+%...@+> .&%=%&",
" =.**+@&+* !&+*+@+..!#.@@&&.%&+*&@*.%+!@-@@$.-%.&@%$+&,%&%%&+.$)",
"++&$+@$+@&%&%.=@.=-.=,. .+%=&*&%&+%@@+%...@+>'@*@%@&%$'>@*+*@-{%",
"%-%-@=%=@=@%+-&=*=$@*=@@$ +@%%>.=& &@@%$%,*%@=*{>&=%+#&=%>.=*=&%",
" @*@$--.*@.@*@*=@@@%@..% ,.$@$+> @%&*%@@@=%!'>@++@*@@%**$.> @@@@",
"->=>%>%@=+=>=$...$+;%*@-=+-@&.@%*%> @&=+&+$)&@+*%+@@%=-+@%@%+@+=",
".*++.+@'*.@*..='*+@&@'*%.$@%*+$=-%=>%@*.%+-@ %%%+,.&%%=&=@ .&%+.",
"@% $=**@@.+@==.>=.$$*@@.%+>-@@@+%$-=.&@.%@;%+.*%&%*=%&=&-!@&%&..",
".&&.$=@=+$&=*+*%%%@-@=%&*+=>@+=@@&-+=&.&%&=++ +$&%..@.,&@+. >.++",
"@- $=%=@$-*@#.'*%@%@$++@@.-+@.&#-@+-*+$=%&=+-.%#&=$*%=%=$.+$=%*.",
"+=.+%-=. .@++>=+&&-$+=@+=%+=&@-&.@=>&&@.@.,&$&=*~&.=%+@&@%%.$* .",
".@&=@&++-&%+@..%@>%@@%=.%+@@@+&=-+@.=*@&==@%%.,+%.+.@>=*@+,+%%,>",
"%=@+ @==-=%.%.%*+%@*.*%+*>&..'+&$&=%>&>@+,%=+.%@.%&$%%$=@+.*=%.'",
"+.-%%-&=#+%+;#.=@@.=%&.,='$+@@&%%.&.@@*&=.*.@@>#=$==&&@,=>@- $ &",
"+>==@+@,+=%&=;.=%+@.>-*.=>>@+@%=+.%+&.$.%&@+&=%>;-%@-%@&@==@=.+&",
"=-.+&+.%@%=@'&%+*.+&*.=%+*#=%+*.@@>>*.@=@$%%$%*-+=&+.&**$=@@$$*{",
"&@@@%@@>#@%+%+&.>=+$-%*@.>.=> =@*=%@,+.+.==@=@-+=@%-.)+.%..&)+= ",
".&+%@@-%>*+-$@=.@.*- &-+.>+*@%%>&=&* &@%@>%+++>;.%....+&=@@*=.@@",
"+#=%=$=&=@++-@%-.=&>=.%-@&=+ @&%@@++*@&@&%@.*+%%*+=+=*=&.+=+&++.",
"%%$.-@* =+@&-+*%@+.=&%@%+@-*.@.%@@@*&>=*%%@*.+..-.=+&%@&++==+-@=",
". &@@@)+%@.+&&@>=$@ -'' @*.=>+.-.=#&@.@.@.+>=@=.%-@%=&+&%>%&@&%.",
"&+==,=*-> %%{*@&@==&@@&.*%$-=@=@+&=&*.>#+&+&%.>%@=.=+>@ >.&&+%>$",
".%*%*+=$-+@&%@*$$=@.=+$.&%$=@&--.$=#.*%.%@&-,@@@.@&&@+ >-%&.*..=",
".$%.$+@=+-&&.'+.%.%@*%.; .&..+-=.%@@%.=%@@.,&@@..%%.%+&%@=++.>%=",
"*=&+='>&#=*%*@+*&@%*@@#=&%+%@@-+>=&@=$..@%>;+*%=-+@@%.=.%&+-&% @",
"@.+@.$.@@+==*&=>=-%.'.+@. =%=$%*'$>***+..=@>&*+%&@ *%.=&@+*&%.*=",
"%*.$+=%&@>',.&@+> $ *.*&-@$@ @&&@'#$=*%*%$=%@@$'$%.@@)+>-+%@+>&%",
"+.%+%%@@..>#-,.&=..++%,'%+$@@@#++'&%*&*.+@&&>*!+&@,+.@@-&%&=.@@@",
">  +&.+&.$%-&@*@@=&@.>&%;-.%,=*-+>.>@>@%,%*@&&@%=+&=+&@*@++&.;,+",
"++.==+@-%+@*+@+,&+$.*@>*..%%*+-@%'>-$+*=..@@*&$=&.$=.=.===-*.&.@",
"$%>= .++>+=%*=!=*+*+.>.&$@@@$+@%+&*-*&.>$-@*%.>.+@.-$> @%.='.==*",
"=&++@+&& @+@$-.&&@& &%%>@=%$='*.@,@@$..@@&&@%;=+.*%$@.*$..+@%$&#",
". @*%+@&-@+~*+$+=&$&%.@$..%&+,+&$~=>+* *,*=>&=.&+*+++=.'&+%%+ >@",
"=@ %'.%*+&,- $.@,@ $@>&-@@&+@=+@>.&@+=&@%'+%,@&*=@&-. $*#@.-%@%.",
"= >=&@&%%@*>**%&#+>@@%%@>$*++>-@-=>@$&=>@++>.+%>$%@&$$'=+@ %='* ",
".--&=% &*@%@+%&+*@..&%@.+*@+%$.+*>@&$&@*-&@$>+@@=$@@=%!@.+%%=='$",
"@@=#@ =@=...*$%$%@-.=@@>=.@%&&%@'>%;++ ;+-..'*==,.=*++ >.%..=+=%"};
