/* XPM */
static char * floor2_xpm[] = {
"64 64 12 1",
" 	c None",
".	c #555533",
"+	c #554433",
"@	c #555544",
"#	c #444433",
"$	c #665544",
"%	c #443322",
"&	c #444422",
"*	c #554444",
"=	c #443333",
"-	c #554422",
";	c #665533",
"..+++++......++...@@@.+........++.++++.+.....++...@@++####+.....",
"++++..++......++....++++++...+++++++..++......++...++#####+++..+",
"+++++.++++++.......+++++++...++++++++..+++++.......+++++++++++++",
"++++++..++++++....++++........++++++++..++++++.....++.....@..+++",
"++++++++++++................++++++++++++++++..............++..++",
"++++++++++++...........++..+++++++++++++++++............+..+++++",
"++++++++++++++++++++...+++++++++++++++++++++++++++++...++.@++++.",
"++#+++++..+++.+++++..@@.++++@@@++##++++...+++.+++++.@@@.++#+@@@+",
"+###++++++.++..........+#++.$$@++###+++++++.+..........+#++.$$@+",
"+##+++++++.++...++++++++###++++++##++++++.+.+..++++++++++#++++++",
"###+++++++++........++##.+++#######+++++++++..@.....++##.+++####",
"+++++..+...@@@@+++.@.+##+++####++++++..+......@+++.@.+##+++####+",
"%##&&&###############%%%%##%%%##%#&&&##&#############%%%%##%%%##",
".@@....@+####+@@@@@...@@.@@+++*+........++###+@@@@@...@@.@@+++++",
"++++++++#####+@@+@.+++++++++++++++++++++++###+..+@.+++++++++++++",
"#+++++++.+##++.++..++.@@.+++++++#++++++++++##+..+..++.@@.+++++++",
"&+++++++++++++.@...+++..++++++++#++++++++++++++@...+++..++++++++",
"++++++++++++++++.@@@.@@...++.++#++++++++++++++++.@@@.@@..++++###",
"#+++++##&&##+##++++###&%%%##===##+-++++++##+##+++++###&%%%&##=%%",
"+++..@.++#.@++$$$$$$$$$$@@@..@@.....@@$$@.@@++@$$$$$$$$$$@@+++@@",
"++++...+.+@@++$$@@@@@@@@@@.##++#+++++...@.@@++.$@@@@@@@@@@++####",
"++++++.+.@.++++.$$$@@@@@*@@++**+++++++++.+..++..$$$@@@@@@@++++++",
"+++++++++.+++++.@@.@@@@@@.++.@.++++++++++++.+++.@@.@@@@@.@.@@@++",
"++++++++++......@$$$$@@@@@@@@@+++++++++++.......@$$$$@@@@@+@.@.+",
"...............$$$$$$$@$@.@++++................$$$$$$$@$@.@++++.",
"++++++++++++++++++++++++++++++#+++++++++++++++++++++++++++++++#+",
"$$$$$$$;$$$$$$$$$$$$$$$$$$$$$$@$$$$$$$$;$$$$$$$$$$$$$$$$$$$$$$@$",
".;;;;;;;;;;;..;$..;$$$$$....$$...;;;;;;;;;;;..;$..;$$$$$....$$..",
";;;;;;;;;;;$;;$$$$$$$$$$$$$$@..$;;;;;;;;;;;$;;$$$$$$$$$$$$$$@..$",
"+..............;......$$$@++++..+..............;......$$$@++++..",
"+++++++..;;;.;;$.@@..@$$@+#+.@@++++++++..;;;.;;$.@@..@$$@+#+.@@+",
"++++++++++++++++++++++++####+++#++++++++++++++++++++++++####+++#",
"...++........++...$@.+###++@@......++........++...$@.+###+*@@...",
"++++..++.+++..++...++#####+++...++++..++.+++..++...++#####+++...",
"+++++..+++++.......++++++++++++++++++...++++.......+++++++++++++",
"++++++..++++++....+++.........++++++++..++++++....+++.........++",
"+++++++++++++.............+...+++++++++++++++.............++..++",
"++++++++++++...........+...+++++++++++++++++...........+...+++++",
"++++++++++++++++++++...++..++++.++++++++++++++++++++...++.@++++.",
"++#++++++.+++.+++++.@@@.++#+@@@+++#++++++.+++.+++++.@@@.++#+@@@+",
"+###++++++.++.@........+#++.$$.++###++++++.++..........+#++.$$@+",
"+##+++++++.++...++++++++++#++++++##+++++++.++...+++++++++#++++++",
"###+++++++++........++##.+++#######+++++++++........++##.+++####",
"+++++..+.....@@+++.@.+##+++######++++..+...@@@@+++.@.+##+++####+",
"%##&&##&#############%%%&##%%%##%&#&&&&&#############%%%%##%%%##",
".@@.....++++++@@@@@...@@@@@+++++......@@+####+@@@@@...@@.@@+++++",
"+++++++++++##+@@+@.+++++++++#+++++++++++#####+@@+@.+++++++++++++",
"#+++++++++++#+..+..++.@@..+++++.++++++++.+##++.++..++.@@.+++++++",
"#++++++++++++#+@..@+++.....+++.@+++++++++++++++@...+++..++++++++",
"++++++++++++++++.@@@.@@@..@@........++++++++++++.@@@.@@..++++###",
"#++++##&&&&+####+++###&&=#######%%&&+++#&&####+#+++###&%%%&##=%%",
"+...@$$@..@@++@$$$$$$$$$$$$$$$$$$$@.@@.++#+@++.$$$$$$$$$$@@+++@@",
"+++++...@@@.++$$.@@@@@@@@@@@@@@@@@.++.@..+.@++.$@@@@@@@@@@++####",
"..+++.++.+.++++.$$$@@@@@@@@@@@@@..++++++...+++..$$$@@@@@@@++++++",
"+++++...++++.++.@@@@@@@@........+++.+++++..+++.+@@.@@@@@.@.@@@++",
"+++..++++.+...+.@@$$@@@@@@@@@@@++++++++.++.....@@$$$$@@@@@+@.@.+",
"..+............$.$$$$@@@@@+++++@..++...........$.$$$$@@@@+.++++.",
"++++++++++++++++++++++++++++++++++++++++++++++++++++++++++++++#+",
"$$$$$$$;$$$$$$$$$$$$$$$$$$$$$$@$$$$$$$$;$$$$$$$$$$$$$$$$$$$$$$@$",
".;;$;;;;;;;;..;;;;;$$$;;..@$$$..;;;;;;;;;;;;..;;..;$$$$;;;$$$$..",
".;;$;;;;;;$$;;$$$$$$$$$$$$;.$;.$;;;$;;;;;;$$;;$$$$$$$$$$$$$@@...",
"++.............;......@@..++..+.++....++.......;@....;$$$$+++...",
"+++++++..;;;..;$$$$@.++.+.@.$@....++++.;.;;;..;$@@@..@$$*+##+..+",
"++++++++++++++++++++++++++++++++++++++++++++++++++++++++#+##++++"};
