/* XPM */
static char * floor1_xpm[] = {
"64 64 27 1",
" 	c None",
".	c #3C3C3C",
"+	c #5B5B4C",
"@	c #5B5B5B",
"#	c #6B5B5B",
"$	c #6B6B5B",
"%	c #4C4C4C",
"&	c #5B4C4C",
"*	c #4C3C3C",
"=	c #2D2D1E",
"-	c #3C3C2D",
";	c #4C4C3C",
">	c #3C2D2D",
",	c #7A6B5B",
"'	c #4C3C2D",
")	c #5B4C3C",
"!	c #6B5B4C",
"~	c #7A7A6B",
"{	c #7A7A5B",
"]	c #6B6B4C",
"^	c #1E1E1E",
"/	c #7A6B6B",
"(	c #8A7A6B",
"_	c #2D2D2D",
":	c #8A8A7A",
"<	c #8A7A7A",
"[	c #6B6B6B",
".++@#$$#%#@#+@+%%@#++&&*=--**---.%%&+%%;-;%&++;*>;*&+%;-*%%%&+&*",
"%$$,$,$@&,,,,,$&#,,,,,$+')&+++&;;#,,,$,$;$$$$$,$&$$,,,$+&$!!$$#&",
"+,,,,$$;+$~,,,$*,,$$,,$+*++!!!!+)$${,,,,&,$$$~~~!,,{{{,,&$$,,$$+",
"+,,$,,,.+$,,,,$;$,,$,$$!*+&&&+++;!!,,,,$+$$$,~~,$,$$$,,,+$,,,,,!",
"!,,,,,$%*$$,,,$+!,]],$,+')&++++&;!,,,~,!&$,,~~~,+$$,$,,,&!,,,,$+",
"$,,,~~,+-,,{,,$&+!],,,,+*)++&++;&$,,,{,#+,{~~~,,+$$,$,,$&!,,,$!+",
"!,$$,{,$.,,,$,$++!!$$,$+;)))&&+*+$$,$,,$&$,{,$,#+#$$$,,!&$,,,#++",
"&+&&+++%%+!!!,#&*&&++++;--->===^.++&++&%.%&+%%&%&+++++&;;!#$$!+&",
"+!#$,$!&;)&;;;;;+#,$$$!%+$,$$$#++,~,,,@+&$,,$##&++$$,~~$;;&;)&;.",
"!!$$$$$&)+!++!+)+,,$,,,++$,{/~~$+,~~~~~$#,$,$,,+,,,{~~~,;&++!+!;",
"+!$,$$,&;)!!+!+;!$$,~{,++,,~(~~@#,/~~~~$+,,~,,,#,{/~~~~~;+!!!++)",
"+$,{$]];;++!!+&;!$,,,~,&!,~(((~#$~~~~~~#+,,~~~/$/~~~,{,~;!+!!&+&",
"&$,{,$$&;+!!+++;!,,,~~,++,(~~(~#@/~~~~~#&,,~((~#~~~,,,,,;!!+!+&&",
"%$,$,,,+*)!!++&;%$,~~~,$&,~~~~~$#~(~~~,++,,~(~~#~~/,,,$/;++!!!+)",
"&!,$$$$+-&!!&));&$,/~,,#;$,,,~/$#/((~,$&+,,,~~~,$~~~~/,~*&+!!++)",
".&!!+!&-=-;&+&);+$,##$$+-!$#$,,!+$$~~,$&&$$$$$$#@$$$$$#+-;;);;+;",
";+&&&+$;&#+++++-_-.;&+))*+&&&&&%;$,$@+&;_-**;;;;$/~~~/$$$,,$+%&;",
"%!!,$,,+&$$,,,,++!$,$,$!&$,$$,$#&,~~/~,+;)&;)+)&$((~((~~$~(~$$$+",
";!#,${,%!,$,,,$&+$,{,{,#&#,,$,$,&,~/~,$%*;&&)+&+$,~/~((($~(~,$$!",
"&$,,,~$&$~{,,,$+$,,~(~,!+$!$,$!,&,,,{,$+'))&&);&+$,,{~(($~(~,$!#",
";!!,,~$%$~,,,,$@,~~~,,,!$$$!!!#,;$$,{,,+-&&+&;;;&!,$,~~~#//~{,!!",
";+!$$,,%$/,$,,,+$~~~,,,+#,,,$,,#;!,,,{,!-;)+&));)!$],,~(#,~~{$!!",
"*+!$,,#&+,,,,,,#@,,,$$$+!$$]]!!&*$$,,,,#-))+);;)+]$!#,,,+,{,,!!+",
";;;++%;;;+&+!++&+$$$#!+&%$$!!+&*.&#$$##+>';;*---;++++++;*!$!+&&;",
"*+],,!]++$,$$,$+*+++#$!+*&&;%&+&;!#!+&&%%#++$$$,@,#++%+!;+&+&!+*",
"&!]]]!$$$,~{~~,$)#$$,,,!+$,!]$$#+,/~,,,+&$,$,{,,#~$,,$,$&$!!!!]+",
"+#,,$!,$,~/~~,,,&$,,,,,!+$,,$,,$#/~~,{,!&${{~,,$$~/~((~{&,]!+!$&",
"+$,,,,,,~~~,~{,$+,$,,$$!!,,,,$$$$/,,,,,!&,,,,,,$$,~::<((!,$$#!!&",
"&!!$,,{$$~,$,{$$&,,,,$#+!,,,,,,+$,,{,,$++,,,,,,,+,(::((~+$,$!!!+",
"&!!!]$,,@/,$$,,,%$$,,,,!+!,,,$$!!,,~,,,!&$,,$$,,!~/~((~,+#$!+!!&",
"&!!]!],##,,!$,,/;!$,$$$+&!$,$+!+$,{{,$$&)+!!!$,,!,,~~~$$+!#!+!+;",
"*;)&&++%;&&;+$##-&!+);)--;;%&;;;%#$$#!#);&;%++!+&!$,,$+;.&;;**.>",
"&!++;&+%;++++++&%++#$$+;**...*;%%#++&&;;.+&+!+&;;&++++#+-->>->>=",
"+$$$#$$++,,$$$$,+,,,,,$%;;;)%++%+,,$!]!+;$$$,,,#!,~~~~~$;&&++&)-",
"!,,,,,$&!,,$$,$,+,~~~{,%%;;&+++;+,,,$!!++,,{~({,$~((((~+)++!!!+*",
"+$$,,,$&!,,$,,,$+,(((~,;%;%++++&;!!,,$$&+,~(~~,,$((~(~,+)+&&&&+-",
"&$,,$,$+!,,$$$$!!~((~~,%;&&++&&%*!$,$,,++,~~,,,~$~(~~~,!*))++&&*",
"%!$,,$#+#,,$$,$+!~((~~,&;&&&&&%;.+,,##$#+~~//~~~$~~~,,$$*)&++++;",
"&+#,,$,++,$,,,,++$~~~~$%;&&%&&%;;!$$!$$#&,~~~~,,#~,,$,,$*))))&+;",
";%%&&++;.+@###+.;+$$$@&.*%%%;;;;-&+!!+++%$[/$,$$;#+&&+++;;;;''*>",
"=-'))*--%$$$#$#;.&++###;++&%%;)*.++&!$##;#$$,,#&&$$$++!+*;);;&&*",
"')&!!++*+,~~(~,&%#$~~,$&,,,,$!+;&!$,,,,/+,~~~~~,$,$,,,$$&!++!$#+",
"*)+!!!!;$~(<:(/;+$,~~,$+!!$,,,#+#,/~~~~~#,~~~~(,$,{~~,$$+$!!,,$#",
"*+&&&++;,~(<:(/;+$,{~$$++!!,,$$##~~((((~,~~~~~~,$,,~(~,,+$$],,,#",
"-;)+&&+;,~(::~$*+$,,,]!++!!,,,,,+~((((~~$~~~~~/,$~,~(~$$!,#!!,$+",
"-;&+&++)#,~((~$-+!$!+!+&+$!,$$,,+~(((~,$$~~~(~~,$~(~~~$$+$!!!,$&",
"';))&++;#$,,~,!-;&++++!++#,,$$$++/~~{$$##,/~~~{$#$/~~{,,&$$]!,,+",
"*;;;;;;-*&++#!%__-------;&++++&;;+++#++&;+!#+++)%+$$$$$!;++&++!&",
".;;&+#$&+,$#++&***;&+++;%+###$,$%$##!#$+&!$,$$#+*.-----.*+;&++;.",
"%!$,,,$+$,,,,,$&;))+!!!;+#,,,~,$*!,,,$$++$,#,,,+.;;;;;;;;+!!#$!%",
"%!,,{{,+$~~~,,,!;+!!]!!)@$,,~~,$*$$$,,$!+,,$,,,+*;;;;%;;;+!!,,$&",
"&$,,~{,!+~~~,,,#&!+!!+!&+$,,{,,,;$$,,,,!&$!$$$,&*;;;;;;;;!!$$,$&",
";!,,,,,#!~(~,,~#)!!!!!+&+,,~~,,,+,,,,$$!&!!$$,!&.;;;%%;**!!#$!$;",
";+$,{,$++~(~~~,@;&+!]]!+&,,{,$,$%,,$$$$$&###,,$&.;;%&%%*;!!],!!*",
";+!$,,$+&,~~,,$+;)+!!+++%,,$,$,$&,$,$!#$&,,$,,$+.*;;;;;;;$,,$$!;",
".&&+++&*.+#$#+;->*;;;;*--%+++&++;+++!);%*+$$++&;>..*;;.*;+++++%-",
";+&$,,$++#$#++$;%&&!#!$#;!+#$$$+>**;**;**%&&++!!*;;%%;%&;&&&&&;.",
"%!,{~~,++$$$,,#&!!!!!,,,%,,,,,,$'++!+&+;&$,,,,$,+,,$$$$$+#!$]#+;",
";$,,,{,#+,,,$,$&+$]!!,!$;$,,,,,,'&+!!!!+&#,,,{,,$~~~,,,,+!!!!$!;",
";,,$$$,+&,,,,,$&+++!]]]!*#$,,,$!*+&&++!+&$$,,~~~$((~~{,,+!!!!$$)",
"&,{,$]$++$,,,,,+&!!!,,]+;,$,,,,!-))+&+++&,,,,{~~#~((~{,$+$,$!!!%",
"+,,,$$,&+$,~~~,+&$,,,$!+&,~~~~,$>;&++++&+$$$$,,~+,~~,,$#+$$!!]!%",
"+$,,,$!;&!$~~~,#&$,,$$!!&,~~~~,!>;;)&++;%!!#!$$$+!$$$#$$%$$!!!+*",
".+#+&;;__;+$$@#%;%+&%%&&+$//$@+%=>---**--;*;...*..-**;%;>;&&**-="};
