/* XPM */
static char * floor5_xpm[] = {
"64 64 500 2",
"  	c #222221",
". 	c #222320",
"+ 	c #242323",
"@ 	c #20201F",
"# 	c #252524",
"$ 	c #1F1F1F",
"% 	c #282725",
"& 	c #252422",
"* 	c #232321",
"= 	c #262624",
"- 	c #23221F",
"; 	c #252424",
"> 	c #212121",
", 	c #222223",
"' 	c #242422",
") 	c #1D1D1B",
"! 	c #222220",
"~ 	c #1E1E1D",
"{ 	c #1E1E1E",
"] 	c #252523",
"^ 	c #282826",
"/ 	c #272725",
"( 	c #21211F",
"_ 	c #1F1F1D",
": 	c #1C1C1A",
"< 	c #656462",
"[ 	c #807F7B",
"} 	c #797978",
"| 	c #4D4C4B",
"1 	c #202020",
"2 	c #242424",
"3 	c #222120",
"4 	c #262523",
"5 	c #232323",
"6 	c #232322",
"7 	c #252522",
"8 	c #262626",
"9 	c #201F20",
"0 	c #222222",
"a 	c #202021",
"b 	c #272726",
"c 	c #292927",
"d 	c #21221E",
"e 	c #262625",
"f 	c #262623",
"g 	c #1B1B19",
"h 	c #22221F",
"i 	c #212120",
"j 	c #1B1A1A",
"k 	c #232221",
"l 	c #242423",
"m 	c #1D1C1C",
"n 	c #262726",
"o 	c #1C1C1C",
"p 	c #1B1B1B",
"q 	c #171717",
"r 	c #969495",
"s 	c #898988",
"t 	c #858581",
"u 	c #484846",
"v 	c #20201D",
"w 	c #1A1918",
"x 	c #2C2A2B",
"y 	c #282828",
"z 	c #191919",
"A 	c #1F1F1E",
"B 	c #21201E",
"C 	c #1A1A1A",
"D 	c #272727",
"E 	c #1E1E1F",
"F 	c #1D1D1D",
"G 	c #1E1E1B",
"H 	c #20201E",
"I 	c #2A2A29",
"J 	c #1C1C1B",
"K 	c #242425",
"L 	c #222121",
"M 	c #222322",
"N 	c #767372",
"O 	c #747471",
"P 	c #797874",
"Q 	c #4D4D4B",
"R 	c #1F1D1E",
"S 	c #232220",
"T 	c #201F1D",
"U 	c #1F1F1C",
"V 	c #232324",
"W 	c #21211E",
"X 	c #1D1D1C",
"Y 	c #1B1B18",
"Z 	c #252525",
"` 	c #676667",
" .	c #9B9C97",
"..	c #8B8B87",
"+.	c #565454",
"@.	c #292828",
"#.	c #1B1B1A",
"$.	c #1C1B1A",
"%.	c #22211F",
"&.	c #2A2A28",
"*.	c #1D1D1E",
"=.	c #1F1E1D",
"-.	c #201F1F",
";.	c #252425",
">.	c #2B2A29",
",.	c #292929",
"'.	c #2A2A2A",
").	c #1E1E1C",
"!.	c #161617",
"~.	c #696767",
"{.	c #7E7C7A",
"].	c #7D7B7A",
"^.	c #4C494A",
"/.	c #222021",
"(.	c #31312E",
"_.	c #201E1F",
":.	c #202120",
"<.	c #1F201E",
"[.	c #2B2B29",
"}.	c #1C1C19",
"|.	c #333333",
"1.	c #1C1C1D",
"2.	c #191918",
"3.	c #2C2D2A",
"4.	c #1F1E1F",
"5.	c #727270",
"6.	c #858383",
"7.	c #888684",
"8.	c #4C4B4A",
"9.	c #201E1E",
"0.	c #282827",
"a.	c #19191A",
"b.	c #30302D",
"c.	c #252423",
"d.	c #2A2927",
"e.	c #1F1E1C",
"f.	c #232325",
"g.	c #272728",
"h.	c #232022",
"i.	c #232222",
"j.	c #706F6E",
"k.	c #92908C",
"l.	c #838482",
"m.	c #535453",
"n.	c #232122",
"o.	c #242223",
"p.	c #242321",
"q.	c #2F2E2C",
"r.	c #1F201C",
"s.	c #2A2928",
"t.	c #242222",
"u.	c #242524",
"v.	c #1F1E1B",
"w.	c #262627",
"x.	c #1D1C1D",
"y.	c #201F1E",
"z.	c #21201F",
"A.	c #858482",
"B.	c #777573",
"C.	c #8D8B8A",
"D.	c #4B4B4A",
"E.	c #2E2E2E",
"F.	c #242421",
"G.	c #212220",
"H.	c #1F1F1B",
"I.	c #2A2A26",
"J.	c #181817",
"K.	c #292928",
"L.	c #212122",
"M.	c #272624",
"N.	c #757471",
"O.	c #7E7D7D",
"P.	c #656663",
"Q.	c #434442",
"R.	c #262522",
"S.	c #2B2B2A",
"T.	c #1C1D1C",
"U.	c #2E2E2D",
"V.	c #1E1D1C",
"W.	c #151515",
"X.	c #7E7D7B",
"Y.	c #6D6C6B",
"Z.	c #73746F",
"`.	c #484845",
" +	c #272625",
".+	c #2B2B2B",
"++	c #191917",
"@+	c #2C2C2C",
"#+	c #1D1D1A",
"$+	c #141414",
"%+	c #82817E",
"&+	c #7F7E7B",
"*+	c #474745",
"=+	c #797C78",
"-+	c #7D7F7C",
";+	c #50504E",
">+	c #1A1A19",
",+	c #2C2C2A",
"'+	c #212020",
")+	c #1A1A18",
"!+	c #2D2C2A",
"~+	c #181816",
"{+	c #22201F",
"]+	c #131312",
"^+	c #7D7C7A",
"/+	c #71706C",
"(+	c #72716E",
"_+	c #4E4D4B",
":+	c #2C2C2B",
"<+	c #1C1A1B",
"[+	c #232223",
"}+	c #2E2E2C",
"|+	c #1E1D1B",
"1+	c #2F2F2D",
"2+	c #232320",
"3+	c #1F1D1D",
"4+	c #262524",
"5+	c #868684",
"6+	c #787975",
"7+	c #888784",
"8+	c #4A4947",
"9+	c #22231F",
"0+	c #2A2B27",
"a+	c #1E1F1E",
"b+	c #181916",
"c+	c #1F201D",
"d+	c #272724",
"e+	c #30302E",
"f+	c #303030",
"g+	c #1D1C1A",
"h+	c #343432",
"i+	c #2C2A29",
"j+	c #676765",
"k+	c #838280",
"l+	c #7A7977",
"m+	c #4A4A47",
"n+	c #202022",
"o+	c #2F2F2E",
"p+	c #242521",
"q+	c #1B1A19",
"r+	c #161713",
"s+	c #8E918D",
"t+	c #868785",
"u+	c #7A7975",
"v+	c #565553",
"w+	c #2B2A2A",
"x+	c #2A2B2B",
"y+	c #232421",
"z+	c #2B2B28",
"A+	c #242322",
"B+	c #2A2826",
"C+	c #171715",
"D+	c #282829",
"E+	c #232422",
"F+	c #5B5C58",
"G+	c #717170",
"H+	c #7D7C78",
"I+	c #252224",
"J+	c #2D2D2C",
"K+	c #1B1919",
"L+	c #2F2F2F",
"M+	c #161514",
"N+	c #8E8E90",
"O+	c #767773",
"P+	c #8B8B89",
"Q+	c #3F3E3E",
"R+	c #212021",
"S+	c #2D2D2B",
"T+	c #262525",
"U+	c #1D1B1D",
"V+	c #1C1D1B",
"W+	c #2A2828",
"X+	c #1A1917",
"Y+	c #797573",
"Z+	c #676560",
"`+	c #828280",
" @	c #4B4B4B",
".@	c #1C1B1B",
"+@	c #211F20",
"@@	c #313131",
"#@	c #1D1C1B",
"$@	c #1C1D19",
"%@	c #717273",
"&@	c #9B9C9B",
"*@	c #797975",
"=@	c #5B5B59",
"-@	c #31312F",
";@	c #1D1D1F",
">@	c #181818",
",@	c #1C1B19",
"'@	c #1D1B1C",
")@	c #2A2A27",
"!@	c #2B2B2C",
"~@	c #232121",
"{@	c #2C2B29",
"]@	c #1C1D1A",
"^@	c #3C3C3B",
"/@	c #1A1A1B",
"(@	c #2B2A28",
"_@	c #313030",
":@	c #1B1A18",
"<@	c #1D1E1A",
"[@	c #1D1E1C",
"}@	c #272526",
"|@	c #302F2D",
"1@	c #1E1D1D",
"2@	c #1B1C1A",
"3@	c #1F201F",
"4@	c #262425",
"5@	c #181617",
"6@	c #1E1C1C",
"7@	c #353433",
"8@	c #292827",
"9@	c #201E1C",
"0@	c #313130",
"a@	c #373635",
"b@	c #161614",
"c@	c #30302F",
"d@	c #32332F",
"e@	c #222321",
"f@	c #20211F",
"g@	c #181715",
"h@	c #1B1A17",
"i@	c #363634",
"j@	c #2E2D2B",
"k@	c #2D2D2D",
"l@	c #2F2F2C",
"m@	c #171716",
"n@	c #252526",
"o@	c #262724",
"p@	c #282626",
"q@	c #292A28",
"r@	c #323230",
"s@	c #292A26",
"t@	c #29292A",
"u@	c #2C2C29",
"v@	c #2D2C2B",
"w@	c #1A191A",
"x@	c #1E1C1A",
"y@	c #282726",
"z@	c #151412",
"A@	c #282627",
"B@	c #80807E",
"C@	c #7B7A78",
"D@	c #767873",
"E@	c #4B4A48",
"F@	c #151514",
"G@	c #242426",
"H@	c #2D2D2F",
"I@	c #2C2B28",
"J@	c #2F2E2B",
"K@	c #2D2D29",
"L@	c #787874",
"M@	c #80817D",
"N@	c #6E6F6B",
"O@	c #4B4C49",
"P@	c #22211E",
"Q@	c #323231",
"R@	c #292A27",
"S@	c #1B1B16",
"T@	c #1E1E1A",
"U@	c #212123",
"V@	c #292A25",
"W@	c #8E8E8D",
"X@	c #70706F",
"Y@	c #747272",
"Z@	c #4F4D4C",
"`@	c #1E1D1A",
" #	c #1E1E20",
".#	c #242523",
"+#	c #1B1C17",
"@#	c #353533",
"##	c #898A85",
"$#	c #686865",
"%#	c #7C7D7C",
"&#	c #4C4D4B",
"*#	c #1A1A17",
"=#	c #252624",
"-#	c #72726F",
";#	c #8C8A89",
">#	c #565554",
",#	c #191816",
"'#	c #20211D",
")#	c #7E7C7C",
"!#	c #878785",
"~#	c #868382",
"{#	c #484746",
"]#	c #2A2827",
"^#	c #181714",
"/#	c #2A2B29",
"(#	c #141413",
"_#	c #777673",
":#	c #6F6F6F",
"<#	c #898A86",
"[#	c #464745",
"}#	c #272825",
"|#	c #272623",
"1#	c #292826",
"2#	c #2C2B2A",
"3#	c #1A1B17",
"4#	c #282825",
"5#	c #615F62",
"6#	c #6A6A66",
"7#	c #7B7A79",
"8#	c #4F4E4E",
"9#	c #343332",
"0#	c #242221",
"a#	c #141412",
"b#	c #7F7E7A",
"c#	c #858480",
"d#	c #737270",
"e#	c #545454",
"f#	c #191817",
"g#	c #252323",
"h#	c #1E1F1C",
"i#	c #919191",
"j#	c #605E5C",
"k#	c #3E3D3C",
"l#	c #383838",
"m#	c #1F1F21",
"n#	c #6E6F6A",
"o#	c #8A8A88",
"p#	c #787774",
"q#	c #555553",
"r#	c #2A2929",
"s#	c #171714",
"t#	c #1D1E1B",
"u#	c #323232",
"v#	c #21231F",
"w#	c #8A8989",
"x#	c #878683",
"y#	c #747370",
"z#	c #444444",
"A#	c #161615",
"B#	c #252421",
"C#	c #2B2C27",
"D#	c #797875",
"E#	c #898986",
"F#	c #9C9B97",
"G#	c #5A5A59",
"H#	c #333230",
"I#	c #93928E",
"J#	c #767672",
"K#	c #7A7B77",
"L#	c #242522",
"M#	c #7D7C79",
"N#	c #828180",
"O#	c #787973",
"P#	c #444442",
"Q#	c #121311",
"R#	c #989792",
"S#	c #898984",
"T#	c #757573",
"U#	c #424342",
"V#	c #32312F",
"W#	c #7E7E79",
"X#	c #7A7976",
"Y#	c #4C4D4C",
"Z#	c #3D3D3D",
"`#	c #31302E",
" $	c #565654",
".$	c #81827D",
"+$	c #535252",
"@$	c #161616",
"#$	c #282727",
"$$	c #242220",
"%$	c #676864",
"&$	c #6F706E",
"*$	c #757672",
"=$	c #4E4D4C",
"-$	c #7A7A77",
";$	c #908F91",
">$	c #939393",
",$	c #595857",
"'$	c #20211E",
")$	c #272627",
"!$	c #333331",
"~$	c #2E2D2C",
"{$	c #211F1D",
"]$	c #262723",
"^$	c #262422",
"/$	c #181819",
"($	c #1F1C1E",
"_$	c #292728",
":$	c #222020",
"<$	c #181615",
"[$	c #252527",
"}$	c #323032",
"|$	c #272826",
"1$	c #282926",
"2$	c #242324",
"3$	c #1F1F20",
"4$	c #1E1C1D",
"5$	c #2B2C2A",
"6$	c #1C1B18",
"7$	c #2A2B28",
"8$	c #292829",
"9$	c #212221",
"0$	c #232423",
"a$	c #1E1F1A",
"  . + @ # $ % & * = - ; > , ' ) ! ) ~ { ] ^ ' / ( $ { ~ _ : < [ } | ( 1 2 2 3 4 @ / 5 6 7 5 > 8 9 5 > 0 ] 2 a b ~ c @ # , d e _ ",
"_ f g h 8 1 7 / i i j k @ l > 0 1 2 2 5 m n * @ o p # / ! q r s t u h : ! 6 v w x : y ~ i ' z 0 A B # $ C b 6 ] ( D E F ! i ( l ",
"G _ H d I 0 J ] D $ 2 ] _ A 5 $ > K   6 L M ' F 8 $ l * @ > N O P Q ! ( H g G ^ R S 5 i 0 ( K 5 e T 2 $ U ^ * g ' 2 8 > = ( H V ",
"D   W 5 i V l ' X ^ 1 0 l 2 2 Y 0 5 @ z I _   2 5 8 Z 2 > 0 `  ...+.@.X > @ #.6 $.%.i ( i &.e *.=.# 2 > 6 i H * / H l M -.;.6 >.",
"Z J _ 1 ,.'.1 ! ).' 1 a 0 Z !.I 5 1 { *.* = > D 0 { o 1 { F ~.{.].^./.y 0 @ i 1   ( H * ! H / 0 @ l C 1 ( = (.X 8 g ! 0 L _.. U ",
"_ / ' / * :.<.' [.}.,.@ = ~ ^ |.1._ = 2.3.).4.D 0 o $ b Z $ 5.6.7.8.m L 9./ / %.' ' l   ^ * ^ 0.# A c ! l 8 i V a.b.*   V 8 @ c.",
"] = / ( c _ d.( _ H Z c e.%.U '.X _ @ @ f.g.h.i.2 '.8 H 6 , j.k.l.m.5 _.n.i m o.* * E l g &.= ! A ' p.q.r.] h s.t.H ( l ^ _ 0 6 ",
"_ # 6 $ u.v.( 1 X z ] ) v # 6 y { > y w.. ( x.; l A ] y.z.~ A.B.C.D.  @.D 6 E.;.b ).# b _ U H   A ) F.6 v G.i H.I.J.X i ).! 1 K.",
"[.l L.Z L.) _ g.2 C ] ' ( / [.1 8 1 1 { _ _ o #.H * _ M.* 2.N.O.P.Q.).0   @ 0 a ! / % H _ R.X S.' / f # H 6 1 ( H y T.( = = $ U.",
"H i 6 6   ) * H V.J / : 6 { > @ @ { X 5   H $ l G ) ) f ^ W.X.Y.Z.`./ 0 8 $ 1 1 _ : i @ _ g  +8 b 7 X .+++] : = J 1 F K : ! H * ",
"l @+l * ! H / % B _ H / 5 > o = ( @ i J V * 5 2 #+! 0.( X $+%+&+A.*+g o Z 2 2 0 _ 6 > b * / #.L.  2 @+> ' ( ! ' = 8 { @ # = A X ",
"1 { J = ] H : f 4 %.c A K > y * ! T ) ,.H ) X _ G _ 1 T z.{ =+P -+;+= S.i ).>+F ! J.,.6 ,+M.'+~ 1 0 i ++6 ' ! H * e ! ^ 1 ' 6 y ",
")+@ A ~ * ' )+( ) !+~+&.5 Z D ] ] S J ,.F b ! / ( )+0 {+).]+^+/+(+_+_ ! [.B :+1 g ).8 l g 4 <+7 6 x.).! > H ! ) _ H ' _ y H c 2 ",
")._ #.@ 7 e ! @ b _ [+}+l X 1 |+1+! @ 5 $ y 2+J 6 5 5 3+4+>+5+6+7+8+).9+0+! a+p ] / > @ H b+,._ I c+H ).).7 d+l H _ 7 H e+= A { ",
"* ) H H = f+v i ~ ^ n.|+o 5 o g+&._ b ,.2+] d+h+#.$ 2 i++ F j+k+l+m+' #.c G 6 p : c F $ _ 4 :.n+, ' ).g ' * o+p+> $ p.& @ C 5 $ ",
"  6 o H ^ q+}+c i./   i.' l   = ] 2 6 ~ h 6   > @ 2 F i i r+s+t+u+v+w+o 1 ! X i M.T #.  ^ ! x+U J   A A H y+X z+.+8 @ ] A+! 2 l ",
"0 i @ % d.% B B+i ( v o * ! / )+@ E I C+' C { D+0 ' A $ E+p.F+G+H+| I+D 2 ' ( c % B / / J+++{ #.l Z A / ~ 3.c _ = ' _ * K+i.2 S ",
"1 $ z.|+B %.%.p._ ' a+~ h = ! _ A   : _ ) l 5 L+2 b I J l M+N+O+P+Q+;.R+{ ) ~ C _ |+S+H I #.D ( T+U+~ ' { V+6 : ^ ).( ! q+; H [.",
"> + W+=.= X+% e.H [.F 6 S * _ ] = ( ' = _ * .+{ C { p ( _ )+Y+Z+`+ @1 F p )+1 8 )._ ! ] (.p D _ .@+@A @@J.0.F c : p.' H W ! ] ) ",
"l #@; ~ ~ ^ 1+A 3 : A C c.G $@d.$.J e A = W l 5 $ A _ 0 = ] %@&@*@=@#.  ~ ] X p * ( 0.6 W ' _ l k i 1 o ] y.3 -@H 3 =.) X 2 ).).",
"' ~ @ l 5 H @ L.R+e.* 0 0 L.;@e.%.J   y '.) c b Z ) [.0 0.c D >@,@* ).( = '@'+o / g i D )@* / !@b / @ > = ( S _ ! a i v 1 y g ! ",
") ] _ 1+l _ 1+e ; ~@: c.=.{@$@).6 C ~ : !@o+]@3 T * ] @ -.^@0 1 /@A ]+  { z.>+6 ( ).i I c : ' c.* v.2 1 :+e v S+c b _ : b $ / ' ",
"T |+)+).' g ) ) % (@( : & |+).( o 1 5 ~ o y [.)+] X b e.-._@Z 0.,+H   1 6 ~ i ! ] ^ H ! _ # i & % p..@o o K ) : g ' c ] 2.6 H ! ",
"A+) ) H :@$ @ ] g 7 _ ' ' v <@-.U.A ~   0 e ).2+[@@ l ! y.! R+}@:+# o 1 i ).e ' & |@g ! g ,.F {@k A $ p ~@1@).i A ] #.! ( c ) >+",
"D 0 @ J t.y z 2@3@' ( }+).++&.4@'@).= ).2 1 H ).] )+] ! ( ' T+5@0 i { C _ H H _ M.%.( 6 H o+C   0 D 8 $ 6@A+] 1 q i > / ,+).++H ",
"0 a K 7@8@,.~ ).J ( : _ ).>+> -.T 9@& :@] l ! 7 A * B e 2 ) X > D X @ 8 #.A A ,.= G B q+! 0@#.l b A+1 E.z.a@4 1 6 ++i _ ) ! b@A ",
"p 5 c@d@e@{ b = ' |@* &.2+A @@f@g@S B %.! ' ) &.6 & T ~ 1./ [.) ,.:+).  A Z 0 8 I <@% H / / = A V.h@i 8 i@[.h@2 1+B j@] c ! l i ",
"5 k@  2+l@m@    k@z.A X ~+' o+! )._ ' &.).-@H 3 [+[.%.i 6 ,+).2 n@&.) / ! k@A 0.! o@4 U.4+z.).S.0.0.S.l * &.X A / ! [.).X J.o ,.",
"@+2 L._ * ).6 1.{ 2 o U.! * / / -@H H ] )+g _ y.p@* [.(@T H n@/ p ) ).' ( 2 k & * C+' ).!+o.M.q@J b ' c ).6 ( H : H ! : '.8 > y ",
"A i # ).F.@ >+0 ^   H r@e S.K.)+' c }+).F.= : / = b@ +J A / E s@T.( -@] ] ( W e.i@b@H = - k B l ( H _ ( ] * ! ++_ J+( : 0@0.# :+",
"* g W ~ J > Z b )+( X :@[+2 t@)+/ ] / i * p ! #+  ^ ! i 2.u@$ :+'.6 ).++I F 2 @ 1+' H ).] e m@= y+( )+! H g ( ).}+#.J _ )+* * S.",
"++c p.>+D J.K.%.'+g z.v@=.  6 ( / ).J b + w@).* x@i S.2+H |+y@).6 X * @ A g   Z ).( : &.b   m ( W g ' = H ( g ] = ) ).* = ) l l ",
"! ( {@I { q.z@=.3+v@& A@q@W ( ' ).T ' _ & |+! M.p.$ F ).,@z@B@C@D@E@7 z k@F@~ /@b H ).! * %.% ( ).! ! * c@A I b@H _ c [.G@H@_ l ",
"|+! ! b 0 z.4++ ;.* X+k 7 ] l H ).A ).] I@J@).K@W >@,.~ z.g+L@M@N@O@P@# Q@).#.~ ( g   R@v S@T@A A : ! ! 8 g.U@i ' # l >+9+V@J ! ",
"e.& X A @+$+2 / ( c ' * ] @ p b@) 0 # ' ' ( H ] H Z 0 .+=.g+W@X@Y@Z@`@/ ( g )._ * ) ,.6 0. #K ,.0._ ' )+0 .#+#( S.D 5 2 / ( ' : ",
"U.J.2 K.i p # [.}+@#).* * 6 F l c i @ o+).! H _ '.#.S.,+X #.##$#%#&#*#K.i T T ' H #.5 #._ ).c > $ e ).).D V 1.@ 0@k@L+e > =#%.k ",
"o q ! l # $ z ( _ ' H ( *   , 0 ' c 6 E.g ] ! ] Z _ c g   p -#G+;#>#) 8 0 e.,#_ = ! > ( &.$ $ ,.$ p >+~ Z   1 ~+* X @ ' i '#&   ",
"U.i * ( C @+@ c % ] ) ^ @ )+e   ] * 0.y ! ^ l ^ > ~ A =#! J )#!#~#{#] ~ l #@]#! * j@z c.^#F $   2 ,.# l # ++] c.7 1+( X J+X |+V.",
"( # 2 ).$ p ,.' }+& * X F 5 J ( / _ g ] ).J { ~ { 0 1 /#g (#_#:#<#[#! J 6 4.c.}#%.%.F =.T $ { #+~ { * = ( : )+p@|#1#2#0 H o g+c.",
"3#4#@ ^  +>   W / ^ ).H A p p S 1#H ) l ^ ) H ' l > 2 _ A o 5#6#7#8#^ X i.9#0#F.4 _ X g |+> ,.a#_ X / H ] &.@ L ) :+6 i g i ,@: ",
"/ g J ( g+0 F _ ).H ] ' K.{ $ g+% B # 0 ] ] B p.2+o ,.W l F b#c#d#e#) |+T %.1#& g ' 1+~ ( ,.y u@b@] : ) : A > { H 1 p ' ] K.] ++",
") Q@D _ & 2 0 _ ! J # @ 2 > 0 _ |+& s.Z 6 f#g#1 6 p E.X E+h#5.i#j#k#S.' A+3 e./ A J A o J l#Z )+).A }+&.6 A Z 0 X $ i * i 6 ~   ",
"8 $ n@= ] 1 e _ : i b 2 > { Z )+] = l 6 1 o I E.6 i i = J+m#n#o#p#q#> ! 1 2 ^ / Z @ ) ~ p+1 0 ~ l 0 * c > = @ Z { $ o ' l @ > A ",
"D { > H ^ Z 1 _ ) r#s#~ t#J @ ^ ( c e l l ! i 8 u#' S+'#v#).w#x#y#z#> ( S.( H @ A#K.h ' Y 5 F 6 { ,.g ' A ' :+p i A   e._ ~+@ ).",
"0 1 b * * p D )+! % B#V.W   / 1 { = ( ).= H E l@C#* ).d+X p D#E#F#G#5 %.H#!   z S * 6 A ' L+{ p a 1 ! 8 c A #.^ g g+% = g+& ( / ",
"X :+.#! e $ @+) T A B z.] A = @ e / ] = p {   { 5 = M.~ ~ !.I#J#K#8.o / I H X F e.c.a # 0.J A   2.a.S.S.U L#X 1+++& #@h g = _ ' ",
"g _ 1 2@@ 0 @ * #+:+0.H S X+(@g ' * ] * F u#( J X |+|@)+( /@M#N#O#P#L.: ,._ S+' ~@c.Z   H ) ] ( g o C = z ~ 7 ).' 9@M.K.( ) 0 0 ",
"( c b 1 }#C @ _ / m@@ A+:@,+* [.).( H ] z 6 ] Z C 4 A+++f Q#R#S#T#U#F ' U.A c ^ 2#-.$ X ~ H ( / ).~ ,.0.F.= X S )+% ).g = J # &.",
"' _ H ) 4 )+_ ).)+= T ' 2@* g = &.) X l B V#> Z 2 2 8 B ! g C@W#X#Y#{ ! ( D '.Z ' &.: 6 C 1 Z#( = 0 0 o H A { =.e.e.T ( ,.z ! _ ",
": = ( ++e.c ~+= = H 1#4+7 )+_ ' ' 0.i : % ]   S.0.@ 0.`#=.J. $.$%++$l * A A @ y ~ : H l > @$1 J @ A 6   g _ Z )+p.^ ! ' 8 &.) ) ",
"' e.* S %.* ,+* J e   #${+( * #.A 8 * $$).] &.[.' C+_   D 0 %$&$*$=$h ] 0 / A p ^ ~+c+@ *.1 8 > 6 ! ! ! > l a S+^ ++* ! D f { H ",
",+H ) p.g+* ) _ K.F = -.; ~ / $ o e  +S * ) [.* ' `#)+g 1   -$;$>$,$).b { %.k -.[.f '$> i 0.e X  += 0 { $ i )$@ ! ' _ b A 0.> @ ",
"_ ' H e.|+!$] = F D ! ' # 1 X o K.B M.T (@(@).c ! p./ E+/ g D+~$|+g = $ 2 {$M.S S+] * # # )+}+4 7 ' 0 5 y n Z c * )@b F 4+,@: ! ",
"&.g ! _ j@X ( S l D S+6 0.# _ = ).k S M.p.) * ] * p._ 1 ^ @ '.l J ~ ~ # #.' ] %.* _ 6 X ( ~ S.c ' ( Z {   5 $ #@}+) #.0 ^ = ]$2+",
")+* _ % :@5 > ^$* }#' { /$@ &._ c.($#.).= ' 1#T S p.* 2 l $ [.J , [+_.: * &.! ' ] &.a i ( > F _ ) )._$3+* : K.' ( g { = g ! $ e ",
"* ] v@! ! 1 5 g+] = ] 5 8 @ g A #@/.y.).0.0.V.4 S ( ] D J J K./ 0.m :$_ ^ ! ' ' ( ] $ / '#E.z * ( ' 3+y.c ( $@X 3 ( 2 $ / _ '.@ ",
"p.<$-.B ( 0 5 ,+) ! ! 0 1   ( $ 1 ).e &.0 > > : S : * $ l H > 5 > A+e.j@)+( ).( ! ) 1 L.[$2.l _ ' * %.% 1 D e o.4@'.o a }$e.]@! ",
"4  +4+* ( i   _ i * ).0 A ] S i 1 1 @ #.I 2 @ |$z.* H 1 * _ A E+X ) ]     W ).* %. +J+i 1$X i e A >+' %.2$> e@'+n.$ i @ L ,@] ,@",
"c g H = ! * c = D 1 &._ ) W ,@y.b K > Z ( ).= ~ $   # H ).i 7 h { 5 '.1 F ( 4 e.+@L H @ 8 &.* 3$1 n@).(@4$L 8 5$= ( = i M.1#S % ",
"^ ! @ )._ * * 6 i .+: [._ A+2+i.5 8 Z '.e.! i 6 #.]   3$6 $ { 3 > J.2 y F H = &.L /.e '+K c A 2 y *.# ) )$Z '.J.! ).H   ( #@#@B ",
"M.=.y 6 ).6$A+A #+c g l { ! * 8 1 ! &.y+T H $ A d+S n.7$i y > ]$) # o F > 8$f#i Z ! ; 3 9$H , v ~ { ) / > 6   8 5 ] * * > 8 5 > ",
"p.H 5 A ^ P@y@@ b * . H a   ] 8 $ [._ A 4 p.e ' : k 4.) i @ { 4#= 1 1 H ) $ + D+5 : S %   }.! ! J i _ 0.Z @ l 0 0 ~ 6 _ X 5 1 8 ",
"' ] 1.) = ^$' 5 F ' * * = c * 1 0.G A >@p.B ! ( _ 0 l f / * ! _ ^ ( J ! C+Z   _ ( ^ ! ).) * ).! ) ]   D A d+* A 0 1 o 6 2+~+8 5 ",
"( ).F ^ g  +'+0$8 ' _ ! a$( g X #.)@# u.V.y@! ( ) * = : W * ( i ).] ] ] ' ! ).  ).' ( c ^ ' * * / ] ] ( 6 g ' i A 8 y b d+l I k "};
