/* XPM */
static char *b38c8ae4deb4dbbfsmall[] = {
/* columns rows colors chars-per-pixel */
"64 64 132 2 ",
"   c #948173",
".  c #9D8877",
"X  c #968478",
"o  c #9E8779",
"O  c #9E8B7D",
"+  c #9F907D",
"@  c #A38B76",
"#  c #A2867A",
"$  c #A48C7D",
"%  c #AB8E7D",
"&  c #A5937B",
"*  c #A9927D",
"=  c #9E8D83",
"-  c #9E9286",
";  c #9D9088",
":  c #A38E82",
">  c #AA8E83",
",  c #A59284",
"<  c #AB9484",
"1  c #A79885",
"2  c #AE9985",
"3  c #A4948A",
"4  c #AB968A",
"5  c #A6998D",
"6  c #AD9A8D",
"7  c #B19585",
"8  c #B29986",
"9  c #B2968A",
"0  c #B29C8D",
"q  c #B99D8D",
"w  c #A59691",
"e  c #A89790",
"r  c #A79A92",
"t  c #AD9C92",
"y  c #AD9F99",
"u  c #B39690",
"i  c #B29E92",
"p  c #BA9E93",
"a  c #B49F99",
"s  c #ADA18D",
"d  c #B5A08E",
"f  c #BAA18E",
"g  c #ADA194",
"h  c #AEA29A",
"j  c #B4A294",
"k  c #BAA495",
"l  c #B5A895",
"z  c #BBA997",
"x  c #B4A49A",
"c  c #BAA69B",
"v  c #B6A99D",
"b  c #BCAA9C",
"n  c #BDB09D",
"m  c #B4A6A1",
"M  c #BBA6A1",
"N  c #B6AAA2",
"B  c #BCACA3",
"V  c #B5ABA9",
"C  c #BBAEAA",
"Z  c #BDB0A5",
"A  c #B7B0A8",
"S  c #BEB2AA",
"D  c #BEB5B2",
"F  c #C19C93",
"G  c #C0A58F",
"H  c #C0A595",
"J  c #C3AB96",
"K  c #C2A59B",
"L  c #C2AC9D",
"P  c #C8AE9D",
"I  c #C3B09D",
"U  c #C1A7A1",
"Y  c #C2AEA2",
"T  c #C9AEA3",
"R  c #C2AEA8",
"E  c #C3B1A5",
"W  c #C9B2A4",
"Q  c #C7BAA7",
"!  c #C3B4AB",
"~  c #CAB5AB",
"^  c #C4B9AE",
"/  c #CABAAD",
"(  c #D1B7A6",
")  c #D2B7AE",
"_  c #D0BAAD",
"`  c #C2B7B1",
"'  c #C6BCB2",
"]  c #CABCB3",
"[  c #C3BCBA",
"{  c #CCBFB8",
"}  c #D0BFB4",
"|  c #CDC2B5",
" . c #C6C2B8",
".. c #CDC3BB",
"X. c #CECBBD",
"o. c #D2C2B6",
"O. c #D3C5BC",
"+. c #D8C7BD",
"@. c #D4C9BD",
"#. c #DACABE",
"$. c #D9D1BE",
"%. c #CEC5C2",
"&. c #CECBC3",
"*. c #CCC7CB",
"=. c #CBCBC9",
"-. c #D2C7C1",
";. c #D5CAC2",
":. c #DBCCC3",
">. c #D5CEC9",
",. c #D9CFCA",
"<. c #D3D2C5",
"1. c #DCD0C5",
"2. c #D5D1CD",
"3. c #DDD2CA",
"4. c #D5D5D3",
"5. c #DAD7D2",
"6. c #DBD6DA",
"7. c #E0CFC5",
"8. c #E1D1C6",
"9. c #E1D4CB",
"0. c #E1D9CD",
"q. c #EAD9CF",
"w. c #E1D6D0",
"e. c #FFF4E6",
"r. c #FDF8E6",
"t. c #FFF6EC",
"y. c #F2F8EE",
"u. c #FFFAEE",
"i. c #FEF6F1",
"p. c #F4FCF1",
"a. c #FFFBF3",
"s. c #FEFDFA",
/* pixels */
"u.:.^ Z h z c 0 b E P k t a i M a c f p 2 q H 7 $ 6 k x C ` ,.s.i.X.v ' R K k q 0 & & d * d K W H K ( n E n z d f f 0 W ^ C 5.a.",
"1.t.1.B n B n j c ( _ E j c a c n 0 4 0 2 0 7 < f k Y B ! 3.s.,...u.:.b c c 0 p * $ < 2 d I E L K L T l i j d 0 H 8 J c b 3.y.2.",
"! #.u.1.E b E b z E z b b b c c b 4 , > : 0 $ : 2 I E B 9.s.>.h h O.u.1.^ B b c k q 7 @ d L L b l 0 j 0 4 1 4 < 0 d j B 1.i.,.V ",
"v v #.u.9.b x ! B E b b j 0 b W T k 0 6 2 p 6 0 6 b E :.u.;.h B c t @.i.0.^ Z b q q 7 @ 8 z z n n 6 j b c p 9 0 0 d l $.i.+.B M ",
"b B a o.u.:.j B ^ ~ Y n j 0 K I W f $ 2 0 0 0 t c x 7.u.-.N B B k L ^ <.u.0.v s q p 9 > 8 k s n n d j c c p 9 9 s b $.r.@.c j R ",
"E b 5 j | i.9.B ! S E c c k H 0 * k j c i 6 x Y W :.e.:.B ~ ^ x u K E ! <.u.<.h a K q 7 7 z j d g l b b K U i i b 0.r.$.b l T T ",
"E j x x t :.s.:.S N E n l d k f > 0 6 0 k E B E q.t.} M Y ~ b Y q 9 x b N &.a.1.b i p q f L l 1 1 g l c c M a B :.u.| l g k ) P ",
"z L c j B N ..s.:.E B c b k f f j j f j j x Y 9.u.O.x B B Y c j 0 0 l v S h O.u.1.b 0 0 0 j 0 , s l b Y U M M -.u./ b l k Y T T ",
"Y Y ~ ~ m x C { s.;.l b Y L f P W b j j n B :.u.O.R ! c j c x p 0 5 1 c R y y { s.+.x 6 , j p 0 i n Y N Z N 3.t.| j 4 6 c Y K k ",
"c P R B N ` ! x ] u.1.c x 1 k k L b 6 : c 7.e.] M x x c j i z p 0 d j c c t t V +.t.o.s d p Y f p Y Z N S 3.t.:.x 6 9 6 0 k b c ",
"k b Y R x a B C x ] s.:.c 6 6 I c n 6 1 8.u.o.a 3 j t c j 3 j x j 1 j B a u a x l | r.| j k U p c Y v ^ 0.a.1.A b i > q k l n Z ",
"T b b c i x B x B x } i.#.6 + x v r h O.r.+.x c 1 x 6 c t , a c g , 5 c a a x t 1 l Q e.:.b e 6 x E x ;.a...N B Y k $ 9 c b E Z ",
"Y b b L B Y B i B ~ B :.a.1.j x r ; 1.a.| j x j x b a i i 4 t c 6 j j e a B c 6 5 j : _ u.:.e e , e 1.a.:.m B 6 t f 2 1 0 b ] Z ",
"a x W ~ W Y B b j x ] M +.a.9.B g ;.u.:.x c k j K L c j a x a M j c c j x b b j j , 4 5 } e.,.C m ,.i.C R R a c 0 j j l h n ` B ",
"t B Y x c E b i c Y ~ / B ..a...%.a.X.5 j n z E c L b k b b M x b c M N x h l l 9 > > 9 5 ] a.&.&.i.;., M U 9 j b 6 h B B C R M ",
"x b c x a 6 < 0 j ~ ~ ^ M t C s.i...y x a j c T f k k p b x M a K b B x 5 r s = < > > 9 a N  .a.a. .y x u > i f 6 + s b b R ! M ",
"U U x N E v 1 5 , Y U K c - X.t.u.] x h x x B B c b Y i x a Y e y x a a 4 j 0 , 8 d , j t x -.i.s...h m c 6 a q q 0 * q f L z I ",
"U c Y E ^ E j x c c R c x :.i.X.O.a.1.x N ~ b c B c B c N c B N B B x x i 0 6 k 6 5 c g t 3.s.{ ..s.%.h x a k 9 7 0 < 8 d b z I ",
"0 6 i Y ^ b j : 6 W n E :.i.@.e h 1.t.+.c B B j c x B c c Y B B y M x j j j i k 6 , a t ;.u.;.N V O.u.:.j j p k o $ > 0 j n b c ",
"j j a W W L B , h B b 9.a.( , j g x :.u.:.B x x x j x N c B c M x M B b b c t 6 1 c , O.u.] x t t e ..u.+.i x j 4 > d E E z d j ",
"Z d x c p c u t j h 3.r.o.0 > K 0 c P :.i.8.x 5 x 5 3 E B j i x M t x a j y 6 1 x Y +.e.o.t 6 5 t i 6 +.r.#.L , , ; t W P Y b E ",
"Q z b P T p > 3 h <.u.X.N a u p 1 0 j n #.t.;.x N y r R Y B n E c i j i x b x h ^ 1.a.o.x x 1 e k 6 1 j o.i.8.x , : x B j b x n ",
"I z k P W i = w :.i.' B Y p q P 2 > d z c +.t.;.N x h 3 5 b c c j c c , i N h B :.u.O.B L j x d k 2 < 6 d o.i.:.m e m R b R b T ",
"I d b p a e : -.i...6 3 1 Y c q 0 d d 6 x Y @.i...B S 3 ; c j Y b b x 3 V B B 9.s.-.^ B j j b k f 8 2 . $ h / a.3.S B ! Y ! x B ",
"z P Y d 1 h #.i.O.x i 6 i c < d q H z z j x j X.s.:.! h h 6 x c L x c r g B :.s.O.S C ! c j b K q 7 2 $ , 1 B @.u.,.C x C R B B ",
"I W j r Z <.u.' x Y u p p 0 c x f k c b 4 t h x o.u.:.h v l x n Y j e t x @.a...` R B c t j k d 8 7 1 $ 6 5 h E -.s.;.V B x m M ",
"~ W E b #.u.' t a c c p L B n v W L z j 1 t x t 3 ] u.:.B B r v b x h x ;.a.%.B V C B x 6 j k 0 f 8 0 2 0 5 5 t N ] u.3.C ! m x ",
"~ ! S 0.i.X.5 < : 4 T u k n j E x b x j x a j 1 X t ] t.:.B Z N Z S v 3.a.] w x B B c x c x j x f d j p i 4 5 r B 3 { a.3.V C ! ",
"! D ,.i...h 5 i   4 z k L c x v j x x x B i 6 : O i 6 +.i.:.N t N D :.u.O.x h 3 M M c c B x j b k c k c i t j j h x N -.s.3.B V ",
"[ >.s.{ ; 5 6 a > i d h B b b x R h B M a 6 i < < 6 Y v @.a.] t N 1.a.X.h ! M t c B N b b b x c K c j c j x x j n B x ; ! s.3.D ",
"4.s.%.m t 4 p 6 p x I n j j t b V m V R c j i 4 0 x L b x ;.a.>.2.a.;.A ^ a e b b Y B c c N c x B B j c j k l i x 6 1 m N ..s.;.",
"s.*.D C R c U T W l b Z n x j c m C C x Y Y p T c T I c h g { s.a.&.S N ! N i B b B b c c c c x R R x c i c b x 6 j h N N B %.s.",
"s.*.C m L b p L c B V ! c 5 f 9 > k 7 7 * @ & * q 7 F F u r ;.p.p.<.A h f H q q f z b b E E U M a i 0 j 0 0 W z f K c v B S >.s.",
"6.s.,.B E p k j p B x t Y x k 0 > # # 9 q * * * % % 7 > u :.s.*.;.a.' 1 j 0 f P f I z l c n b 4 4 c j : 0 0 J H 1 z i b N <.a.%.",
"V %.s.:./ Z c x j ~ j j c b x c p q 6 2 7 8 q F 7 > , 6 ;.t.,.C N O.i.O.b j k c L P L p i c B j b b P i 0 d k j 1 , t x O.a...m ",
"m C 3.i.w.S ! c d K f L 0 c b ~ k T z 6 6 f u K k $ h <.a.;.t t h h O.u.$.g x 0 0 4 9 p 6 i b x P 0 f j 8 6 8 $ 6 $ 4 +.u.0.A h ",
"L b B 3.s.3.` h x d f f f p B B i x 0 l i p u p j - X.a.<.N x K b i , X.u.X.l b 4 > 9 p k z n g z 0 & 0 z 0 , 4 6 : O.u.9.! ^ C ",
"( c B S >.s.%.t c L f 8 f z z v l , , 0 i p p : , O.a.X.N B b ) T j 5 n @.u.$.! i p K K k E E b 8 f * l P n j 6 j o.u.O.! B M R ",
"( P j x S >.s.;.c b 8 q * z x I s 1 * 0 0 c 6 , S a.3.5 t Y c E K K 6 g g ..a.@.B a c u < i j x 8 * f f 0 x j j / u.} a ~ Y Y ~ ",
"P z E t x x | u.@.c j z < d f k l 0 > % p j 3 X.a.$.B x 6 T n d 0 0 j v E v | a...M t 4 4 0 9 < 8 z J d 5 f j o.s.{ i t e L R B ",
"l j j j 6 6 ^ O.i.:.C c i 5 J G d f f 0 p , Q u.| x c p K T l l k x z l R a = { i.-.3 3 j 4 : f f z z l b k O.u.o.B c a c c a p ",
"h j 0 l E L b B %.s.%.c E z J G 8 f 2 d 6 | u. .t $ : 9 c P J l z _ E k c U > r ] a. .3 6 > 0 p L z f c x o.u.O.Y i j a i j c c ",
"v Z l K W b 0 c y %.s.;.B E 8 G q q f l | u.#.j c u > 9 K L L d x n b k p U x x h  .u.X.j t p K n x b Y +.u.o.x B t Y B j c Y c ",
"Z b h z T f a x w m ,.s.O.j 0 J F 0 6 @.r.$.v b U p a 6 k c b q z g p Y p c c M j ; ' u.:.i k T Z B b #.u.8.c x x k R ~ B Y ~ W ",
"h x a R b t B a e R C 3.i.O.r j u 6 +.a.X.g l x c k b j c b j u l 6 c T c Y c j j w 3 O.t.+.c R ! V ,.t.:.! Y i c B b b L W Y ! ",
"b ^ ! / c x R 5 x B B R 1.a.;.h B ;.u.-.n g t t b x Y t a c e u i , t K b ~ Y n x t a M +.i.X.^ S ;.s.-.N ! b a k L j p c B B B ",
"/ _ ` ! C D R e R R b L b %.s.&.&.a.%.t c x ! B h v x t a j a a i 4 6 b b b c B b b p U c | a.1.*.s.,.C B B ~ L j k 4 j v ~ ^ ~ ",
"c n ] D C C m B T c T b x h  .s.p.=.m M K B Y ^ v B N m U M M c 9 M c B x 5 g j p k c c B B ;.i.s.%.S ` B Z W L K c i b b R B x ",
"e x Y B M a a Y i j E ^ = ; X.s.u.,.m v B N ^ ~ Y a x N B B C m x ^ ! c x k 0 0 0 f i b B ! 3.i.s.:.V x B b T k H f f b n U B m ",
"E x x B M t a b c x z g , :.t.9.;.u.+.m B B x ! B c x Y ! R t M B B N c c j k L j j i x V :.s.;.%.s.:.x B c c b P z d k c N C C ",
"x 1 , c t a M t 6 b Z B +.u.:.C x 9.u.;.x h N t a B B B B B w t C S N a i j c j i , a r +.u.O.` ' 9.u.-.x 4 k k d 2 0 b B Y U M ",
"i j a c y x M 3 3 t x 1.u.+.y e x y :.u.+.h a t 3 y S M x x M x B ~ E b N Y b i 5 6 c -.u.:.h C ' S w.t...e 6 a j & 1 i b R R R ",
"c T b j c m m w ; x ..u.O.t t m N j b :.u.:.h w y y C B x e a c B x B ^ ` ~ B b x x 1.u.+.N Y B B B Z O.a.;.t i 5 : , k L b Y b ",
"j k c a R m y h h :.a.3.h h x N c b c m ;.s.,.r N V C ! E N 5 t x x x Y ~ B N N Y :.i.+.b Y B c B S x t :.e.:.c 6 : 1 l a p c K ",
"f p x b R m y ! ,.t.:.h r x e i 0 6 j B N :.i.:.A m V ! S ! x i b Y B B B N N ^ ;.u.{ a ! B b j E b v e t O.i.-.j 1 5 c j 0 i u ",
"0 1 x n m B V ,.s.3.S ! c , ; a j W B B m x ..s.>.m V B x j N c B B N Y S x B :.s.;.h , x l i W I b g x m m 1.u.@.B 6 d 0 4 0 p ",
"l 6 t x R M ;.s.:.] ^ ^ B i 1 a c k Y Y x N h X.a.-.N S v x j B / B E h x B ;.a.;.^ x 6 b i z k 6 0 c b R S ! :.i.+.1 j k k 1 b ",
"b t : a C :.s.:.S B Z B c a , t 1 p j E b x B ! :.s.1.h t x x B ^ b B y h 9.u.;.Z B x x I b c 0 0 5 c B M B B ! | u.o.s 6 0 k b ",
"Y x t e ,.i.{ ! B E ! c k c x a k 6 6 0 a c h b B 1.a.1.N B B h N B x x 9.u.;.N x b x x c L b d d 1 z E x M x x h ( u.#.x j 6 6 ",
"v B M %.i.:.t x t c n E W ~ R R Y 0 i 6 i b j j b x :.t.;.B N v N B N +.i.+.t k d c l 0 j b K z l 6 x W B c x j b 1 o.u.1.l h 3 ",
"h v 1.a.9.R c t k 0 0 P W c c Y 6 i 6 6 1 < k k k n B ..t.:.h N h h ;.u.+.l j 6 6 k k d f j z x d d x z W b x p k j d o.u.9.h g ",
"D X.s.1.! ` b k L z 2 0 j p a c 6 i 6 < $ $ 0 0 0 L j j 1.u.>.N h ;.t.0.E c k 1 d f k k k j k l 0 z b z Y L c 0 6 5 s h 1.u.X.A ",
"=.s.<.S ! ! P 0 8 f f 8 f K L c c i c 0 0 0 8 % < 0 4 4 x X.a...%.a.;.B E E d 0 f P f 0 0 k c c j n P L K k K k j d s B S ;.a.2.",
"s.>.A D B ~ b q 8 H q 0 p a K c j x i q 0 * f % % 2 1 j B h ;.s.s.<.h b E E k 8 f J 8 0 0 I L L z k P ~ b d K k d j B b ' A <.s."
};
