/* XPM */
static char *floor1[] = {
/* columns rows colors chars-per-pixel */
"64 64 71 1 ",
"  c #2A1D0C",
". c #2C1E13",
"X c #2E1E1D",
"o c #2E210C",
"O c #32260E",
"+ c #352A0E",
"@ c #2F2114",
"# c #2F201D",
"$ c #332515",
"% c #352915",
"& c #392E13",
"* c #33241C",
"= c #36291B",
"- c #392C1D",
"; c #3D3115",
": c #3E311E",
"> c #342423",
", c #372822",
"< c #3B2C24",
"1 c #36262A",
"2 c #3B2C29",
"3 c #3E3025",
"4 c #3F302A",
"5 c #41351D",
"6 c #413424",
"7 c #463A23",
"8 c #4A3E26",
"9 c #43342C",
"0 c #47392E",
"q c #4A3D2D",
"w c #443431",
"e c #473833",
"r c #4B3D33",
"t c #4D3E3A",
"y c #4D4226",
"u c #4E422B",
"i c #504625",
"p c #524825",
"a c #51462C",
"s c #554A2D",
"d c #594E2E",
"f c #5C522E",
"g c #4E4132",
"h c #4F4039",
"j c #524534",
"k c #564A32",
"l c #594E34",
"z c #53453C",
"x c #56493B",
"c c #5A4D3C",
"v c #5D5234",
"b c #5E523B",
"n c #615635",
"m c #635935",
"M c #61553C",
"N c #64593B",
"B c #685D3D",
"V c #564740",
"C c #574841",
"Z c #5A4C43",
"A c #5D4E49",
"S c #5E5143",
"D c #5F5148",
"F c #625543",
"G c #655944",
"H c #685D45",
"J c #62544A",
"K c #67594D",
"L c #685B4A",
"P c #695B50",
"I c #6B6040",
/* pixels */
"BBNnnNNBNnnfvffvnnffdffnnnfffnmm&BNfbvINfNmmmfmmmfddvvnfNnnNmnNN",
"sssaaappbbbvvbbNBBnnnnnNffdddsddOvjyyysyapvsiipsssssasskkskkkvsv",
"lllllkkjvlbbbSbNNMMMbMbbbNMvvlkk<GcjguljjlbvpasbbFGblkvMbbbbMSNF",
"cxcxxjgqxcZSGFFDMSSFbSbblxxxjju0=zr9q0xxuzclgqjlxclxzgjzxxxlbbSS",
"AZAZCxzhVZZDJJJJJJKJKJGDDDDDScxj1VeettCChCAZzgxbAZCxCCzzCCZZAAZD",
"CCZxVVzzzzCcZCCAZSZZCCCCJDJDZAZcwAhtVeCCVZZZxzxZDCVCAAxzCCCZCZAC",
"2<<,,,,,ww94949w0w03499933333<3<#e>,2#,,<3,3<3,3,3,33<<,233<<<,<",
"--***%=-$$@@@@@@--&%$%&--%$$$=--@w-,<@-*,%+$=-=$.@==@@@*-$$*$$$$",
"=GFGGSGFLHLGGGGGFNFMFFFFMMFbbMMMJFFJFFFFHNbFNNbbFFFSbbSbSblbSSFS",
"+lkaaukkvlvkljsjbvbnNvnblllllkkdkjjaaaajvjayasspaauaaaaalvvkkkkk",
"5NlakabnbbbbvlvlNNBBBBNNNNNNnnnMkkjjjjskbvsyyssvskadklllbNbbkssv",
"-ly8aubblkkkklkkllvbvvlkvvvlvllljajaaaajkpayaapsaaaaajkkkxvjy78a",
"5xgkxglbxxxcccSbbMFGGMMbbbblbbllzjgjjjjkjkkkkkjscxlzxxjxxbFbjjxb",
"0DzzZqzzzxxcASDDSJFFFJSJDSSDSSZZzhzhhhhzgzCccxkxZZcczzxxZAJDZcAD",
">e<29X,,2<222222224<242299294<4<111>1,1<>,2<<,<<221<<<<14212<><2",
"X4X>1X>11>>>>>#>,,>,>>,>*>>#>#>#1111>1>1#>>>X#><>X>X>>><21>>>>>>",
"lnnnvvnnnnnnmNNNnnnnnnnnnfnnnffm;HNfnnINnmmmmfnmnnnMMnnnnnnNnnnN",
"dlvlskkllllllsssnfvnnfnfnlfnfsdlOljy88sysdddpippdkkkskldsslssass",
"MMFMblvbGNMFbbccMNMNGNMNGnMNndlv$cjgjucabMMblskkFMMlbMMFbbFbbllb",
"zxcxzjjjSZccccxlcbcccccccccljqqg.g0wqrzhkxxjjaajcbxjjzcbcccxzkjz",
"ZJDAxVzCZZZZZZZZDDDSDDDFJZSZZzzz*teeteVzzzzzzzxxZCVzzVCZZZAZCzzC",
"CCCCVzzVCCCZZZZZDDDDDDDDJDDDZzxAwAttzeztzVCCzzcCCCzzzzCCCZACVzVC",
",,<,,=,<3<332<<<:3333333,,<63=,9*e>12*<<-3<<--:3<<<<<<3,,332,,<4",
"==:,==-,==***@@@$$$$$$$$%$%-=%%:.3*,-#--*=--$$$=**%%**%**====*%-",
"5FLbFHFSSFGGFFFFMFMFMFMMSMMMMbbbJFGFFFGGSMFMMMMMFFFFFFFFMFLGSbFL",
"Okl8alkddcbbvllblvfvvvvMMMFNNNMMjguuguagssassllfllllllllklblkkbM",
";dluslbbvMMNMbnMnMMMnMMnMnnMMvvljkjjakasksssslnnbbMbbbbbvbnvlkll",
"%ua7qkadklbllkkdvfllddkkllnnvvllaguuguuasau8ysslkdkkkddkllxky88u",
"=gkqjxkjcSFFSSSSMFMMMFMFFNFFFNMMzzzjjjjkSclkkllbSSSSbbZbFFSblxxb",
"6zzzCczzcZZDZcZZccSDFKLPcZccCcxczzzzzzzzDCcxzxcxcCccZZZZZZZADJJJ",
"X2<>441<1<22<<1<><<<44ww9499994412<11112<<<==,=<><1<,<<1<<1<2444",
"X2>X>>>1>>1<>>>11,>>>>>*>>>>>>X#1111>><1X>>>>>,1>>>>>1>>21>>>>XX",
"nnmNNnnNvvvnnnNnnnnnnnnnmmmmmmmm5nBnnnnnvmNBmMBBmmmmnnnnMmmmvvnm",
"pskkspsjllvvbvMnfdvvfvfvdddsspsp+ad88aalakdsaaasklkklvvlkvlvlslk",
"vbbblxllkkkxbbbbnMMMnMMMNMblvlkk:slugdvGFMMlkkclllcbbbFFbFGNMbbM",
"zxxxjjggxxccbSSJbxclcxlxZbckjugg-gq60gzFScczjjjjzjjxjcxxjxSScxxx",
"zCAxzzzzcCZAJJJJJJJDJJJJDZZxzzjz<rrrgzzDDACxxVZZcZZZZZZZzCZDZZCC",
"CCCCCzzzzzzzzzVVJJJJJJJJZZCcxxzC9zhrzzhZZZxVCZZZZVZVVVVxCZZZAZZZ",
",,44<,,<39449999<33<<<<<3,<3,333*<<,<=*432,<442<,,,,<<,,<<444<44",
"**=-===*$$*@@@@@%%$%%%%%%%$%=---*-$.=..<=*$*==$@$*$$===-@$$$@@*=",
";GFFGFGFSFGGFMbZbbMFFMbbbMGFMbbGGGGFGFFGSFFGGFFFMSSFFSFMGGFFcFcF",
"&laysulkklbllkllNNNGBNNGbMNMvlbNkajaauuaaajaakklkskkkskkbbllllvl",
"7NkaauvlnFGMMMMNMnbvnvnnnnNMvlvnlklssskdvvsssvMNMbvvvvbMNNMMvbbb",
":lq8u8klkllkkkbbMvvvvvbMnMNMvlvvaaaaauajkjuyujlbllkjkkllblclkkaa",
"6lqqxaxllcclxlSSGGMFFFFGFFNMMbbbjjjgjjjjjjjgjxxccxxjjxccSFSSFcSc",
"0CrzZzCAZDDAZZSDZcZccZZbZcZcxxzzzggrrzgzxxxxxxVxZCzxzxxxxVcDDDFF",
"X9><w<9944w94224999w9999w0900w09>>,*>><<2421222<22<2<222,2244244",
">4X12X12>>11>>>#>*>>,>>#>#X#X>>#>>>>>>>1211>>#>>>>1<11,,11211>>X",
"lfnfffnnmmNmmnnfvfnnmmnnnnnfnfff&HBMMbBvMmMMMMMbMbbbbbbvlbMMbvbb",
"dvvflddfnnnnnnfvvnnnnnnndddfddfdolayuuljaaauaaaaMbvkkllbxlbbbvbb",
"llvldkslllbllbllllvvvbbnMMnMnbvv%SjgjcFScxjcccxcMbsauaklsxvbbvbM",
"bFZbxkxxbbbZbbcbcbZSFbbZFFbxjgqq@zrqhqVVxzzrgghzblkaaakkkklblbbM",
"ASAbzzzxDSDJDJDDZASJJJJAKKJJZczz*zttVtCVZCVVVVCASvvlxkxlsxbbMMMS",
"zzczzrtrcCZCZZZZVccCCCCCKJJJDADA<VtzZzCVZAAVCCAAkxxkkxkkakxbxllb",
"99093333909qe0009000qqq02646<<6<.9>,3#<<3322<343777:577767777778",
"%=%=$$@O.$$$%%$%$@$$%%@%===%=%%$.6@@* **=*=,,-=*%O  oO%-@O%%%@%%",
":bGlnGGHGGHGMMFGMMFMMMMbbSFGFFFbFSFFFbFMFFFbcbGLGMFMFFFFMFFFMSbM",
"&slyasssdvllsassvMMMMMMnllnMMvvlsaaasaakaaasaaakcxxjxjjuxccxxxxx",
"5dvpslslnnnvlvvvnvvnMMMMnNNBBNMmbssdsssMsllldllfGSccclxxbSbclxxx",
"+iyyasakllvlsssvlllnnnnMdllvvfvsvayaayavssiaiasscxjjjzjuzjxagqqu",
":ujukjallbbbllcbbbbSFNFMMMMSFbbblaujaukcckuuuakxxjjjjxcxSSSScxxc",
"uxzgzjqcAbZZcxcAzzxccZccDSSSFDFDcjzgjjjcFcgggjxxxxjjxcxcFFFScccc",
"*<,*9,#<<<<<,,<4990wew9w4<<<<<3<4<,<<,<33<,,<<<-::--<::<::6::-:<",
"#>>#1,>4#>>>*#>>>X*X>**X>>>>>>>>>**,,#*,,#*><,#.<=$$=%$$$$*%$@%%"
};
