/* XPM */
static char * four1_xpm[] = {
"64 64 22 1",
" 	c None",
".	c #980088",
"+	c #555555",
"@	c #4C4C4C",
"#	c #404040",
"$	c #616161",
"%	c #232323",
"&	c #383838",
"*	c #2F2F2F",
"=	c #1A1A1A",
"-	c #0F0F0F",
";	c #060606",
">	c #000000",
",	c #260000",
"'	c #400000",
")	c #610000",
"!	c #810000",
"~	c #9E0000",
"{	c #9E4040",
"]	c #9E2323",
"^	c #8C8400",
"/	c #383500",
"................................................................",
"................................................................",
"................................................................",
"............................+++@@##.............................",
"...........................+$$$$++#%............................",
"..........................+$++@@#&%#%...........................",
".........................+$+@@##&%%%&%..........................",
".........................+$+@##&**%=*%..........................",
".........................+$@&&%=-;-=%-..........................",
".........................@$*%@&*%->-=-..........................",
".........................@+%&@&*%=->->..........................",
".........................#+*&@&*%=->->..........................",
"..........................#*&@&*%=->>...........................",
"...........................-=*%-;>>>............................",
"...........................*&@&*%=->............................",
"...........................*&@&*%=->............................",
"...........................*&@&*%=->............................",
"...........................*&@&*%=->............................",
"...........................-=*%-;>>>............................",
"...........................*&@&*%=->............................",
"...........................*&@&*%=->............................",
"...........................*&@&*%=->............................",
"...........................*&@&*%=->............................",
"...........................-=*%-;>>>............................",
"...........................*&@&*%=->............................",
"...........................*&@&*%=->............................",
"...........................*&@&*%=->............................",
"...........................*&@&*%=->............................",
"...........................-=*%-;>>>............................",
"...........................*&@&*%=->............................",
"...........................*&@&*%=->............................",
"...........................*&@&*%=->............................",
"...........................*&@&*%=->............................",
"...........................-=*%-;>>>............................",
"...........................*&@&*%=->............................",
"...................##@+++++++@##******%%==-;....................",
"..................**&##@@@@#&#&&&&*****%%%=-;...................",
"...................%%%%%%%%%%======---;;;;;;....................",
".....................;-=====----;;;>>>>>>>......................",
".....................=&@@@#***%%===---;>>>......................",
"....................=&#@@#&**%%%===---;;>>>.....................",
"....................=&@@@#**%####%-=---;>>>.....................",
"....................=#@@#&**#=#-%;%----;>>>.....................",
"...................=&#******%%%%%%%%%%%%>>>>....................",
"...................=&@*&&&&&&&&*****%%==>>>>....................",
"...................=&@*&>,'&>,'*>,'%>,'=>>>>....................",
"...................=&@*&>)*&>)**>)%%>)%=>>>>....................",
"...................=&@*&;!@&;~@*;~*%;!%=>>>>....................",
"...................=&@*&;~@&;{@*;{&%;~*->>>>....................",
"...................=&@*&;]@&;^/*;^&%;{*->>>>....................",
"...................=&@%&;@@&;//*;/&%;/*->>>>....................",
"...................=&@%&&&&&&&***%%===-->>>>....................",
"...................=&@-;;;;>>>>>>>>>>>>>>>>>....................",
"...................=&@@*=*-;>-----;=>;>>>>>>....................",
"....................=#@@%=--%%%%%==-;;;;>>>.....................",
"....................=&#@#*%%%%%%%====--;>>>.....................",
"....................=&###&*%%%%%====--;;>>>.....................",
".....................=&###**%%%%====--;>>>......................",
"...................##@+++++++@##****%%=--;>>....................",
"..................**&##@@@@#&#&&&&*%%==--;;>>...................",
"...................%%%%%%%%%%======---;;>>>>....................",
"......................;>>>...........;>>>.......................",
"......................=*%;>>>>>>>>>>>;*=>>>>>>;---==%%**........",
".....................=*%;>>>>>>>>>>>>>;*=>>>;;--===%%***........"};
