/* XPM */
static char * imp1_xpm[] = {
"64 64 38 1",
" 	c #980088",
".	c #774F2B",
"+	c #7F532F",
"@	c #9B633B",
"#	c #875733",
"$	c #8F5F37",
"%	c #B37347",
"&	c #6B4727",
"*	c #AB6F43",
"=	c #BF7B4B",
"-	c #A36B3F",
";	c #5F4323",
">	c #4B371B",
",	c #730000",
"'	c #FF1F1F",
")	c #332B13",
"!	c #3F2F17",
"~	c #4F0000",
"{	c #ABABAB",
"]	c #7F7F7F",
"^	c #777777",
"/	c #838383",
"(	c #636363",
"_	c #2B230F",
":	c #FFFFFF",
"<	c #B3B3B3",
"[	c #A7A7A7",
"}	c #9F9F9F",
"|	c #DFDFDF",
"1	c #7F0000",
"2	c #670000",
"3	c #8B0000",
"4	c #533F1F",
"5	c #CB7F4F",
"6	c #D78B5B",
"7	c #B7B7B7",
"8	c #8B8B8B",
"9	c #BFBFBF",
"                                                                ",
"                                                                ",
"                                                                ",
"                                                                ",
"                                                                ",
"                                                                ",
"                                                                ",
"                                                                ",
"                             .+@@+.                             ",
"                            .#$$$$#.                            ",
"                           .$######$.                           ",
"                           .%@+&&+@%$                           ",
"                          +*=%-##-%=*+                          ",
"                          #;>#@**@#>;#                          ",
"                          #&,')!>)',&#                          ",
"                           #&~>&&>~&#&                          ",
"               {]       #$$.#;&$$&;#.;        ^/                ",
"                ]{(  +#$$#.;#_/:</_#>;.+.    [}                 ",
"                 ^|]+$-@#;>!+_1__1_+!>;.@@#.|}                  ",
"                  ^&$-*#;!))._1231_.)!!&#*@+&&4                 ",
"                  &&+#-@$;>);_/:</_;)!4#@-@+&;4                 ",
"                  44&+##++;>>;5665;>)4&+#$+.;;4                 ",
"                  !>!>&++.&>!>>!!>>)4&+++&4!>4>!                ",
"             {]]&44))!>4/7;;!!>;;>!!;;/7&;>!!>!!|78/            ",
"               <|4>))__)!!>4>!____)>444!;4>)!>!!!               ",
"               &4>!)__)))!>44;4_)_4;;4>!4>!)!;44>&              ",
"               4>!)___!!!_)!>4!)!)!444>!)!)))4&;4>              ",
"               4!))___!!__)))!)!>!)!)))))!)_)>4;;![             ",
"              >!))___!_!)!>4;4>!!!>4;4!)_)_!)!>>;4.             ",
"              !))))_!  )!>4>!>4>_4;!!>;>__  !)!!4;4             ",
"              !>)__!    !!!!!>!)_!4>!!>4!    !!4;&;             ",
"              !4>!4>     !)))))!!!))))!4     ;..;;4             ",
"              !;&;4>     !))!4&4);&>))!>     &$#&;4             ",
"              !4;4!      4!))>>!)!>>))!>    ;.$#&;4             ",
"              !4>!!      4;4!!!!!!!)))!4 >&&4$#.;4              ",
"              !>!)       >4;;;&;&..;>)!4>44&4&.&4               ",
"              )!!)      !>>44;&4!;&4!>>4>>>>.4>4                ",
"              ))))      !>>>>44>;;4!>4;;))))&4                  ",
"              _))))     !>>>>>>>>>>>4;&.4__!!                   ",
"              __)_)    !!>>>!)!!!!>4;.++&44                     ",
"              ____)    !!>>>!))))!4;&+@#&;4                     ",
"               ___     !!>>>!)___!4;&#@$.;4                     ",
"                       !!>>>!))__!4;&#*$+;>                     ",
"                       !)!>>!))_ !44&+*$+4>                     ",
"                       !)!>>!)__ >>4&.#+.4>                     ",
"                       !)!>>!)__  !>4&&.&!                      ",
"                       !))!!)___  )!>4;44!                      ",
"                        )_))___   )))!!!)!                      ",
"                        )______   )4!)))!>                      ",
"                        ))_____   )>!4;4))                      ",
"                         !4>!!_;  )!!&9+_                       ",
"                         !44>!_>;  !!;8.!                       ",
"                         )!>9>_!4  &!>>>!#                      ",
"                          )!8!__>  ;!>44!&                      ",
"                          ))^___!  4!>;4!4                      ",
"                           )____   >!>;4!>                      ",
"                           )__))   !!>&4!                       ",
"                           )>>))   )!>&4!                       ",
"                           >>>!_    )>&4                        ",
"                          >4>4>!    !4;4                        ",
"                          >> >!>    4;.&4                       ",
"                          {! !{>   4;;&.&                       ",
"                                  4..; >..&                     ",
"                                  4><> !!<&                     "};
