/* XPM */
static char * imp15_xpm[] = {
"64 64 41 1",
" 	c None",
".	c #980088",
"+	c #939393",
"@	c #430000",
"#	c #9B0000",
"$	c #AB6F43",
"%	c #9F9F9F",
"&	c #730000",
"*	c #4F0000",
"=	c #5B0000",
"-	c #BF0000",
";	c #B37347",
">	c #ABABAB",
",	c #670000",
"'	c #4B371B",
")	c #8B0000",
"!	c #6B4727",
"~	c #B7B7B7",
"{	c #533F1F",
"]	c #5F4323",
"^	c #875733",
"/	c #8F5F37",
"(	c #7F532F",
"_	c #9B633B",
":	c #774F2B",
"<	c #7F0000",
"[	c #2B230F",
"}	c #A36B3F",
"|	c #3F2F17",
"1	c #6B6B6B",
"2	c #7F7F7F",
"3	c #A7A7A7",
"4	c #332B13",
"5	c #B30000",
"6	c #A70000",
"7	c #979797",
"8	c #CBCBCB",
"9	c #BF7B4B",
"0	c #43331B",
"a	c #000000",
"b	c #1F170B",
"................................................................",
"................................................................",
"................................................................",
"................................................................",
"................................................................",
"................................................................",
"................................................................",
"................................................................",
"................................................................",
"................................................................",
"................................................................",
"................................................................",
"................................................................",
"................................................................",
"................................................................",
"................................................................",
"................................................................",
"................................................................",
"................................................................",
"................................................................",
"................................................................",
"................................................................",
"................................................................",
"................................................................",
"................................................................",
"................................................................",
"................................................................",
"................................................................",
"................................................................",
"................................................................",
"................................................................",
"................................................................",
"................................................................",
"................................................................",
"................................................................",
"................................................................",
"................................................................",
"................................................................",
"................................................................",
"................................................................",
"...............................+.......@@@+#$...................",
"...............................%.....&&@**%=-;..................",
"...............................>+..,&''')+>@'#..................",
"..............................!~+=,{']^//%~#)(_.................",
"............................{',!*=^&:#*](::)!={<({..............",
".........................:!{'[[&)}!)}&=[|{!!'={()]{123..........",
".......................::]4[4=&)55))5)<=[[|'4'=!,''{1...........",
".....................//^:{|,)#66#_#_#65#<'[|[7=**{]'............",
"...............~...._^/(!^#))/)#!:!)!<#$_#_[[8=@]^(|............",
"................~3.:'{_}6$66),!=**,,')^)))//)8=@'{'4|...........",
"................}~396}$$(6/<:,**|4|*=]'={]&:]&([4|444|/.........",
".......7{(......!(}}_)//)/:,,{'[[[4'=]={*''==(__[447[!7{........",
"....7[.[[!(....!{]:(()!(:!,*{'0[aa4|*'@|@||@]:]]([4[[{[[////....",
"....[4[44'!(..:((]]!]{*'{''*'||aaa[@4|@|@4|@|]]:/][||[[[^(!.....",
"....[|4'{'!/^:(/^(^:{'|[4||@444@@@@@[[@4@4@{::^/:{[''||[!!^_//..",
".....4'{'|{:(]!^:^//!'4[@44@==,&&&&,==@[@|@](/((]'[||''[^///!{..",
".....4'|4||:(!{:(/^!{4[&&&))###666##)<&&&&@']:(!'|[[[||!{{{!!...",
"......[[[||]::::!!{{|4.....#######.........4|'{]'|bbbb[.........",
".......4|'||!!]]{{4.........................[4||'[b|[b4.........",
"........'|[[{{{'4.............................[4|b[[[4..........",
"........44[[0{0................................[[b[[[4..........",
".........[[[|{..................................|bbbb...........",
"................................................................",
"................................................................"};
