/* XPM */
static char * imp2_xpm[] = {
"64 64 40 1",
" 	c #980088",
".	c #774F2B",
"+	c #7F532F",
"@	c #9B633B",
"#	c #875733",
"$	c #8F5F37",
"%	c #B37347",
"&	c #6B4727",
"*	c #AB6F43",
"=	c #BF7B4B",
"-	c #A36B3F",
";	c #5F4323",
">	c #4B371B",
",	c #730000",
"'	c #FF1F1F",
")	c #533F1F",
"!	c #4F0000",
"~	c #8B8B8B",
"{	c #ABABAB",
"]	c #6B6B6B",
"^	c #838383",
"/	c #7F7F7F",
"(	c #777777",
"_	c #2B230F",
":	c #FFFFFF",
"<	c #B3B3B3",
"[	c #B7B7B7",
"}	c #9F9F9F",
"|	c #3F2F17",
"1	c #7F0000",
"2	c #DFDFDF",
"3	c #332B13",
"4	c #9B0000",
"5	c #CB7F4F",
"6	c #D78B5B",
"7	c #CBCBCB",
"8	c #BFBFBF",
"9	c #A7A7A7",
"0	c #636363",
"a	c #6F6F6F",
"                                                                ",
"                                                                ",
"                                                                ",
"                                                                ",
"                                                                ",
"                                                                ",
"                                                                ",
"                             .+@@+.                             ",
"                            .#$$$$#.                            ",
"                           .$######$.                           ",
"                           .%@+&&+@%$                           ",
"                          +*=%-##-%=*+                          ",
"                          #;>*@**@*>;#                          ",
"                          #&,';));',&#                          ",
"                           #&!>&&>!&#          ~                ",
"                           .#;&$$&;#.    {   ]^                 ",
"                /(    {  ..>#_^:<^_#)#+.&&.)^[]                 ",
"                 /}(  #$#.;|+_1__1_+|>;&+$$+2^                  ",
"                   }2+$-@&>3&)4444)&33>).+-@+)                  ",
"                    /.#@.)|3;_^:<^_;3|)&$@@$+&                  ",
"                    ;.+#$&>|>;5665;>3)+#$#&&&;>                 ",
"                   |3;&....>|>>||>>3>&++#.);)>|)                ",
"              {{78^>|||)&^[;>3>;;>3|&.^[.;|>|3|;29/             ",
"                000)>33|)|>))|____>;&&&|;>3__|>))               ",
"                >;&;>|_3||>))>||_|>);)>33___33|>)               ",
"                >;.&>|3_3|>))>|3__3||33||3_3|33|>;              ",
"                >)&;|33|3___3|3_3_3333|)>3 |>|333)              ",
"                >)>|3_ |>_|))>33>33>))>||3  >>|33>              ",
"               )&&)>3_  3|)>|3>>_>>|3>)33    3||3|;             ",
"               #@@#&|3   |>33))|_|))|_||3    ___3|>             ",
"              .+###+;>_   3___3|||>|3__3     __3|)>             ",
"              >;&&&&>___  _3|)&)3>&)|_33     __3|)|             ",
"               >>);;_|__  |33>>|3|>>3_3|     __3>)|             ",
"                  >)__|_| |3__33||>|33||     3_3)>>             ",
"                    >|_   3||>>>||)>||>>      _|>|              ",
"                          ||>;&)3>&)>|)>>     33||              ",
"                         )>>)))>3|)>|>)>>     ___|              ",
"                         );&&;)|||>||)>||>   >3_|               ",
"                         ;.++.;>3333|>|3|>  >>|>|               ",
"                        >&+$$+.;|33_||33|>  >|>|>               ",
"                        >&#@-#.)>___||3_|>) )>||                ",
"                        >&#@-#&>> __|33_|>;                     ",
"                        >&#$$#);> __|___3>;                     ",
"                        >;+#+&;&> _33___3>)                     ",
"                        >)&&&;.;> _3____3|                      ",
"                        |>))>&;)>  _____3|                      ",
"                         >|||))>>  _____3|                      ",
"                         >|33|>>   _____3                       ",
"                         |>;)|||   _____3                       ",
"                          ;<&;||   ___33|                       ",
"                          0~0)|3   3__03>;                      ",
"                           >>|3|   >3_a3|)                      ",
"                           |___|>  )3___|>                      ",
"                           |___||)  3___|                       ",
"                           >___33)  3__3|                       ",
"                            ____|)   333|                       ",
"                            333|))  |3_|||                      ",
"                             |||;   >>_>>>                      ",
"                             >>>;  >)> ))>                      ",
"                             );))  >}| >}>                      ",
"                            )&.;)>                              ",
"                            &.&;;)                              ",
"                           ..> ;..)                             ",
"                           <|| ><>)                             "};
