/* XPM */
static char * imp8_xpm[] = {
"64 64 44 1",
" 	c None",
".	c #980088",
"+	c #774F2B",
"@	c #7F532F",
"#	c #9B633B",
"$	c #875733",
"%	c #8F5F37",
"&	c #B37347",
"*	c #6B4727",
"=	c #AB6F43",
"-	c #BF7B4B",
";	c #A36B3F",
">	c #5F4323",
",	c #D70000",
"'	c #838383",
")	c #9B0000",
"!	c #4F0000",
"~	c #4B371B",
"{	c #9F9F9F",
"]	c #6B6B6B",
"^	c #7F7F7F",
"/	c #ABABAB",
"(	c #939393",
"_	c #B3B3B3",
":	c #2B230F",
"<	c #FFFFFF",
"[	c #777777",
"}	c #BFBFBF",
"|	c #7F0000",
"1	c #BF0000",
"2	c #3F2F17",
"3	c #533F1F",
"4	c #A7A7A7",
"5	c #670000",
"6	c #FF3F3F",
"7	c #332B13",
"8	c #CB7F4F",
"9	c #D78B5B",
"0	c #8B8B8B",
"a	c #3B3B3B",
"b	c #DFDFDF",
"c	c #D3D3D3",
"d	c #4F4F4F",
"e	c #6F6F6F",
"................................................................",
"................................................................",
"................................................................",
"................................................................",
"................................................................",
"................................................................",
"................................................................",
"................................................................",
"................................................................",
"..............................+@##@+............................",
".............................+$%%%%$+...........................",
"............................+%$$$$$$%+..........................",
"............................+%$$$$$$%+..........................",
"...........................@+&#@**@#&%@.........................",
"...........................@=-&;$$;&-=@.........................",
"...........................$>,$#==#$,>$........'................",
"............................$)!!**~!)$........{]................",
"............................+$>*%%*>$+$.....^/'.................",
"................(_........;=>$:'<_':$+$;#%$*['..................",
".................^(}...[.;%@~@:|:1|:@23*%#=;%[>.................",
"...................(4_%#=@*~2+:|56|:+723>@@=;%%.................",
"....................[[$%;=%*~*3))))3*2~>@==;#%@+................",
".....................+@$%##$~>:'<_':>7>@#;;%@+*>>...............",
".....................>+@+@$$3~>8998>~7@$$%%@*>~3>....0[.........",
".....................~>*3+@@*a~~22~~77@@@+*3~23>@+..{[..........",
"....................>2~37>++>27~33~772****3~23++*$*_[...........",
"...............+=#.@*3277~*}32:777777~>}>>372+#$+*+[............",
"...............@+-#+@*~7:2~7~277:::2~~273377~*$@+>>3............",
"............=@@+3$b3*@32::772777::777277~2:723*+*>3>............",
"...........@==3*~>33>*>2:::::::77277:::::77.72~333>*............",
"............$=$37~+3~>32:::72~3~272~3~27::...7~~3>*+............",
".............%b3:$&;:~~7:.:7~2~>2:2>>3~27:....23+$@+3...........",
"..............373cb&:227...77233272~3~27:....3%;#%@>~...........",
"..............27::::::7.....:::72~27::77:...@%;#$+>32...........",
"...............27:::::......723>37>*32:72.*#$$@+>~27:{..........",
"................27:::.......27~~272~~772~~*~~+$~7777............",
"..................77........3~222~222~2~2*~7+#322...............",
"............................~3>*>3*+*3~~277~+32.................",
"............................~3>*323*>3~2272>32..................",
"...........................2~33>33~3~~~33~2.....................",
"...........................2~3333~~22~>**>~3....................",
"...........................~3>>3~222~>@++*3~....................",
"..........................2~>**>~227>@#$@+>3....................",
"..........................2~>*+>~772+%;%$+>3....................",
".........................72~>**3277~@%#$@+>~....................",
".........................72~>*>~27.3+$%@+*3~....................",
".........................72~>>3277.3*@$+*>~~....................",
".........................72233~777.3>+@*>32~....................",
"..........................22~~2:::.~3>+*>~2.....................",
"..........................77777:::..~3>*327.....................",
"..........................7d{77:::..23+@+77.....................",
"...........................(~27::::.7~*b*72.....................",
"..........................^.7::::::.773_37......................",
"............................7::::::.772e27+.....................",
".............................7:::::.777777>.....................",
"..............................7:::7.777:723.....................",
"...............................:777.272:7~......................",
"..............................7~777..72:7.......................",
"..............................7~.77..2222.......................",
"..............................e~.e7..~~~~.......................",
".....................................3++*.......................",
"....................................3>>*+*......................",
"...................................2++>.~++.....................",
"...................................2~_~.22_*...................."};
