/* XPM */
static char * imp9_xpm[] = {
"64 64 47 1",
" 	c None",
".	c #980088",
"+	c #774F2B",
"@	c #7F532F",
"#	c #9B633B",
"$	c #875733",
"%	c #8F5F37",
"&	c #B37347",
"*	c #6B4727",
"=	c #AB6F43",
"-	c #BF7B4B",
";	c #A36B3F",
">	c #B3B3B3",
",	c #5F4323",
"'	c #4B371B",
")	c #9F9F9F",
"!	c #CBCBCB",
"~	c #730000",
"{	c #FF1F1F",
"]	c #332B13",
"^	c #3F2F17",
"/	c #7F7F7F",
"(	c #4F0000",
"_	c #8B8B8B",
":	c #979797",
"<	c #C7C7C7",
"[	c #2B230F",
"}	c #838383",
"|	c #FFFFFF",
"1	c #533F1F",
"2	c #7F0000",
"3	c #BF0000",
"4	c #BFBFBF",
"5	c #670000",
"6	c #FF3F3F",
"7	c #DFDFDF",
"8	c #9B0000",
"9	c #6F6F6F",
"0	c #CB7F4F",
"a	c #D78B5B",
"b	c #A7A7A7",
"c	c #B7B7B7",
"d	c #DBDBDB",
"e	c #636363",
"f	c #4F4F4F",
"g	c #939393",
"h	c #777777",
"................................................................",
"................................................................",
"................................................................",
"................................................................",
"................................................................",
"................................................................",
"................................................................",
"................................................................",
"................................................................",
"................................+@##@+..........................",
"...............................+$%%%%$+.........................",
"..............................+%$$$$$$%+........................",
"..............................+&#@**@#&%........................",
".............................@=-&;$$;&-=@.......................",
".....................>.......$,'$#==#$',$.......................",
".....................)!......$*~{]^']{~*$.......................",
"...................../)!......$*('**'(*$........................",
"......................_>).,%%*+$,*%%*,$+........................",
"....................../:<%%@+']$[}|>}[$1.....>).................",
".....................+%%%%+,##[@[2[32[@1+..4!)..................",
"....................+$;%@+,'=-[+[2562[+[%#47)...................",
"....................,+@$--*,=-,+188{81*]$%$+....................",
"....................,,++;-';@<1+[}|>}[,'@$@+....................",
".....................,11;-^+]9'$,0aa0,'^+@+,....................",
"...................bc*,,@<]][[]^$%^^'']^,*,.....................",
"....................$%#$'9[[[^1']1#;<}]''1,.....................",
"...................+@$%+,]]^[[]]]*1']]][^,**dc..................",
"...................+@@+1']^[^^1'^]]]]]^['+@*1...................",
"...................++*1'^][^1<+$,]'^^^[[1@%+,...................",
"...................c'1^^[[[^']*+,]11<][]'+$*1...................",
".................e}e'][[[[[]^]11'^^'][[]^1,11...................",
".......................[[[^1^]^']]'^^.[]^^'1'...................",
".......................[[^1']^'*],^]...]^^**,...................",
".......................][^'][]^^]^]....]^1$@*...................",
"......................]]][[[^1'[1'[.....]'+++,..................",
"......................]^^]]^^'^['^^.....]^1,**..................",
".....................]^^^^^]]]]'^''......]'1,*1.................",
".....................^^''^^^^^]^''11......^1+$+'................",
"....................^^'11^]^1[^'11''.......'*'+^'...............",
"....................^'1,1^]]'1'1,,1'.......^*]*['...............",
"....................'1,,1^]]^'1,*+,1'......^1@['[...............",
"...................'1**,1^]^'1,*+++,1......^[['[................",
"...................',*+,']^^^,*@$%@+,........[[.................",
"..................]1,**1^]^[]*@%;#$+*...........................",
"..................]',*,']^]..+$#=#%+*...........................",
"..................]^1,1^]^]..+%#;#%+,...........................",
".................^^]'1^]^]...*$%#%$*1...........................",
".................^'^^^]]]]...,@$%$@,'...........................",
".................^]11^][[....'+@$@*1^...........................",
"..................]f)]][[....^,+@*1^1...........................",
"..................]g'^][[,...^1,*'^^............................",
"...................][[[[[1...^,@$*^]............................",
"...................][[[[['...'*+<$1^............................",
"....................][[[[^...,'1]*^.............................",
"....................^][[[]...1]1]1].............................",
".....................^^]]^...'[[[]'.............................",
".....................^'^]^...^[[[['.............................",
".....................^'^]^...][[[[..............................",
".....................^'^]^...][[[[..............................",
".....................^'.]^...]^^^]..............................",
".....................h^.h^...'11111.............................",
".............................1,,*+**............................",
"............................1++,.'++*...........................",
"............................1'>'.^^>*..........................."};
