/* XPM */
static char * imp10_xpm[] = {
"64 64 35 1",
" 	c None",
".	c #980088",
"+	c #9B633B",
"@	c #A36B3F",
"#	c #B37347",
"$	c #8F5F37",
"%	c #AB6F43",
"&	c #BF7B4B",
"*	c #5F4323",
"=	c #6B4727",
"-	c #875733",
";	c #774F2B",
">	c #533F1F",
",	c #E30000",
"'	c #7F532F",
")	c #838383",
"!	c #939393",
"~	c #9F9F9F",
"{	c #6F6F6F",
"]	c #979797",
"^	c #ABABAB",
"/	c #636363",
"(	c #A7A7A7",
"_	c #B7B7B7",
":	c #7F7F7F",
"<	c #4B371B",
"[	c #6B6B6B",
"}	c #D3D3D3",
"|	c #3F2F17",
"1	c #332B13",
"2	c #CBCBCB",
"3	c #2B230F",
"4	c #DFDFDF",
"5	c #DBDBDB",
"6	c #B3B3B3",
"................................................................",
"................................................................",
"................................................................",
"................................................................",
"................................................................",
"................................................................",
"................................................................",
"................................................................",
"................................................................",
"...................................+@#@$........................",
"..................................%&&&&@$.......................",
".................................+*=-==;$-......................",
"................................+;+&$>,>;*......................",
"................................$+%%%=>;**......................",
"................................$$$$$-;=**......................",
"................................;=;=;';=*...)...................",
"................................=;$;=;=*>...!...................",
"................................;-$;*=*>...)~...................",
".....................{]........@;$-='+%@+..!^...................",
"....................../().@@+@##;;;$+%&&%@{~_%..................",
".......................{_@#+@###';+%%@@%%@'{:;-.................",
"........................@#@$$@@$=-%@+$$$$+$-'=;-................",
"........................$$'''$$;>$+$$-'''';===*=................",
"........................''=;~/;><+$-([;=*>****==................",
".....................~^}-=<***>><=-;;;=*<||>=-;)~().............",
"........................=><|||||<<<>><<<|11*-+-~2]..............",
".......................=;=<<;*<|<>***<||133*-$-;=...............",
".......................;';||*<<11<=*>+%;131>=;;=*...............",
".......................*;=3|<<1331<>+&;'131|>==*>...............",
".......................<*>1||13333|<4->;'';**=><................",
".......................||11|1333311|>*<=>%%$'*=|................",
"......................-1331<|1111|||;<1>-%+++'>.................",
"..........:]*;-;.....-;|133>|<<|||3@#-3>4$=>>*<.................",
"..............*;-;=*-;*|133>|>><||3#4}>1><111||.................",
"...............>=''=**<|13.<|>*><|333331|||||...................",
"...............33>=<><33...*<>=*>|13331|<1......................",
"..............<131><13....='*|>=*<<|31<>><......................",
".............>33.31|......'-=<|<<<|31<=;=<......................",
".............=3..13......='$;>|||131<*;-'><.....................",
"............]...13.......=-$;*|3333<*='$-*<.....................",
"...............].........=$-=>|3331<*=-+-*|.....................",
".........................=$;*>|333|<*;$+'*1.....................",
"........................=;$;*><3|.<<*'+$;*1.....................",
"........................=;$-=*<31.<<*-+-=*1.....................",
"........................=;-$;*<31.><*;-;**1.....................",
"........................<==-'>|31.><*=;*>=|.....................",
"........................|<*='<13..*><**>*;|.....................",
"........................||<>>|13..**|<>*;=......................",
"........................||1||133<.>=<1|>=>......................",
".........................5||<<13|.<<111|>1......................",
"..........................1<>>|3|.|1|>|31.......................",
"..........................1|<<|3|.11>*>3|.......................",
"...........................11113|.11*5*|........................",
"............................3333|>||>4||........................",
"............................3333|*<|11||........................",
"...........................1||33|*>|111<........................",
"..........................||<<|3|>>|111.........................",
".........................||<<<<3|.<<<|1.........................",
"........................|||><><||.>=*<..........................",
"........................6|.<6<|...*;=>..........................",
".................................<*;;=>.........................",
".................................>**=;==........................",
"................................>;;*.<;;=.......................",
"................................><6<.||6=......................."};
