/* XPM */
static char * imp11_xpm[] = {
"64 64 49 1",
" 	c None",
".	c #980088",
"+	c #CB0000",
"@	c #A70000",
"#	c #774F2B",
"$	c #7F0000",
"%	c #533F1F",
"&	c #9B633B",
"*	c #7F532F",
"=	c #4F0000",
"-	c #5B0000",
";	c #8F5F37",
">	c #875733",
",	c #B37347",
"'	c #6B4727",
")	c #4B371B",
"!	c #3F2F17",
"~	c #A36B3F",
"{	c #838383",
"]	c #B3B3B3",
"^	c #FFFFFF",
"/	c #ABABAB",
"(	c #7F7F7F",
"_	c #6B6B6B",
":	c #2B230F",
"<	c #636363",
"[	c #5F4323",
"}	c #777777",
"|	c #939393",
"1	c #DFDFDF",
"2	c #9F9F9F",
"3	c #332B13",
"4	c #6F6F6F",
"5	c #B7B7B7",
"6	c #A7A7A7",
"7	c #CBCBCB",
"8	c #979797",
"9	c #430000",
"0	c #670000",
"a	c #8B0000",
"b	c #BF0000",
"c	c #730000",
"d	c #AB6F43",
"e	c #BF7B4B",
"f	c #D3D3D3",
"g	c #575757",
"h	c #DBDBDB",
"i	c #BFBFBF",
"j	c #8B8B8B",
"................................................................",
"................................................................",
"...............................+................................",
"................................................................",
"..............................+..+..............................",
"................................+...............................",
"...............................+@...............................",
"..............................######............................",
".............................#$%&&*##...........................",
"............................#$=-;;;>##..........................",
"............................#$-%>>>>;#..........................",
"............................#,;'';,#&#..........................",
"............................#)!&&!%'##..........................",
"............................#%)'')%>##..........................",
"............................>#';;'&;##..........................",
"............................~%{]^{%~>#..........................",
"................../(......;#>)_::_:>>#..........................",
"...................(/<.*;;[[[[)]^{[*#%>....}|...................",
"....................}1(*>[[%!%'''#*#[%>>#&&{2...................",
".....................}';*>>'%3[';*#[!!)[**}|/...................",
".....................''*&;*>*%33333333)['&425...................",
".....................%%'>**##*%3333!)['*;;*4([..................",
".....................!)!**#''##))%###*>>;;;>*'%.................",
"................/(('%%33%[[[%[[)%[''''''>*#'[%%.................",
"..................]1%)3::!54))[)%%[[%%%[['[%%[''................",
"..................'%)!3:::!)))%)%[%[54))%%)%'*>#{26{_...........",
"..................%)!3:::::3)%!3!%[)))))%)3[*>;#278.............",
"..................%!33::!::33!3)!3!333333!:[#*>*#'..............",
".................)!33:::.3!)%[39!!)%[%)!3:3%'#*#'[..............",
"................:!3333:!..)%):90093)%[%)!:3!%'#'[%..............",
"................::::::!...!%:90ab093)%[[)!)['#*#'[).............",
"...............%~,:::3)....3:9ac--933)%[)[#>;;&>'[).............",
"............&1%#,1:::3.....%%3c'#d~&;>*##*;&&;>#[%'.............",
"...........&e>[)>f::3......%*))>%,&;>*#''#*>*#'[%'>.............",
"...........d#%)3:%:3.......!%*))#';;#'[%['##'[%['>'.............",
"...........#*#'%%3.........)!'[#)%#'[)3::3!)%)%%['..............",
".............*%>1.........[[)!'%!![%)3!)%)%.....14..............",
".............*dd;.........*[%!)%)%!:))%[[)%......]g.............",
".............dd>.........**'%!!%)))))%['#%%.......}.............",
".........................*;')!!!3!!)%[#**'%%....................",
"........................'>;')!:::3!%['*&>'[%....................",
"........................';>[)!::::!%['>&;#[%....................",
"........................';#[)!:::.!%['>d;*[)....................",
"........................#;#[%):!..!%%'*d;*%)....................",
".......................'#>*'[):3..))%'#>*#%)....................",
".......................'##;#[):3...!)%''#'!.....................",
".......................!'[#*%!:3...3!)%[%%!.....................",
".......................!)%[')3:3...333!!!3!.....................",
"........................!)%%!3:!3..3%!333!).....................",
"........................!3!!3:!)!..3)!%[%33.....................",
"........................h!!))3%)):.3!!'i*:......................",
"..........................!!3!))!!:3!![j#!......................",
"...........................!!333!!:'!)))!>......................",
".............................!::!!![!)%%!'......................",
"..............................::::!%!)[%!%......................",
".............................3!!::!)!)[%!)......................",
"............................!!))!:!!!)'%!.......................",
"...........................!!)))):.3!)'%!.......................",
"...........................]!%)%)...3)'%........................",
".............................)])....!%[%........................",
"....................................%[#'%.......................",
"...................................%[['#'.......................",
"..................................%##[.)##'.....................",
"..................................%)]).!!]'....................."};
