/* XPM */
static char * imp12_xpm[] = {
"64 64 52 1",
" 	c None",
".	c #980088",
"+	c #CB0000",
"@	c #5F4323",
"#	c #A70000",
"$	c #A36B3F",
"%	c #7F0000",
"&	c #8F5F37",
"*	c #9B0000",
"=	c #670000",
"-	c #BF0000",
";	c #875733",
">	c #6B4727",
",	c #774F2B",
"'	c #9B633B",
")	c #533F1F",
"!	c #E30000",
"~	c #AB6F43",
"{	c #8B0000",
"]	c #777777",
"^	c #7F532F",
"/	c #838383",
"(	c #939393",
"_	c #9F9F9F",
":	c #6F6F6F",
"<	c #979797",
"[	c #ABABAB",
"}	c #636363",
"|	c #A7A7A7",
"1	c #B37347",
"2	c #BF7B4B",
"3	c #B7B7B7",
"4	c #7F7F7F",
"5	c #4B371B",
"6	c #6B6B6B",
"7	c #D3D3D3",
"8	c #3F2F17",
"9	c #332B13",
"0	c #CBCBCB",
"a	c #2B230F",
"b	c #000000",
"c	c #B30000",
"d	c #DFDFDF",
"e	c #FF3F3F",
"f	c #FF5F5F",
"g	c #4F0000",
"h	c #D70000",
"i	c #5B0000",
"j	c #430000",
"k	c #730000",
"l	c #DBDBDB",
"m	c #B3B3B3",
"................................................................",
"................................................................",
"..................................+.............................",
"................................+...............................",
"..............................@..@+.............................",
"................................+..+............................",
".............................@.+@#$%$&..........................",
"..............................@*+=+--$&.........................",
"..............................#.=+;>=,&;........................",
"..............................',*-&)!),@........................",
"..............................&*~~#>),@@........................",
"............................#.&{&&&;,=@@..].....................",
"..............................,,=@,^,>@@../.....................",
"..............................,,{@@,>@)..](.....................",
"..............................,;&,@>@)>../_.....................",
"...................:<........$,&;^@>)@..]([.....................",
"....................}|/.'''$~1,&;&'22122:_3~....................",
".....................:3'1'$111^;'$$$$~~1^:4@;...................",
"......................'1'&&$$&>;~'&&&&&'&;^>);..................",
"......................,;>^^&&,)&'&;^^^^^,>@))>..................",
"......................>>>,_},)5'&;|6,>@)@))@>>..................",
"..................._[7;>5@@@))5>;,,,>@585)>^,/_|/...............",
"......................>)588888555))555899@^;,_0<................",
".....................>,>58,@585)@588899aa@,^^,>.................",
".....................,^,88@559+)>8)'~,9a9)>,,>@.................",
".....................@,>a85+9aab)c'2,^aa98)>>@).................",
".....................5@)988a){c{b)d;),^^~@@>)5..................",
".....................888989+{b{c={)@5>)~~^;@>8..................",
"....................>89955%abef*gg,59);~;&';)...................",
"........4<@,;,.....^>8899)8bh{ie*$1;a)d&>))@5...................",
"............@,;,>@^,)558a)a8=jj{%1d7)9)599988...................",
".............)>^^>@)589a.5888iik{jbba988888.....................",
".............aa)>5)5aa...@58>>)8aaaa9859........................",
"............59a9)59a....>^@85>)55aa9@>)5........................",
"...........)aa.a98......^^>885)58a9)>,>5........................",
"...........>a..9a......>^&>88859a95@,;^)5.......................",
"..........<...9a.......>;&>88aaaa9@@^&;)5.......................",
".............<.........>&;@58aaa95@@,';)8.......................",
".......................>&,@58aaa85)>^'^)9.......................",
"......................>,&,@)5a8.a5),&;,59.......................",
"......................>,;^>@5a9.885,'^>59.......................",
"......................>,,&,@5a9.595>;,@)9.......................",
"......................8>@,^)8a9.)88@>@)>8.......................",
"......................85)@>59a..)55)@)@>8.......................",
"......................885))89a..))88)@>)........................",
"......................889889aa5.))8995)5........................",
".......................l88559a8.589aa859........................",
"........................95))8a8.895)5a9.........................",
"........................98558a8.99@@@a8.........................",
".........................9999a8.99@l@8..........................",
"..........................aaaa8)88)d88..........................",
"..........................aaaa8@589988..........................",
".........................988aa8@)89995..........................",
"........................88558a8))8999...........................",
".......................885555a8.55589...........................",
"......................888)5)588.)>@5............................",
"......................m8.5m58...@,>)............................",
"...............................5@,,>)...........................",
"...............................)@@>,>>..........................",
"..............................),,@.5,,>.........................",
"..............................)5m5.88m>.........................",
"................................................................",
"................................................................",
"................................................................"};
