/* XPM */
static char * imp13_xpm[] = {
"64 64 44 1",
" 	c None",
".	c #980088",
"+	c #7F0000",
"@	c #A70000",
"#	c #B30000",
"$	c #8B0000",
"%	c #A36B3F",
"&	c #8F5F37",
"*	c #BF0000",
"=	c #BF7B4B",
"-	c #5B0000",
";	c #6B4727",
">	c #2B230F",
",	c #875733",
"'	c #730000",
")	c #9B0000",
"!	c #5F4323",
"~	c #3F2F17",
"{	c #774F2B",
"]	c #AB6F43",
"^	c #533F1F",
"/	c #DBDBDB",
"(	c #CBCBCB",
"_	c #A7A7A7",
":	c #7F532F",
"<	c #4B371B",
"[	c #979797",
"}	c #6F6F6F",
"|	c #9B633B",
"1	c #C7C7C7",
"2	c #670000",
"3	c #332B13",
"4	c #B3B3B3",
"5	c #7F7F7F",
"6	c #838383",
"7	c #777777",
"8	c #CB0000",
"9	c #430000",
"0	c #CB7F4F",
"a	c #D78B5B",
"b	c #4F0000",
"c	c #1F170B",
"d	c #43331B",
"e	c #ABABAB",
"................................................................",
"................................................................",
"................................................................",
"..................................+.............................",
"................................@...............................",
"................................................................",
"...............................@...+............................",
".................................+..............................",
"................................................................",
"..................................+.............................",
".................................@#.+...........................",
"...............................#..+$%@#%&.......................",
"..................................++*==*%&......................",
"..................................--;$>>;&,.....................",
".................................'')*&!>~{!.....................",
"...............................#.')]]@;^{!!.../.................",
".............................#...--!-!';!^!..(_.................",
"..........................(....#.-!!'!;-^!!.__..................",
".........................._(,,_#'%%%:&>=]<!{:&..................",
".........................,&,,:#[%#&,]]!=]!;==,..................",
"........................::;;:&}@':,|%%^1:%<=%{:.................",
".......................,:;!^{{@'#2;,%,<}3{~=%^,{................",
"......................:||,!3!!+@2'<&,~3>>331:!!!45..............",
".....................:||,{!3<@+61%|^3<^~>>>}<,:!7...............",
"....................&&|,{!<.<!8#8<^;333>>>33!{:;................",
"....................:]|!!<..!8$9=2$#=^333>>3<^3<................",
"....................,]|{<...<$$&#2!{;,~~3333333.................",
"....................|0|,!...~2{!2<%<<3~333333...................",
"...................|a0,%0<.!!32b<%,;33~333......................",
"..................:|0{!,%<{;;;!!!!<~~~333.......................",
"..................:,|!~.1^{,{{!!!!!<<<333.......................",
"..................:,{1<{,{,{;^^!!^<!;!<<>.......................",
"..................1...,&:{{;^^<^^<!;{{{!^c......................",
"....................{{,:{{;^^<d<<~;:,&&&!^~.....................",
"...................{{&:{;!^<<^d>~~^;:&&&,!~.....................",
"..................{{,:&{!^<<~^3>33^;{:&%%{^e....................",
".................{{,&&:;^<<~^d...~~^;::]]]e[....................",
".................{&&%&:^<<~3!.....~~{;!,|e[.....................",
"................;,,%&:^<<~>d.......3;<^{&&,!....................",
"................{::{^<<~>>..........<<^!{{!<....................",
"...............;&&,^~3>>>...........<,^!{{^<....................",
"..............[e[{{;<3cc............d:!;:{^<....................",
"...............^;;{;^cc.............~:{;{{^<....................",
"...............!;;{;{c...............^{;{;^^....................",
"...............!!!^;{>...............<{;{&&::...................",
"...............<!^^!;d................!&&:!4>...................",
"...............^!!^^!~................^::^>>>.>4................",
"...............^;!^^~d................<{<>>>>>>>................",
"...............!;!^^d.................!!~>>>>c>.................",
"...............;{!^<d.................;~>>>c>c..................",
"...............;{!^<d.................<>>>>cc...................",
"...............;^!^d..................c>>>>c....................",
"...............<<^^d...................cccc.....................",
"..............<<~<^d............................................",
"............~<<<<<dd............................................",
"..........~~~^<^<<<<............................................",
"..........4~3<4<~>><............................................",
"................................................................",
"................................................................",
"................................................................",
"................................................................",
"................................................................",
"................................................................",
"................................................................"};
