/* XPM */
static char * imp14_xpm[] = {
"64 64 39 1",
" 	c None",
".	c #980088",
"+	c #7F0000",
"@	c #CB0000",
"#	c #8B0000",
"$	c #875733",
"%	c #5B0000",
"&	c #430000",
"*	c #3F2F17",
"=	c #A70000",
"-	c #774F2B",
";	c #4B371B",
">	c #4F0000",
",	c #5F4323",
"'	c #670000",
")	c #6B4727",
"!	c #979797",
"~	c #939393",
"{	c #8F5F37",
"]	c #A36B3F",
"^	c #D3D3D3",
"/	c #AB6F43",
"(	c #BF7B4B",
"_	c #B3B3B3",
":	c #9B633B",
"<	c #7F532F",
"[	c #533F1F",
"}	c #BF0000",
"|	c #730000",
"1	c #332B13",
"2	c #000000",
"3	c #B37347",
"4	c #2B230F",
"5	c #D78B5B",
"6	c #9B0000",
"7	c #CB7F4F",
"8	c #43331B",
"9	c #A7A7A7",
"0	c #1F170B",
"................................................................",
"................................................................",
"................................................................",
"................................................................",
"................................................................",
"................................................................",
"................................................................",
"................................................................",
"................................................................",
"................................................................",
"...............................+................................",
"................................................................",
"................................................................",
"................................+...............................",
"...............................+................................",
"..............................@..@..............................",
"................................+...............................",
"..................................@.............................",
"...............................+@...............................",
"...............................@+#$#$%..........................",
"...............................+&*%=#-%.........................",
"...............................&&;>;,').........................",
"..............................*&*';&;%',........................",
"..............................*&*,,;*>%,........................",
".............................!*;,'*;*~%,........................",
".........................-${]^=/)+//(_/:{$$.....................",
"........................-<,{{{{,;'-///:{$$---..!................",
"......................!!,[[,,,};;'|[))))-,,-<$!.................",
"........................[;;,*1=22>|1;;;;*[,{3/<.................",
".......................$:[**1#|}|>|2;,;14*[[{3$<................",
".......................${,*1;(5||>622;,;11**[)${{...............",
".......................[[1[|=+>,|,3=21[;**44*):]<...............",
"......................[[14[#|1&%|;-6%4;**..);-]/$...............",
"......................[144*%|&%$|->|%&4*....,$:7:...............",
".....................;,444&>&&])#]''%&4*....7]$75:..............",
".....................,;,))'&%4%=)>>%$$[8)...]$,-7:<.............",
"....................[${]]]{)[%,)'++|6{]<)...$..,:$<.............",
"...................-{]]]:{$+,[>'-|||<6]]<)..9...^$<.............",
"..................-$]]:{$<<),>;)'))'),{]]<).......).............",
"................{]$]{$$<--,[[&*>,,,[,,)${{-[......^.............",
".............../33]{$<<-,,[;;11[[[[[[[))-{]--...................",
"............../33{$<<-,[[[;**11111;;[[)-)<---...................",
"..............{{{$--,[[;;**110...111**))<--<<-.<!...............",
"..............<<)),[[;;*1111.......111[;-<<<:<,*4...............",
".............)--<,;114444.............;[)<<-<,*44.4!............",
".............-<-,[;1444................;,),-,[444444............",
".....!<<<...)<<<[;**1...................;[[,[*444444............",
".....44[)<<)-<<[,*8......................8;;*444444.............",
"......444)-<--),[*).......................;;*44444..............",
".....4.444[-),,[8)........................8;400000..............",
".....44444*,)-;8...........................;44141...............",
"......4044*;--,;...........................*44440...............",
".......0404*;-).............................0000................",
"........14444;,.................................................",
".........0444**.................................................",
"..........000*..................................................",
"................................................................",
"................................................................",
"................................................................",
"................................................................",
"................................................................",
"................................................................",
"................................................................",
"................................................................"};
