/* XPM */
static char * light1_xpm[] = {
"64 64 29 1",
" 	c None",
".	c #980088",
"+	c #474747",
"@	c #5E5E5E",
"#	c #6D6D6D",
"$	c #002F00",
"%	c #004700",
"&	c #005200",
"*	c #005E00",
"=	c #003B00",
"-	c #006900",
";	c #007900",
">	c #009000",
",	c #00A700",
"'	c #008500",
")	c #009C00",
"!	c #00CA00",
"~	c #00BF00",
"{	c #008800",
"]	c #00DA00",
"^	c #62DA5E",
"/	c #9CDA98",
"(	c #B7DAB7",
"_	c #DADA98",
":	c #DADADA",
"<	c #DADA37",
"[	c #DADA7D",
"}	c #797979",
"|	c #888888",
"...............................+.+..............................",
"...............................@#@..............................",
"...............................$%$..............................",
"............................%&***&&%=...........................",
"..........................%-;>,,>;;-*%=.........................",
".........................%')!!!!~,{;-*%=........................",
"........................%>,~]]]]~~,>'-*%=.......................",
".......................%'~]^/(_:<[_(/^]~;%......................",
".......................*;!^^^/(___(/^^^!;*......................",
".........................;,~]^^^^^^^]~,;........................",
"................................................................",
"................................................................",
"................................................................",
"................................................................",
"................................................................",
"................................................................",
".............................=====..............................",
"...........................=========............................",
"............................=======.............................",
".............................=====..............................",
".............................=====..............................",
".............................=====..............................",
".............................=====..............................",
".............................=====..............................",
".............................=====..............................",
".........................============...........................",
"........................==============..........................",
".........................============...........................",
".........................====...====............................",
"..........................==.....==.............................",
"................................................................",
"................................................................",
"................................................................",
"................................................................",
"................................................................",
"................................................................",
"................................................................",
"................................................................",
"................................................................",
"................................................................",
"................................................................",
"................................................................",
"................................................................",
"................................................................",
"................................................................",
"................................................................",
"................................................................",
"................................................................",
"................................................................",
"................................................................",
"................................................................",
"................................................................",
"................................................................",
"................................................................",
"................................................................",
"................................................................",
"................................................................",
"................................................................",
"................................................................",
".......@@@@@@@@@@@@@@@@@@@@@@@@@@@@@@@@@@@@@@@@@@@@@@@@@@.......",
"...@@@@##################################################@@@....",
".@@@#####}}}}}}}}}}}}}}}}}}}}}}}}}}}}}}}}}}}}}}}}}}}}}}}###@@@@.",
".@@####}}}}|||||||||||||||||||||||||||||||||||||||||||}}}}###@@.",
"...@@######################################################@@..."};
