/* XPM */
static char * skeleton2_xpm[] = {
"64 64 18 1",
" 	c None",
".	c #980088",
"+	c #878787",
"@	c #696969",
"#	c #4C4C4C",
"$	c #555555",
"%	c #929292",
"&	c #383838",
"*	c #727272",
"=	c #616161",
"-	c #7E7E7E",
";	c #404040",
">	c #9E9E9E",
",	c #232323",
"'	c #2F2F2F",
")	c #0F0F0F",
"!	c #1A1A1A",
"~	c #060606",
"................................................................",
"................................................................",
"................................................................",
"................................................................",
"................................................................",
"................................................................",
"................................................................",
"................................................................",
"................................................................",
"................................................................",
"................................................................",
"................................................................",
"................................................................",
"................................................................",
"................................................................",
"................................................................",
"................................................................",
"................................................................",
"................................................................",
"................................................................",
"................................................................",
"................................................................",
"................................................................",
"................................................................",
"................................................................",
"................................................................",
"................................................................",
"................................................................",
"................................................................",
"................................................................",
"................................................................",
"................................................................",
"................................................................",
"................................................................",
"................................................................",
"................................................................",
"................................................................",
"................................................................",
"................................................................",
"................................................................",
"................................................................",
"................................................................",
"................................................................",
"................................................................",
"................................................................",
"................................................................",
"................................................................",
"................................................................",
"................................................................",
"................................................................",
"................................................................",
".......................+........................................",
".......................++.......................................",
"...................@@..@++......................................",
"...................++..@++++..++#@..............................",
"................$@%++@.&@@*%&$+++++*=$.........#--#.............",
".............-$++%*@@$..;%$*%@%*=%%%%%*=$......---#%............",
"............-%+-@@$.....%%+@++>;>*=-+++=>>>-@@.@%%%$............",
"............-%%%%%%%%%%%**+#@+*;>;+$#+@;>,;>>>@%@$..............",
"............-*$$$$$$$$$$###==@$'@'@'->#>@))>>>+.................",
"........................'',,,!&~$~$!@-#>))$----.................",
"....................+.+.....',!~;~;~#=,=-))$--=.................",
"...................$@++.%....;#$**++;;,)#))$$;'.................",
"....................$$@+%%%%%%%%%>>@@@$'))))),.................."};
