/* XPM */
static char * sold3_xpm[] = {
"64 64 100 2",
"  	c None",
". 	c #980088",
"+ 	c #7B7F63",
"@ 	c #9F876F",
"# 	c #6F7357",
"$ 	c #3F832F",
"% 	c #37732B",
"& 	c #439337",
"* 	c #2F6323",
"= 	c #27531B",
"- 	c #BF7B4B",
"; 	c #FFBB93",
"> 	c #FFC7A7",
", 	c #F7AB7B",
"' 	c #CF8353",
") 	c #EFA373",
"! 	c #DF9363",
"~ 	c #E30000",
"{ 	c #FF7B7B",
"] 	c #E79B6B",
"^ 	c #B37347",
"/ 	c #FFBF9B",
"( 	c #FFB383",
"_ 	c #774F2B",
": 	c #A36B3F",
"< 	c #C39B2F",
"[ 	c #D78B5B",
"} 	c #8F5F37",
"| 	c #AF7B1F",
"1 	c #474747",
"2 	c #5F0707",
"3 	c #9B633B",
"4 	c #434343",
"5 	c #D75F0B",
"6 	c #9B3333",
"7 	c #7F1B1B",
"8 	c #874307",
"9 	c #232323",
"0 	c #4F4F4F",
"a 	c #777777",
"b 	c #A78F77",
"c 	c #9F8363",
"d 	c #6F5743",
"e 	c #2F2F2F",
"f 	c #F37317",
"g 	c #AF977F",
"h 	c #B79F87",
"i 	c #BFA78F",
"j 	c #836B4B",
"k 	c #5F4B37",
"l 	c #43331B",
"m 	c #3B3B3B",
"n 	c #373737",
"o 	c #272727",
"p 	c #836B57",
"q 	c #332B13",
"r 	c #1F170B",
"s 	c #8B2323",
"t 	c #775F4B",
"u 	c #831F1F",
"v 	c #4B371B",
"w 	c #2B230F",
"x 	c #8F2B2B",
"y 	c #AF4747",
"z 	c #67533F",
"A 	c #9B7F6B",
"B 	c #533F2F",
"C 	c #BF5B5B",
"D 	c #8B735B",
"E 	c #937B63",
"F 	c #5F4323",
"G 	c #8F7753",
"H 	c #6B4727",
"I 	c #6B0F0F",
"J 	c #CB7F4F",
"K 	c #7F532F",
"L 	c #670B0B",
"M 	c #575757",
"N 	c #A33B3B",
"O 	c #972F2F",
"P 	c #533F1F",
"Q 	c #6B6B6B",
"R 	c #7F7F7F",
"S 	c #5B6347",
"T 	c #6F6F6F",
"U 	c #771717",
"V 	c #474F33",
"W 	c #5B5B5B",
"X 	c #CB6B6B",
"Y 	c #3F472B",
"Z 	c #373F27",
"` 	c #B34F4F",
" .	c #53573B",
"..	c #3F2F17",
"+.	c #731313",
"@.	c #5B0707",
"#.	c #A73F3F",
"$.	c #676B4F",
"%.	c #170F07",
"&.	c #FF00FF",
". . . . . . . . . . . . . . . . . . . . . . . . . . . . . . . . . . . . . . . . . . . . . . . . . . . . . . . . . . . . . . . . ",
". . . . . . . . . . . . . . . . . . . . . . . . . . . . . . . . . . . . . . . . . . . . . . . . . . . . . . . . . . . . . . . . ",
". . . . . . . . . . . . . . . . . . . . . . . . . . . . . . . . . . . . . . . . . . . . . . . . . . . . . . . . . . . . . . . . ",
". . . . . . . . . . . . . . . . . . . . . . . . . . . . . . . . . . . . . . . . . . . . . . . . . . . . . . . . . . . . . . . . ",
". . . . . . . . . . . . . . . . . . . . . . . . . . . . . . . . . . . . . . . . . . . . . . . . . . . . . . . . . . . . . . . . ",
". . . . . . . . . . . . . . . . . . . . . . . . . . . . . . . . . . . . . . . . . . . . . . . . . . . . . . . . . . . . . . . . ",
". . . . . . . . . . . . . . . . . . . . . . . . . . . . . . . . . . . . . . . . . . . . . . . . . . . . . . . . . . . . . . . . ",
". . . . . . . . . . . . . . . . . . . . . . . . . . . . . . . . . . . . . . . . . . . . . . . . . . . . . . . . . . . . . . . . ",
". . . . . . . . . . . . . . . . . . . . . . . . . . . . . . . . . . . . . . . . . . . . . . . . . . . . . . . . . . . . . . . . ",
". . . . . . . . . . . . . . . . . . . . . . . . . . + @ @ @ + # # . . . . . . . . . . . . . . . . . . . . . . . . . . . . . . . ",
". . . . . . . . . . . . . . . . . . . . . . . . . . $ $ % $ & % * * = . . . . . . . . . . . . . . . . . . . . . . . . . . . . . ",
". . . . . . . . . . . . . . . . . . . . . . . . . . - ; > > , ' - = = . . . . . . . . . . . . . . . . . . . . . . . . . . . . . ",
". . . . . . . . . . . . . . . . . . . . . . . . . - ' , ; , ; ) - * = . . . . . . . . . . . . . . . . . . . . . . . . . . . . . ",
". . . . . . . . . . . . . . . . . . . . . . . . . = ! ' > ! ; % - $ ' . . . . . . . . . . . . . . . . . . . . . . . . . . . . . ",
". . . . . . . . . . . . . . . . . . . . . . . . . . ~ = - = ~ { ] ^ ^ . . . . . . . . . . . . . . . . . . . . . . . . . . . . . ",
". . . . . . . . . . . . . . . . . . . . . . . . . - ] ' / ) / ( ] _ = . . . . . . . . . . . . . . . . . . . . . . . . . . . . . ",
". . . . . . . . . . . . . . . . . . . . . . . . . : ' < - < ) [ ^ } . . . . . . . . . . . . . . . . . . . . . . . . . . . . . . ",
". . . . . . . . . . . . . . . . . . . . . . . . . . | 1 2 1 < - 3 } . . . . . . . . . . . . . . . . . . . . . . . . . . . . . . ",
". . . . . . . . . . . . . . . . . . . . . . . . . 4 5 6 7 6 | 8 9 0 a b b c c . . . . . . . . . . . . . . . . . . . . . . . . . ",
". . . . . . . . . . . . . . . . . . . . . . d d 4 e 8 5 f | 8 9 d g g h i h i h j . . . . . . . . . . . . . . . . . . . . . . . ",
". . . . . . . . . . . . . . . . . . . . . j c k l m n e o o 4 j p g g g i i i b c k . . . . . . . . . . . . . . . . . . . . . . ",
". . . . . . . . . . . . . . . . . . . . d c d k l l q r l s 6 b b t g b g h h b c d . . . . . . . . . . . . . . . . . . . . . . ",
". . . . . . . . . . . . . . . . . . . d j k d u k v w l x 6 y b h z A @ b g h b c j B . . . . . . . . . . . . . . . . . . . . . ",
". . . . . . . . . . . . . . . . . . . d j B u d s x u u 6 y C c @ D D p p p E E d B l . . . . . . . . . . . . . . . . . . . . . ",
". . . . . . . . . . . . . . . . . . . . F r k d d x x u 6 y G c G B H ^ ' [ - - ^ 3 F . . . . . . . . . . . . . . . . . . . . . ",
". . . . . . . . . . . . . . . . . . . . r q B B B I s I s x d d B r - ! [ [ - J 3 H F . . . . . . . . . . . . . . . . . . . . . ",
". . . . . . . . . . . . . . . . . . . K r l q l q I s I I L 2 q B k ^ J ! [ [ - K l . . . . . . . . . . . . . . . . . . . . . . ",
". . . . . . . . . . . . . . . . . . . 0 e e M j q s s N O x d j d d 3 ^ ' ! ' 3 P F . . . . . . . . . . . . . . . . . . . . . . ",
". . . . . . . . . . . . . . . . . . E Q R R Q c l N y C C C j B l + + @ i h g @ F . . . . . . . . . . . . . . . . . . . . . . . ",
". . . . . . . . . . . . . . . . . . S 1 o 9 1 T l L U L U U G c - ! J 3 S + + # V . . . . . . . . . . . . . . . . . . . . . . . ",
". . . . . . . . . . . . . . . . . S 3 9 o 9 e W 9 9 o 9 e e ^ J ' X ' ^ 3 o V Y 9 . . . . . . . . . . . . . . . . . . . . . . . ",
". . . . . . . . . . . . . . . . . _ ' 4 m 9 9 0 1 o l v H ^ - C - ^ K _ H o o Z 9 . . . . . . . . . . . . . . . . . . . . . . . ",
". . . . . . . . . . . . . . . . . _ [ 9 e 9 e 4 N s O ^ C J ` N x F l w w 9 e 9 o  .. . . . . . . . . . . . . . . . . . . . . . ",
". . . . . . . . . . . . . . . . . F 3 ..e o e 9 y y y N O v +.+.@.w w w w w w w Z Z . . . . . . . . . . . . . . . . . . . . . . ",
". . . . . . . . . . . . . . . . . } u I m 9 9 e x s s s 2 @.v l r e w w w w w 9 w . . . . . . . . . . . . . . . . . . . . . . . ",
". . . . . . . . . . . . . . . . . . w I I n 9 I I I I e e V V V Z e 9 r r r r r . . . . . . . . . . . . . . . . . . . . . . . . ",
". . . . . . . . . . . . . . . . . . s u I 4 q q q q q w Z Z Z l q 9 9 q r r r q q . . . . . . . . . . . . . . . . . . . . . . . ",
". . . . . . . . . . . . . . . . . . . . . d q q q q q w r q q q r o q q r r r q B l . . . . . . . . . . . . . . . . . . . . . . ",
". . . . . . . . . . . . . . . . . . . . . . r q q q q r w r r r w q q r r r q q l k k . . . . . . . . . . . . . . . . . . . . . ",
". . . . . . . . . . . . . . . . . . . . . . . r l q q q r w r r 9 l q r q q q l U d l . . . . . . . . . . . . . . . . . . . . . ",
". . . . . . . . . . . . . . . . . . . . . . . q l l B l q r w w l l q q U l l u B d l . . . . . . . . . . . . . . . . . . . . . ",
". . . . . . . . . . . . . . . . . . . . . . . l B l k B q q r r r q q q v x s u B j l . . . . . . . . . . . . . . . . . . . . . ",
". . . . . . . . . . . . . . . . . . . . . . . r l B q B l r q r r r l q v x x s k B q . . . . . . . . . . . . . . . . . . . . . ",
". . . . . . . . . . . . . . . . . . . . . . . r B B B l q @.@.r r q l l U u u u U B . . . . . . . . . . . . . . . . . . . . . . ",
". . . . . . . . . . . . . . . . . . . . . . . . B U l q q l r r r q l U u u v s U B . . . . . . . . . . . . . . . . . . . . . . ",
". . . . . . . . . . . . . . . . . . . . . . . . s U l l l r @.r r l #.u u B s #.s l . . . . . . . . . . . . . . . . . . . . . . ",
". . . . . . . . . . . . . . . . . . . . . . . . s s U l L @.q r r q s x B k d 6 u B . . . . . . . . . . . . . . . . . . . . . . ",
". . . . . . . . . . . . . . . . . . . . . . . . s O U l l L q r r r B $.E b +  .l k . . . . . . . . . . . . . . . . . . . . . . ",
". . . . . . . . . . . . . . . . . . . . . . . . B s l U l q r r r %.S # # + $.S q . . . . . . . . . . . . . . . . . . . . . . . ",
". . . . . . . . . . . . . . . . . . . . . . . . Z $.$.V Z q q q w r V # # + $.S Z . . . . . . . . . . . . . . . . . . . . . . . ",
". . . . . . . . . . . . . . . . . . . . . . . . S V V Z Z l q q w r Z V $.$.6 s o . . . . . . . . . . . . . . . . . . . . . . . ",
". . . . . . . . . . . . . . . . . . . . . . . . . Z Y Z l q q q q q Z Z Z V Y  .V Z . . . . . . . . . . . . . . . . . . . . . . ",
". . . . . . . . . . . . . . . . . . . . . . . . . . . q q q q q q q Y Z q q Z  .# Z . . . . . . . . . . . . . . . . . . . . . . ",
". . . . . . . . . . . . . . . . . . . . . . . . . . . . q q q q w q Z V S S S S $.Z . . . . . . . . . . . . . . . . . . . . . . ",
". . . . . . . . . . . . . . . . . . . . . . . . . . . . q Z q q w q Y  .V N S $.S Z . . . . . . . . . . . . . . . . . . . . . . ",
". . . . . . . . . . . . . . . . . . . . . . . . . . . . . q 2 q w q &.V  . .$.y  .V . . . . . . . . . . . . . . . . . . . . . . ",
". . . . . . . . . . . . . . . . . . . . . . . . . . . . x I q 2 q w Z Y 6 S y v Z . . . . . . . . . . . . . . . . . . . . . . . ",
". . . . . . . . . . . . . . . . . . . . . . . . . . . u I u I q q w Z . Z y y O w . . . . . . . . . . . . . . . . . . . . . . . ",
". . . . . . . . . . . . . . . . . . . . . . . . . . u U U I r 2 w w Z . Z 7 I I o . . . . . . . . . . . . . . . . . . . . . . . ",
". . . . . . . . . . . . . . . . . . . . . . . . . 7 s I I ..q q q 9 . . 9 s O v ... . . . . . . . . . . . . . . . . . . . . . . ",
". . . . . . . . . . . . . . . . . . . . . . . . . e n n n e 9 9 . . . . 6 O 6 x u v . . . . . . . . . . . . . . . . . . . . . . ",
". . . . . . . . . . . . . . . . . . . . . . . . . . . . . . . . . . s 6 6 6 x s u o . . . . . . . . . . . . . . . . . . . . . . ",
". . . . . . . . . . . . . . . . . . . . . . . . . . . . . . . . . . s s s s v ..v o . . . . . . . . . . . . . . . . . . . . . . ",
". . . . . . . . . . . . . . . . . . . . . . . . . . . . . . . . . . o e n n n n o . . . . . . . . . . . . . . . . . . . . . . . "};
