/* XPM */
static char * sold7_xpm[] = {
"64 64 106 2",
"  	c None",
". 	c #980088",
"+ 	c #BF0000",
"@ 	c #37732B",
"# 	c #7B7F63",
"$ 	c #CF8353",
"% 	c #EFA373",
"& 	c #FFBF9B",
"* 	c #FFB383",
"= 	c #27531B",
"- 	c #F7AB7B",
"; 	c #BF7B4B",
"> 	c #B37347",
", 	c #2F6323",
"' 	c #D78B5B",
") 	c #AB6F43",
"! 	c #F37317",
"~ 	c #EF0000",
"{ 	c #CB5707",
"] 	c #FF0000",
"^ 	c #4F4F4F",
"/ 	c #731313",
"( 	c #CB0000",
"_ 	c #E79B6B",
": 	c #CB7F4F",
"< 	c #9B633B",
"[ 	c #875733",
"} 	c #1F4317",
"| 	c #836B4B",
"1 	c #9F8363",
"2 	c #8F7753",
"3 	c #FF3F3F",
"4 	c #A78F77",
"5 	c #A73F3F",
"6 	c #6B4727",
"7 	c #972F2F",
"8 	c #A33B3B",
"9 	c #C76363",
"0 	c #B79F87",
"a 	c #8B0000",
"b 	c #B34F4F",
"c 	c #CB6B6B",
"d 	c #7F0000",
"e 	c #43331B",
"f 	c #533F2F",
"g 	c #6F5743",
"h 	c #FF1F1F",
"i 	c #9B0000",
"j 	c #BFA78F",
"k 	c #8F5F37",
"l 	c #774F2B",
"m 	c #5F4323",
"n 	c #8B735B",
"o 	c #5F4B37",
"p 	c #4F0000",
"q 	c #A36B3F",
"r 	c #FF5F5F",
"s 	c #4B371B",
"t 	c #AF977F",
"u 	c #670000",
"v 	c #470000",
"w 	c #8B2323",
"x 	c #7F1B1B",
"y 	c #7F532F",
"z 	c #D70000",
"A 	c #836B57",
"B 	c #5B0707",
"C 	c #9B3333",
"D 	c #AF4747",
"E 	c #BB5757",
"F 	c #9B7F6B",
"G 	c #A70000",
"H 	c #937B63",
"I 	c #7B634F",
"J 	c #533F1F",
"K 	c #430000",
"L 	c #E30000",
"M 	c #831F1F",
"N 	c #474F33",
"O 	c #8F2B2B",
"P 	c #3B3B3B",
"Q 	c #53573B",
"R 	c #676B4F",
"S 	c #9F876F",
"T 	c #6F7357",
"U 	c #5B6347",
"V 	c #3F2F17",
"W 	c #332B13",
"X 	c #373F27",
"Y 	c #272727",
"Z 	c #1F170B",
"` 	c #2F2F2F",
" .	c #BF5B5B",
"..	c #D37373",
"+.	c #675333",
"@.	c #4F3B23",
"#.	c #775F3F",
"$.	c #730000",
"%.	c #2B230F",
"&.	c #3F472B",
"*.	c #5B0000",
"=.	c #6B0F0F",
"-.	c #771717",
";.	c #474747",
">.	c #373737",
",.	c #434343",
". . . . . . . . . . . . . . . . . . . . . . . . . . . . . . . . . . . . . . . . . . . . . . . . . . . . . . . . . . . . . . . . ",
". . . . . . . . . . . . . . . . . . . . . . . . . . . . . . . . . . . . . . . . . . . . . . . . . . . . . . . . . . . . . . . . ",
". . . . . . . . . . . . . . . . . . . . . . . . . . . . . . . . . . . . . . . . . . . . . . . . . . . . . . . . . . . . . . . . ",
". . . . . . . . . . . . . . . . . . . . . . . . . . . . . . . . . . . . . . . . . . . . . . . . . . . . . . . . . . . . . . . . ",
". . . . . . . . . . . . . . . . . . . . . . . . . . . . . . . . . . . . . . . . . . . . . . . . . . . . . . . . . . . . . . . . ",
". . . . . . . . . . . . . . . . . . . . . . . . . . . . . . . . . . . . . . . . . . . . . . . . . . . . . . . . . . . . . . . . ",
". . . . . . . . . . . . . . . . . . . . . . . . . . . . . . . . . . . . . . . . . . . . . . . . . . . . . . . . . . . . . . . . ",
". . . . . . . . . . . . . . . . . . . . . . . . . . . . . . . . . . . . . . . . . . . . . . . . . . . . . . . . . . . . . . . . ",
". . . . . . . . . . . . . . . . . . . . . . . . . . . . . . . . . . . . . . . . . . . . . . . . . . . . . . . . . . . . . . . . ",
". . . . . . . . . . . . . . . . . . . . . . . . . . . . . . . . . . . . . . . . . . . . . . . . . . . . . . . . . . . . . . . . ",
". . . . . . . . . . . . . . . . . . . . . . . . . . . . . . . . . . . . . . . . . . . . . . . . . . . . . . . . . . . . . . . . ",
". . . . . . . . . . . . . . . . . . . . . . . . . . . . . . . . . . . . . . . . . . . . . . . . . . . . . . . . . . . . . . . . ",
". . . . . . . . . . . . . . . . . . . . . . . . . . . . . . . . . . . . . . . . . . . . . . . . . . . . . . . . . . . . . . . . ",
". . . . . . . . . . . . . . . . . . . . . . . . . . . . . . . . . . . . . . . . . . . . . . . . . . . . . . . . . . . . . . . . ",
". . . . . . . . . . . . . . . . . . . . . . . . . . . . . . . . . . . . . . . . . . . . . . . . . . . . . . . . . . . . . . . . ",
". . . . . . . . . . . . . . . . . . . . . . . . . . . . . . . . . . . . . . . . . . . . . . . . . . . . . . . . . . . . . . . . ",
". . . . . . . . . . . . . . . . . . . . . . . . . . . . . . . . . . . . . . . . . . . . . . . . . . . . . . . . . . . . . . . . ",
". . . . . . . . . . . . . . . . . . . . . . . . . . . . . . . . . . . . + . @ @ @ @ # . . . . . . . . . . . . . . . . . . . . . ",
". . . . . . . . . . . . . . . . . . . . . . . . . . . . . . . . . . . . . $ % & * % $ # . . . . . . . . . . . . . . . . . . . . ",
". . . . . . . . . . . . . . . . . . . . . . . . . . . . . . . . . . + . = * - ; @ > > > , . . . . . . . . . . . . . . . . . . . ",
". . . . . . . . . . . . . . . . . . . . . . . . . . . . . . . . . . . . ' ) ; ! - $ > , = . . . . . . . . . . . . . . . . . . . ",
". . . . . . . . . . . . . . . . . . . . . . . . . . . . . . . . . . ~ { ] ^ / ( ' _ : < [ } . . . . . . . . . . . . . . . . . . ",
". . . . . . . . . . . . . . . . . . . . . . . . . . . . | 1 1 | 2 3 4 ~ 5 6 7 8 1 1 1 1 2 } . . . . . . . . . . . . . . . . . . ",
". . . . . . . . . . . . . . . . . . . . . . . . . . 1 4 ] | 1 9 0 a 9 5 b b c ~ 0 0 0 1 0 4 1 | d . . . . . . . . . . . . . . . ",
". . . . . . . . . . . . . . . . . . . . . . . . . e f g a 9 0 h 9 9 5 b ] c c i j j j 1 j 0 0 4 1 g . . . . . . . . . . . . . . ",
". . . . . . . . . . . . . . . . . . . . . . . . k ] l m f | h ( n ( h 0 a 0 1 1 4 4 1 g e f o g 1 | . . . . . . . . . . . . . . ",
". . . . . . . . . . . . . . . . . . . . . . . a p : q l r o a a ( a ( ( f e h 0 g g o s 6 6 6 l f g o . . . . . . . . . . . . . ",
". . . . . . . . . . . . . . . . . . . . ] k < q > q t h a a 3 u v w x p a h 0 g | o e 6 > $ ; q y f o . . . . . . . . . . . . . ",
". . . . . . . . . . . . . . . . . . . . a z < [ [ a g A h a B v C D E ] a h F g 2 3 e k ; $ : ; y 6 o . . . . . . . . . . . . . ",
". . . . . . . . . . . . . . . . . 3 ( i a G D > 6 6 f o A r 5 v x C 8 a h H o i I g e y q > ; ) k 6 . . . . . . . . . . . . . . ",
". . . . . . . . . . . . . . . . . . w i i a z 8 6 J f f a a + C a K x ] f z A o I o f 6 < > ; < k J . . . . . . . . . . . . . . ",
". . . . . . . . . . . . . . . . . . L + i a G M N O ) a + h h ( h h z + P p e f o g m Q R # S 4 q . . . . . . . . . . . . . . . ",
". . . . . . . . . . . . . . . . . 3 w i + + L . . T T a + m + m m + + a a U Q P f g 6 [ q < k T R . . . . . . . . . . . . . . . ",
". . . . . . . . . . . . . . . . . . . w L w 3 U N Q U Q V V V V V a + e N U N U U W [ q ; ; q y Q . . . . . . . . . . . . . . . ",
". . . . . . . . . . . . . . . . . . . . 3 . N U X X X X Q U U 5 5 Q a o e Y N U Q K [ 8 ; ; 8 y X . . . . . . . . . . . . . . . ",
". . . . . . . . . . . . . . . . . . . . . . N f o g o Z N U E R U o g 1 | f ` N X X 6 q 5 8 y 6 . . . . . . . . . . . . . . . . ",
". . . . . . . . . . . . . . . . . . . . . o 8 b  . . .o f X Q Q g g 1 1 2 | f Z W e 8 E E ] ( 3 . . . . . . . . . . . . . . . . ",
". . . . . . . . . . . . . . . . . . . . o W e f o | .. .D e W W o 1 1 9 g o w e W a C C C C a a . . . . . . . . . . . . . . . . ",
". . . . . . . . . . . . . . . . . . . . e g | 2 | b C O O e Z W e +.[ b D b o @.3 ( L C ( 8 . . . . . . . . . . . . . . . . . . ",
". . . . . . . . . . . . . . . . . . . . f b b g b D g M f W Z Z 2 9 D 7 7 7 x M e a 3 a 3 a 3 . . . . . . . . . . . . . . . . . ",
". . . . . . . . . . . . . . . . . . . . s 7 w M D 8 o s e Z Z @.| #.5 E b 8 x V e Z a . a . a . . . . . . . . . . . . . . . . . ",
". . . . . . . . . . . . . . . . . . . s s M O D 8 s e e W Z p @.+.5 | 1 1 b O x e $.. . . . . . . . . . . . . . . . . . . . . . ",
". . . . . . . . . . . . . . . . . . . w 8 b b O b M W W W . $.. M #.f f e W e x W p . $.. . . . . . . . . . . . . . . . . . . . ",
". . . . . . . . . . . . . . . . . . f 8 f f o 8 O o W W . . . . e e N U U N e f W . . . . . . . . . . . . . . . . . . . . . . . ",
". . . . . . . . . . . . . . . . . . W f e e f o %.e W W . . $.. W X R # # R Q X W . i $.. . . . . . . . . . . . . . . . . . . . ",
". . . . . . . . . . . . . . . . . . &.R R U e e e W e . . . . . W N R R R R 7 N e . $.*.. $.. . . . . . . . . . . . . . . . . . ",
". . . . . . . . . . . . . . . . . . &.N N Q Q W W Z . . . . . . . N &.X X X =.N . . . . . . . . . . . . . . . . . . . . . . . . ",
". . . . . . . . . . . . . . . . . . &.N N N &.N &.. . . . . . . . =.X Q U Q X X . . . . . . . . . . . . . . . . . . . . . . . . ",
". . . . . . . . . . . . . . . . . . ` N N &.7 s W Y . . . . . . . X Q T T 5 Q X . . . . . . . . . . . . . . . . . . . . . . . . ",
". . . . . . . . . . . . . . . . . . Z Z W W s N N W . . . . . . . e C T # T s X . . . . . . . . . . . . . . . . . . . . . . . . ",
". . . . . . . . . . . . . . . . . . X U R N &.&.X e . . . . . . . W N T 9 E N W . . . . . . . . . . . . . . . . . . . . . . . . ",
". . . . . . . . . . . . . . . . . . X N Q N N N N e . . . . . . . . e M E U X W . . . . . . . . . . . . . . . . . . . . . . . . ",
". . . . . . . . . . . . . . . . . . X &.7 U N s U e . . . . . . . . e 5  . .5 X . . . . . . . . . . . . . . . . . . . . . . . . ",
". . . . . . . . . . . . . . . . . . . V N U s N s e . . . . . . . . M w O O w M . . . . . . . . . . . . . . . . . . . . . . . . ",
". . . . . . . . . . . . . . . . . . . V N M M Q &.. . . . . . . . . V C D D C s . . . . . . . . . . . . . . . . . . . . . . . . ",
". . . . . . . . . . . . . . . . . . . . s s s s V . . . . . . . . . V w C C w V . . . . . . . . . . . . . . . . . . . . . . . . ",
". . . . . . . . . . . . . . . . . . . . M O M s =.. . . . . . . . . Z V V V V Z . . . . . . . . . . . . . . . . . . . . . . . . ",
". . . . . . . . . . . . . . . . . . . M M -.-.=.s . . . . . . . . . Z Y Y Y Y Z . . . . . . . . . . . . . . . . . . . . . . . . ",
". . . . . . . . . . . . . . . . . . 7 C 8 w V s V . . . . . . . . . . Y %.%.%.. . . . . . . . . . . . . . . . . . . . . . . . . ",
". . . . . . . . . . . . . . . . . C 8 8 C O M s Y . . . . . . . . . . . . . . . . . . . . . . . . . . . . . . . . . . . . . . . ",
". . . . . . . . . . . . . . . . w 8 D 8 O w s Y . . . . . . . . . . . . . . . . . . . . . . . . . . . . . . . . . . . . . . . . ",
". . . . . . . . . . . . . . . . M w O O w ;.>.. . . . . . . . . . . . . . . . . . . . . . . . . . . . . . . . . . . . . . . . . ",
". . . . . . . . . . . . . . . . &.>.,.,.;.. . . . . . . . . . . . . . . . . . . . . . . . . . . . . . . . . . . . . . . . . . . ",
". . . . . . . . . . . . . . . . . . . . . . . . . . . . . . . . . . . . . . . . . . . . . . . . . . . . . . . . . . . . . . . . "};
