/* XPM */
static char * sold1_xpm[] = {
"64 64 102 2",
"  	c None",
". 	c #980088",
"+ 	c #5B6347",
"@ 	c #6F7357",
"# 	c #7B7F63",
"$ 	c #9F876F",
"% 	c #27531B",
"& 	c #B37347",
"* 	c #439337",
"= 	c #3F832F",
"- 	c #37732B",
"; 	c #CF8353",
"> 	c #F7AB7B",
", 	c #FFC7A7",
"' 	c #8F5F37",
") 	c #EFA373",
"! 	c #FFBB93",
"~ 	c #E79B6B",
"{ 	c #DF9363",
"] 	c #FFDBC7",
"^ 	c #FFB383",
"/ 	c #FF7B7B",
"( 	c #E30000",
"_ 	c #BF7B4B",
": 	c #FF9B9B",
"< 	c #FFBF9B",
"[ 	c #5B5B5B",
"} 	c #774F2B",
"| 	c #A36B3F",
"1 	c #C39B2F",
"2 	c #4F4F4F",
"3 	c #5F0707",
"4 	c #9F8363",
"5 	c #A78F77",
"6 	c #AF977F",
"7 	c #6F5743",
"8 	c #373737",
"9 	c #272727",
"0 	c #D75F0B",
"a 	c #B34F4F",
"b 	c #9B3333",
"c 	c #AF7B1F",
"d 	c #232323",
"e 	c #836B4B",
"f 	c #8F7753",
"g 	c #B79F87",
"h 	c #BFA78F",
"i 	c #434343",
"j 	c #2F2F2F",
"k 	c #874307",
"l 	c #F37317",
"m 	c #533F2F",
"n 	c #636363",
"o 	c #474747",
"p 	c #BF5B5B",
"q 	c #3F2F17",
"r 	c #2B230F",
"s 	c #1F170B",
"t 	c #AF4747",
"u 	c #6F6F6F",
"v 	c #3B3B3B",
"w 	c #DF8787",
"x 	c #D37373",
"y 	c #A73F3F",
"z 	c #43331B",
"A 	c #4F3B23",
"B 	c #7F7F7F",
"C 	c #777777",
"D 	c #DB7B7B",
"E 	c #C76363",
"F 	c #5F4B37",
"G 	c #8B8B8B",
"H 	c #9F9F9F",
"I 	c #939393",
"J 	c #332B13",
"K 	c #CB6B6B",
"L 	c #BB5757",
"M 	c #7F532F",
"N 	c #A33B3B",
"O 	c #8F2B2B",
"P 	c #972F2F",
"Q 	c #838383",
"R 	c #6B6B6B",
"S 	c #D78B5B",
"T 	c #5F4323",
"U 	c #7F1B1B",
"V 	c #575757",
"W 	c #6B4727",
"X 	c #6B0F0F",
"Y 	c #4B371B",
"Z 	c #474F33",
"` 	c #771717",
" .	c #676B4F",
"..	c #8B2323",
"+.	c #731313",
"@.	c #F3A3A3",
"#.	c #373F27",
"$.	c #AB6F43",
"%.	c #9B633B",
"&.	c #533F1F",
"*.	c #53573B",
"=.	c #3F472B",
". . . . . . . . . . . . . . . . . . . . . . . . . . . . . . . . . . . . . . . . . . . . . . . . . . . . . . . . . . . . . . . . ",
". . . . . . . . . . . . . . . . . . . . . . . . . . . . . . . . . . . . . . . . . . . . . . . . . . . . . . . . . . . . . . . . ",
". . . . . . . . . . . . . . . . . . . . . . . . . . . . . . . . . . . . . . . . . . . . . . . . . . . . . . . . . . . . . . . . ",
". . . . . . . . . . . . . . . . . . . . . . . . . . . . . . . . . . . . . . . . . . . . . . . . . . . . . . . . . . . . . . . . ",
". . . . . . . . . . . . . . . . . . . . . . . . . . . . . . . . . . . . . . . . . . . . . . . . . . . . . . . . . . . . . . . . ",
". . . . . . . . . . . . . . . . . . . . . . . . . . . . . . . . . . . . . . . . . . . . . . . . . . . . . . . . . . . . . . . . ",
". . . . . . . . . . . . . . . . . . . . . . . . . . . . . . . . . . . . . . . . . . . . . . . . . . . . . . . . . . . . . . . . ",
". . . . . . . . . . . . . . . . . . . . . . . . . . . . . . . . . . . . . . . . . . . . . . . . . . . . . . . . . . . . . . . . ",
". . . . . . . . . . . . . . . . . . . . . . . . . . . . . . . . . . . . . . . . . . . . . . . . . . . . . . . . . . . . . . . . ",
". . . . . . . . . . . . . . . . . . . . . . . . . + @ # $ $ $ # @ + . . . . . . . . . . . . . . . . . . . . . . . . . . . . . . ",
". . . . . . . . . . . . . . . . . . . . . . . . . % & * = - = * & % . . . . . . . . . . . . . . . . . . . . . . . . . . . . . . ",
". . . . . . . . . . . . . . . . . . . . . . . . . % ; > , , , > ; % . . . . . . . . . . . . . . . . . . . . . . . . . . . . . . ",
". . . . . . . . . . . . . . . . . . . . . . . . . ' ) ! > ! > ! ) ' . . . . . . . . . . . . . . . . . . . . . . . . . . . . . . ",
". . . . . . . . . . . . . . . . . . . . . . . . ~ & % , { ] { , % & ~ . . . . . . . . . . . . . . . . . . . . . . . . . . . . . ",
". . . . . . . . . . . . . . . . . . . . . . . . ^ { / ( % > % ( / { ^ . . . . . . . . . . . . . . . . . . . . . . . . . . . . . ",
". . . . . . . . . . . . . . . . . . . . . . . . ; _ ^ : ) < ) : ^ _ ; . . . . . . . . . . . . . . . . . . . . . . . . . . . . . ",
". . . . . . . . . . . . . . . . . . . . . . . [ [ } | ) 1 _ 1 ) | } . . . . . . . . . . . . . . . . . . . . . . . . . . . . . . ",
". . . . . . . . . . . . . . . . . . . . . . [ 2 2 } _ 1 [ 3 [ 1 _ } + 4 4 . . . . . . . . . . . . . . . . . . . . . . . . . . . ",
". . . . . . . . . . . . . . . . . . 4 5 6 5 6 7 8 9 | 0 a b a c | d e 5 5 5 4 f . . . . . . . . . . . . . . . . . . . . . . . . ",
". . . . . . . . . . . . . . . . f 4 g h h h g 5 7 i j k 0 l c k j m e 4 5 5 5 4 e . . . . . . . . . . [ n o n . . . . . . . . . ",
". . . . . . . . . . . . . . . f e 5 5 4 g g 6 4 4 4 p q r s s q t e 4 5 e 5 4 4 e 7 . . . . . . . u [ v i d v . . . . . . . . . ",
". . . . . . . . . . . . . . . 7 4 5 6 6 4 6 e 6 w 4 x a y z A y x 4 4 4 f 7 f f 7 7 . . . B B C n 2 i d j v . . . . . . . . . . ",
". . . . . . . . . . . . . . . m e f 4 4 4 7 4 D 5 x 4 x a b t a E x f 4 e z z 7 7 F . B G H I [ 8 d v i . . . . . . . . . . . . ",
". . . . . . . . . . . . . . . J m F 7 7 7 J F e 4 K x a a b t y L f 7 m J 8 s s [ u G H I I B 2 v i . . . . . . . . . . . . . . ",
". . . . . . . . . . . . . . . M | { { ; | J s 7 e L L N y O y P N z d 8 z i j j C G G G Q R [ o . . . . . . . . . . . . . . . . ",
". . . . . . . . . . . . . . . | w < , > S T s s F 7 F O A U z J j d J m u Q R R [ o C R V o W } . . . . . . . . . . . . . . . . ",
". . . . . . . . . . . . . . } ' w < ! > & } s J J J X X X r j v o V u Q u V V d q Y } q T N L t . . . . . . . . . . . . . . . . ",
". . . . . . . . . . . . . . } ' { ! ! ; } T z m m z J d j F F o Q Q Q V V 8 8 8 } T q T L N N N . . . . . . . . . . . . . . . . ",
". . . . . . . . . . . . . . } } # 5 5 @ Z Y z z z d d 8 e 4 G Q V V j j 8 8 8 2 T } Y y y P O ` . . . . . . . . . . . . . . . . ",
". . . . . . . . . . . . . . }  .$ ~ ! > { } i i n 8 j Q G V V d j j 8 8 o 8 8 Z T O T U ..U +.. . . . . . . . . . . . . . . . . ",
". . . . . . . . . . . . . . Z  ._ ) @.< ) _ 2 n C j n V V 8 j j 8 8 8 o 8 J . Z Z T U X X . . . . . . . . . . . . . . . . . . . ",
". . . . . . . . . . . . . . #.j $.{ < w E C C C V 2 8 8 j j 8 8 8 8 j d j #.. . . . . . . . . . . . . . . . . . . . . . . . . . ",
". . . . . . . . . . . . . . #.j %.a E C C C V v 9 9 8 8 8 8 8 8 Y d d d #.#.. . . . . . . . . . . . . . . . . . . . . . . . . . ",
". . . . . . . . . . . . . . . #.W Y C C V v 9 9 9 9 v i o o o T Y d d 9 #.#.. . . . . . . . . . . . . . . . . . . . . . . . . . ",
". . . . . . . . . . . . . . . . . 9 9 9 9 9 9 9 9 d j U U j s q r d d #.Z . . . . . . . . . . . . . . . . . . . . . . . . . . . ",
". . . . . . . . . . . . . . . . . . 9 9 9 9 9 9 Y U U &...U d #.+ r 9 #.Z j . . . . . . . . . . . . . . . . . . . . . . . . . . ",
". . . . . . . . . . . . . . . . . . . 9 9 9 9 q W W P ..` z z m m m m z m z m . . . . . . . . . . . . . . . . . . . . . . . . . ",
". . . . . . . . . . . . . . . . . . . . 9 9 z z q ` ` ` q J m F F F m z z m i . . . . . . . . . . . . . . . . . . . . . . . . . ",
". . . . . . . . . . . . . . . . . . . . s z z 7 7 J J J J z z m F m m m z m J . . . . . . . . . . . . . . . . . . . . . . . . . ",
". . . . . . . . . . . . . . . . . . . . j m m m z m z s s z z z F ..m ..z m J . . . . . . . . . . . . . . . . . . . . . . . . . ",
". . . . . . . . . . . . . . . . . . . . z m z z ..P z s s z m P y y P z z F m . . . . . . . . . . . . . . . . . . . . . . . . . ",
". . . . . . . . . . . . . . . . . . . . m z z m ..U J J J z J z y L a P z F m . . . . . . . . . . . . . . . . . . . . . . . . . ",
". . . . . . . . . . . . . . . . . . . . . J z z ` X z J z F ..m y a y y m 7 . . . . . . . . . . . . . . . . . . . . . . . . . . ",
". . . . . . . . . . . . . . . . . . . . . J J ..z X z J m m m P y P P P m . . . . . . . . . . . . . . . . . . . . . . . . . . . ",
". . . . . . . . . . . . . . . . . . . . . J ....z z z J z F P y P P 7 P z . . . . . . . . . . . . . . . . . . . . . . . . . . . ",
". . . . . . . . . . . . . . . . . . . . . . J U z z J J J P e 7 m 7 e F z . . . . . . . . . . . . . . . . . . . . . . . . . . . ",
". . . . . . . . . . . . . . . . . . . . . . J J z z J J z m m  .@  .7 z m . . . . . . . . . . . . . . . . . . . . . . . . . . . ",
". . . . . . . . . . . . . . . . . . . . . . J J J J J J J +  .# # #  .+ *.. . . . . . . . . . . . . . . . . . . . . . . . . . . ",
". . . . . . . . . . . . . . . . . . . . . . . J J J J J J *.+  . . .t P *.. . . . . . . . . . . . . . . . . . . . . . . . . . . ",
". . . . . . . . . . . . . . . . . . . . . . . J J J J J J m Z *.*.*.Z J . . . . . . . . . . . . . . . . . . . . . . . . . . . . ",
". . . . . . . . . . . . . . . . . . . . . . . . J J J z J *.z z z J z Z  .. . . . . . . . . . . . . . . . . . . . . . . . . . . ",
". . . . . . . . . . . . . . . . . . . . . . . . . . m J z Z  .@ # # @  .#.. . . . . . . . . . . . . . . . . . . . . . . . . . . ",
". . . . . . . . . . . . . . . . . . . . . . . . . . . z z + Z Z Z Z Z =.Z . . . . . . . . . . . . . . . . . . . . . . . . . . . ",
". . . . . . . . . . . . . . . . . . . . . . . . . . . J z Z + Z Z *.+  .Z . . . . . . . . . . . . . . . . . . . . . . . . . . . ",
". . . . . . . . . . . . . . . . . . . . . . . . . . . J J #.T W + + T + *.. . . . . . . . . . . . . . . . . . . . . . . . . . . ",
". . . . . . . . . . . . . . . . . . . . . . . . . . . J J J Z O  .a + T . . . . . . . . . . . . . . . . . . . . . . . . . . . . ",
". . . . . . . . . . . . . . . . . . . . . . . . . . z z J J ` N N  .W ` . . . . . . . . . . . . . . . . . . . . . . . . . . . . ",
". . . . . . . . . . . . . . . . . . . . . . . . . . z z J J q O a a O Y . . . . . . . . . . . . . . . . . . . . . . . . . . . . ",
". . . . . . . . . . . . . . . . . . . . . . . . . . z z J q q Y &.Y q q . . . . . . . . . . . . . . . . . . . . . . . . . . . . ",
". . . . . . . . . . . . . . . . . . . . . . . . . . . z J q W N N N b Y . . . . . . . . . . . . . . . . . . . . . . . . . . . . ",
". . . . . . . . . . . . . . . . . . . . . . . . . . . . . Y b y t y O Y . . . . . . . . . . . . . . . . . . . . . . . . . . . . ",
". . . . . . . . . . . . . . . . . . . . . . . . . . . . . W O b y b O T . . . . . . . . . . . . . . . . . . . . . . . . . . . . ",
". . . . . . . . . . . . . . . . . . . . . . . . . . . . . v Y O O O Y v . . . . . . . . . . . . . . . . . . . . . . . . . . . . ",
". . . . . . . . . . . . . . . . . . . . . . . . . . . . . . j j r r j j . . . . . . . . . . . . . . . . . . . . . . . . . . . . "};
