/* XPM */
static char * sold6_xpm[] = {
"64 64 119 2",
"  	c None",
". 	c #980088",
"+ 	c #676B4F",
"@ 	c #6F7357",
"# 	c #7B7F63",
"$ 	c #937B63",
"% 	c #CF8353",
"& 	c #E79B6B",
"* 	c #FFBF9B",
"= 	c #FFB383",
"- 	c #EFA373",
"; 	c #9F876F",
"> 	c #2F6323",
", 	c #3F832F",
"' 	c #B37347",
") 	c #37732B",
"! 	c #CB5707",
"~ 	c #FF0000",
"{ 	c #F7AB7B",
"] 	c #BF7B4B",
"^ 	c #8F5F37",
"/ 	c #27531B",
"( 	c #FF3F3F",
"_ 	c #AB6F43",
": 	c #875733",
"< 	c #1F4317",
"[ 	c #EB6F0F",
"} 	c #731313",
"| 	c #636363",
"1 	c #F37317",
"2 	c #CB7F4F",
"3 	c #9B633B",
"4 	c #D70000",
"5 	c #B30000",
"6 	c #A36B3F",
"7 	c #13230B",
"8 	c #8B0000",
"9 	c #FF7F1B",
"0 	c #DF670F",
"a 	c #BF0000",
"b 	c #D78B5B",
"c 	c #6B4727",
"d 	c #670000",
"e 	c #9B0000",
"f 	c #A70000",
"g 	c #6B6B6B",
"h 	c #777777",
"i 	c #9F8363",
"j 	c #836B4B",
"k 	c #AF4300",
"l 	c #B74700",
"m 	c #474747",
"n 	c #7F0000",
"o 	c #A78F77",
"p 	c #B34F4F",
"q 	c #BB5757",
"r 	c #BF5B5B",
"s 	c #9B3333",
"t 	c #972F2F",
"u 	c #A73F3F",
"v 	c #CB6B6B",
"w 	c #B79F87",
"x 	c #AF977F",
"y 	c #8F7753",
"z 	c #BFA78F",
"A 	c #6F5743",
"B 	c #43331B",
"C 	c #67533F",
"D 	c #DB7B7B",
"E 	c #9B7F6B",
"F 	c #7F532F",
"G 	c #533F2F",
"H 	c #332B13",
"I 	c #775F4B",
"J 	c #AF4747",
"K 	c #7F1B1B",
"L 	c #5F4323",
"M 	c #836B57",
"N 	c #5F4B37",
"O 	c #4B371B",
"P 	c #373737",
"Q 	c #774F2B",
"R 	c #E30000",
"S 	c #00FFFF",
"T 	c #4F0000",
"U 	c #5B6347",
"V 	c #53573B",
"W 	c #232323",
"X 	c #5B0707",
"Y 	c #3F2F17",
"Z 	c #3F472B",
"` 	c #3B3B3B",
" .	c #831F1F",
"..	c #530707",
"+.	c #5B5B5B",
"@.	c #2F2F2F",
"#.	c #8F2B2B",
"$.	c #8B2323",
"%.	c #771717",
"&.	c #6F6F6F",
"*.	c #434343",
"=.	c #7F7F7F",
"-.	c #4F4F4F",
";.	c #474F33",
">.	c #CB0000",
",.	c #8B8B8B",
"'.	c #9F9F9F",
").	c #939393",
"!.	c #5B0000",
"~.	c #730000",
"{.	c #670B0B",
"].	c #373F27",
"^.	c #575757",
"/.	c #2B230F",
"(.	c #838383",
"_.	c #1F170B",
":.	c #272727",
"<.	c #6B0F0F",
"[.	c #5F0707",
". . . . . . . . . . . . . . . . . . . . . . . . . . . . . . . . . . . . . . . . . . . . . . . . . . . . . . . . . . . . . . . . ",
". . . . . . . . . . . . . . . . . . . . . . . . . . . . . . . . . . . . . . . . . . . . . . . . . . . . . . . . . . . . . . . . ",
". . . . . . . . . . . . . . . . . . . . . . . . . . . . . . . . . . . . . . . . . . . . . . . . . . . . . . . . . . . . . . . . ",
". . . . . . . . . . . . . . . . . . . . . . . . . . . . . . . . . . . . . . . . . . . . . . . . . . . . . . . . . . . . . . . . ",
". . . . . . . . . . . . . . . . . . . . . . . . . . . . . . . . . . . . . . . . . . . . . . . . . . . . . . . . . . . . . . . . ",
". . . . . . . . . . . . . . . . . . . . . . . . . . . . . . . . . . . . . . . . . . . . . . . . . . . . . . . . . . . . . . . . ",
". . . . . . . . . . . . . . . . . . . . . . . . . . . . . . . . . . . . . . . . . . . . . . . . . . . . . . . . . . . . . . . . ",
". . . . . . . . . . . . . . . . . . . . . . . . . . . . . . . . . . . . . . . . . . . . . . . . . . . . . . . . . . . . . . . . ",
". . . . . . . . . . . . . . . . . . . . . . . . . . . . . . . . . . . . . . . . . . . . . . . . . . . . . . . . . . . . . . . . ",
". . . . . . . . . . . . . . . . . . . . . . . . . . . . . . . . . . . + @ # # # $ . . . . . . . . . . . . . . . . . . . . . . . ",
". . . . . . . . . . . . . . . . . . . . . . . . . . . . . . . . . . % & * = - % # ; @ . . . . . . . . . . . . . . . . . . . . . ",
". . . . . . . . . . . . . . . . . . . . . . . . . . . . . . . . . > , * , > , ' ' > ) @ . . . . . . . . . . . . . . . . . . . . ",
". . . . . . . . . . . . . . . . . . . . . . . . . . . . . ! . . ~ . = { { ] ^ % > > / / . . . . . . . . . . . . . . . . . . . . ",
". . . . . . . . . . . . . . . . . . . . . . . . . . . . . . . . . ( _ ] & * = - > ] : < . . . . . . . . . . . . . . . . . . . . ",
". . . . . . . . . . . . . . . . . . . . . . . . . . . . . . . [ . ^ ~ } | 1 ] & 2 3 : < . . . . . . . . . . . . . . . . . . . . ",
". . . . . . . . . . . . . . . . . . . . . . . . . . . . . . . . 4 ! } } } 5 6 % : 3 < 7 . 8 . < < . . . . . . . . . . . . . . . ",
". . . . . . . . . . . . . . . . . . . . . . . . . . . . . . . 9 . 0 ~ a : ~ ' b : c 7 d e . f d < . . . . . . . . . . . . . . . ",
". . . . . . . . . . . . . . . . . . . . . . . . . . . . . . . g h 3 1 1 9 b b 3 : c d . . . d 8 . . . . . . . . . . . . . . . . ",
". . . . . . . . . . . . . . . . . . . . . . . . . . i i i i i j | | k l l k m m m m . . n . . . . d . . . . . . . . . . . . . . ",
". . . . . . . . . . . . . . . . . . . . . . . . i i o i i o p q r s t u r v w x ; w x x i j . . . . . . . . . . . . . . . . . . ",
". . . . . . . . . . . . . . . . . . . . . . . y i o i i o v x v p t u q v w w w o ; z w x i i A . . . . . . . . . . . . . . . . ",
". . . . . . . . . . . . . . . . . . . . . . . B j i C i v p v q p u p q v D z w w E z x x o i C . . . . . . . . . . . . . . . . ",
". . . . . . . . . . . . . . . . . . . . . . . 3 F F G i i i q u p s p q r w x o $ H B G C A A A C . . . . . . . . . . . . . . . ",
". . . . . . . . . . . . . . . . . . . . . . 3 _ _ ^ c I I i v v p J s K K s j C B L 3 % 6 ^ F F . . . . . . . . . . . . . . . . ",
". . . . . . . . . . . . . . . . . . . . . . 3 _ _ : c B C s s s s p q D w ; $ M I N ' % % ' ^ ^ F . . . . . . . . . . . . . . . ",
". . . . . . . . . . . . . . . . . . . . . : 3 3 3 O P N I M $ ; v ; v v ; ; ; $ M N ' % % ' ' ^ F . . . . . . . . . . . . . . . ",
". . . . . . . . . . . . . . . . . . . . . @ : : Q L L N N I M $ ; R ; S ; R $ $ N N L L 3 # ; ] B . . . . . . . . . . . . . . . ",
". . . . . . . . . . . . . . . . . . . . F 3 # @ + L L N I M $ f M e R M T ; N I N r ' ' 6 U # @ V . . . . . . . . . . . . . . . ",
". . . . . . . . . . . . . . . . . . . 3 ' ' 3 F V V N I 4 W W X T X 8 t r t r u Y u ] ' 3 F V V Z . . . . . . . . . . . . . . . ",
". . . . . . . . . . . . . . . . . . . ' b v ' 3 F V N W W ` a f T T  .} t ..t  .u u u u ^ +.| m @.. . . . . . . . . . . . . . . ",
". . . . . . . . . . . . . . . . . . #.#.u v q 3 F . . . W W ` X X T u $.K K K K %.X %.&.+.` *.W @.. . . . . . . . . . . . . . . ",
". . . . . . . . . . . . . . . . . #.u t q q 3 s . . . . W X W 4 e a X u ..%.%.=.=.h | -.*.W @.` . . . . . . . . . . . . . . . . ",
". . . . . . . . . . . . . . . .  .q u s u q u . . + ;.@ @ @ 4 Q F ~ ^ >.3 =.,.'.).+.@.W @.*.d d . . . . . . . . . . . . . . . . ",
". . . . . . . . . . . . . . . . } } q s s $.. . . ;.;.V U U P P W W +.&.,.'.).=.| -.` *.!.!.d ~.. d . . . . . . . . . . . . . . ",
". . . . . . . . . . . . . . . . . } } q {.. . . . U ].U P W W W W W h ,.,.=.| ^.m m /.].!.. . d . . . . . . . . . . . . . . . . ",
". . . . . . . . . . . . . . . . . . {.} {.. . . . P P W W ].&.(.g g +.m | ^.m m W W @.!.. ~.. . . . . . . . . . . . . . . . . . ",
". . . . . . . . . . . . . . . . . . . . . . . P W W G &.&.(.&.^.m P P P m m i y G H _._.. . . . !.. . . . . . . . . . . . . . . ",
". . . . . . . . . . . . . . . . . . . . . P W W C &.(.(.(.^.m P P P P P @.j j C B H H H B d . . . . . . . . . . . . . . . . . . ",
". . . . . . . . . . . . . . . . . . . P W W &.(.,.(.^.m @.@.P P P P P ].A i i A B H H H _.. !.. . . . . . . . . . . . . . . . . ",
". . . . . . . . . . . . . . . . . . | W @.(.,.^.m P @.@.P P P P P /._.A j C A J B H H H _.. . . . . . . . . . . . . . . . . . . ",
". . . . . . . . . . . . . . . . . | h @.| ^.m P @.@.P P m m P G /./.B Y C j J $.G H H H _.. . . . . . . . . . . . . . . . . . . ",
". . . . . . . . . . . . . . . | h h ^.-.P P @.@.P P P m @.W B B /.H _.y A O O O B H H H _.. . . . . . . . . . . . . . . . . . . ",
". . . . . . . . . . . . . | h h ^.` :.:.P P P P P P t W W W B B H . _.j J t  .O B B B B _.. . . . . . . . . . . . . . . . . . . ",
". . . . . . . . . . . m | h ^.` :.:.:.:.` *.m m m G t W W :.G H H . C C C #.<.<. .H H H . . . . . . . . . . . . . . . . . . . . ",
". . . . . . . . . . . :.m m :.:.:.:.:.W @.W W @._.t %.W W $.B H . . . G A  .[.Y <.[.B H . . . . . . . . . . . . . . . . . . . . ",
". . . . . . . . . . . . :.:.:.:.:.:.. . . W W W W W {.B $.%.H B . . . B B O O [.[.B B H . . . . . . . . . . . . . . . . . . . . ",
". . . . . . . . . . . . . :.:.:.:.. . . . . W W W G B [.%.[.B H B . . H B  .<.[.B B G H . . . . . . . . . . . . . . . . . . . . ",
". . . . . . . . . . . . . . :.:.. . . . . . . . ].U B B G %.B H H . . H ].].Z ;.;.;.].B . . . . . . . . . . . . . . . . . . . . ",
". . . . . . . . . . . . . . . . . . . . . . . . ].@ U ;.].B _._._.. . . ].;.;.;.;.]./.. . . . . . . . . . . . . . . . . . . . . ",
". . . . . . . . . . . . . . . . . . . . . . . . :.;.;.;.;.].].].:.. . . H ].;.;.;. ./.. . . . . . . . . . . . . . . . . . . . . ",
". . . . . . . . . . . . . . . . . . . . . . . . ].Z ].].H H ].H /.. . . _.H H H H _./.. . . . . . . . . . . . . . . . . . . . . ",
". . . . . . . . . . . . . . . . . . . . . . . . . ]. .].].H /.]./.. . . _.].].].].]._.. . . . . . . . . . . . . . . . . . . . . ",
". . . . . . . . . . . . . . . . . . . . . . . . . . ].H H H ].H /.. . . ].].;.Z ].{.].. . . . . . . . . . . . . . . . . . . . . ",
". . . . . . . . . . . . . . . . . . . . . . . . . . . /.Y ].H ].].. . . ].;.s ;.].].].. . . . . . . . . . . . . . . . . . . . . ",
". . . . . . . . . . . . . . . . . . . . . . . . . . . /._.Y H H Y . . . B O ;.;.;.O ].. . . . . . . . . . . . . . . . . . . . . ",
". . . . . . . . . . . . . . . . . . . . . . . . . . . . /.Y H H _.. . . H ;.u U O ].H . . . . . . . . . . . . . . . . . . . . . ",
". . . . . . . . . . . . . . . . . . . . . . . . . . .  .Y /.Y ]._.. . . . B  .u  .Y H . . . . . . . . . . . . . . . . . . . . . ",
". . . . . . . . . . . . . . . . . . . . . . . . . . Y Y Y /./.Y _.. . . . Y $.#. ._.. . . . . . . . . . . . . . . . . . . . . . ",
". . . . . . . . . . . . . . . . . . . . . . . . . Y %.Y Y Y Y Y /.. . . .  .Y O  ._.. . . . . . . . . . . . . . . . . . . . . . ",
". . . . . . . . . . . . . . . . . . . . . . . . O  . .%.Y Y Y :.:.. . . . Y t t t O . . . . . . . . . . . . . . . . . . . . . . ",
". . . . . . . . . . . . . . . . . . . . . . . . :.P P P :.:.:.. . . . . . O t u #. .. . . . . . . . . . . . . . . . . . . . . . ",
". . . . . . . . . . . . . . . . . . . . . . . . . . . . . . . . . . . . . Y  .$.$.Y . . . . . . . . . . . . . . . . . . . . . . ",
". . . . . . . . . . . . . . . . . . . . . . . . . . . . . . . . . . . . . _.Y Y Y _.. . . . . . . . . . . . . . . . . . . . . . ",
". . . . . . . . . . . . . . . . . . . . . . . . . . . . . . . . . . . . . :.:././.:.. . . . . . . . . . . . . . . . . . . . . . "};
