/* XPM */
static char * sold9_xpm[] = {
"64 64 73 1",
" 	c None",
".	c #980088",
"+	c #FF1F1F",
"@	c #B37347",
"#	c #CB7F4F",
"$	c #D78B5B",
"%	c #C76363",
"&	c #E30000",
"*	c #836B4B",
"=	c #A70000",
"-	c #D70000",
";	c #B79F87",
">	c #8B0000",
",	c #9F8363",
"'	c #A78F77",
")	c #A36B3F",
"!	c #BF5B5B",
"~	c #FF3F3F",
"{	c #CB0000",
"]	c #533F2F",
"^	c #43331B",
"/	c #8F5F37",
"(	c #9B3333",
"_	c #B34F4F",
":	c #FF0000",
"<	c #7F1B1B",
"[	c #4F0000",
"}	c #6F5743",
"|	c #5F4B37",
"1	c #BFA78F",
"2	c #972F2F",
"3	c #875733",
"4	c #A73F3F",
"5	c #8B2323",
"6	c #B30000",
"7	c #EF0000",
"8	c #BF0000",
"9	c #3B3B3B",
"0	c #9B0000",
"a	c #373F27",
"b	c #730000",
"c	c #670000",
"d	c #4B371B",
"e	c #6B4727",
"f	c #774F2B",
"g	c #BB5757",
"h	c #AF4747",
"i	c #8F2B2B",
"j	c #A33B3B",
"k	c #1F170B",
"l	c #CF8353",
"m	c #BF7B4B",
"n	c #7F532F",
"o	c #9B633B",
"p	c #474F33",
"q	c #831F1F",
"r	c #332B13",
"s	c #5F4323",
"t	c #6F7357",
"u	c #7B7F63",
"v	c #9F876F",
"w	c #3F472B",
"x	c #5B6347",
"y	c #53573B",
"z	c #4F3B23",
"A	c #676B4F",
"B	c #670B0B",
"C	c #3F2F17",
"D	c #272727",
"E	c #533F1F",
"F	c #6B0F0F",
"G	c #232323",
"H	c #5B0000",
"................................................................",
"................................................................",
"................................................................",
"................................................................",
"................................................................",
"................................................................",
"................................................................",
"................................................................",
"................................................................",
"................................................................",
"................................................................",
"................................................................",
"................................................................",
"................................................................",
"................................................................",
"................................................................",
"................................................................",
"................................................................",
"................................................................",
"................................................................",
"................................................................",
"................................................................",
"................................................................",
"................................................................",
"................................................................",
"................................................................",
"................................................................",
"................................................................",
"................................................................",
"................................................................",
"................................................................",
"................................................................",
"................................................................",
"................................................................",
"................................................................",
"................................................................",
".......................................+.....+..................",
"............................@#$$#%&*+=-=+;>;,,''................",
"...........................)@$@!%%%~~-=>{{]^+;**,,'',*..........",
".........................../)@)(__:+++--<[>+;},|1,1;;',.........",
"...........................23425>66++-=+789[0]|},}^]|},*........",
"............................22aa5>>6b0b87>>cc0]}|deeef]}........",
".........................(4gg_!!h2]60b}i(jj(]kca^e@lm)n]........",
".......................(4gghhg_((hjcc[<(hhh_j(cc^e)m@oo]........",
"......................(]pp]gijqhdii[[[2h]]^r^<rc^stuuvtn........",
"......................wxxxpw^_(q(q][[k(^pxxyy]rb]t)3)o/x........",
".....................2pppxxprqjrdd^[[zrpxxhxxya[^x3)mm)/>.......",
"....................xAxxwahprq^rd^rk[zrxh(!!!(yr.p3gmmg/........",
"....................gtttxya2rkrrrrr.[rayqhhhhhqr..e)ggn/........",
"...................yA_tA4yaBarrr..b.[rry(CCCCC(r..e3ejgg:{~.....",
"............2hhh(.Cp4yA_p^aa^.....C.b[[aCDkkkDC....e>((((>>.....",
"...........<5(((((d_(5y_p^^^......E.b.[rkkkkkkk[b..~{&({j~......",
"...........<DDD<(555h(Fp^^..........r.b.kkkkkkk[....>~>~>~......",
"...........kkkkkD<5(5Fda..........b.d.r.kkkkkkk[.....>.>.>......",
"............kkkkkDD555C.............eE..kGGGGk[.0...............",
"..............kkkkkDDFD.................kkkkkk.[bb..............",
"...............kGGGkkD...............b...kkkk..b.H.b............",
".................kkkk..............b..[.......b.................",
"........................................b.......................",
".....................................b..............0...........",
".....................................b...>......................",
".......................................66.......................",
".......................................>b.......................",
"................................................................"};
