/* XPM */
static char * sold10_xpm[] = {
"64 64 71 1",
" 	c None",
".	c #980088",
"+	c #C76363",
"@	c #E30000",
"#	c #836B4B",
"$	c #FF1F1F",
"%	c #A70000",
"&	c #D70000",
"*	c #B79F87",
"=	c #8B0000",
"-	c #9F8363",
";	c #B37347",
">	c #CB7F4F",
",	c #BF5B5B",
"'	c #FF3F3F",
")	c #CB0000",
"!	c #533F2F",
"~	c #43331B",
"{	c #A78F77",
"]	c #A36B3F",
"^	c #AF4747",
"/	c #9B3333",
"(	c #B34F4F",
"_	c #FF0000",
":	c #7F1B1B",
"<	c #4F0000",
"[	c #8F5F37",
"}	c #6B4727",
"|	c #8B2323",
"1	c #B30000",
"2	c #EF0000",
"3	c #BF0000",
"4	c #3B3B3B",
"5	c #9B0000",
"6	c #5F4B37",
"7	c #6F5743",
"8	c #BFA78F",
"9	c #A73F3F",
"0	c #BB5757",
"a	c #972F2F",
"b	c #730000",
"c	c #8F2B2B",
"d	c #A33B3B",
"e	c #1F170B",
"f	c #670000",
"g	c #474F33",
"h	c #373F27",
"i	c #4B371B",
"j	c #774F2B",
"k	c #3F472B",
"l	c #5B6347",
"m	c #831F1F",
"n	c #332B13",
"o	c #5F4323",
"p	c #6F7357",
"q	c #7B7F63",
"r	c #9F876F",
"s	c #7F532F",
"t	c #272727",
"u	c #53573B",
"v	c #676B4F",
"w	c #875733",
"x	c #9B633B",
"y	c #4F3B23",
"z	c #BF7B4B",
"A	c #771717",
"B	c #3F2F17",
"C	c #CB6B6B",
"D	c #5B0000",
"E	c #6B0F0F",
"F	c #232323",
"................................................................",
"................................................................",
"................................................................",
"................................................................",
"................................................................",
"................................................................",
"................................................................",
"................................................................",
"................................................................",
"................................................................",
"................................................................",
"................................................................",
"................................................................",
"................................................................",
"................................................................",
"................................................................",
"................................................................",
"................................................................",
"................................................................",
"................................................................",
"................................................................",
"................................................................",
"................................................................",
"................................................................",
"................................................................",
"................................................................",
"................................................................",
"................................................................",
"................................................................",
"................................................................",
"................................................................",
"................................................................",
"................................................................",
"................................................................",
"................................................................",
"................................................................",
"................................................................",
"................................................................",
"................................................................",
"................................................................",
"................................................................",
"................................................................",
"................................................................",
"................................................................",
"................................................................",
"................................................................",
"................................................................",
"..............................+@#$%&%$*=*-......................",
".........................;>;,+++''&%=))!~$-{{...................",
"........................];+^/((_$$$&&:<=$**##--{{-#.............",
"........................[];}|=11$$&%$234<5!678-8**{-............",
"....................../900(,,^a!15b7c/dd/!ef7-7~!67-#...........",
"...........^^^^..../!gg!0c0(//^dff<:/^^^(d/fh6i}}}j!7...........",
"..........|///^^..kggglgk~dm^icc<<<a^!!~n~:nf~opqqrps...........",
".........:ttt:/^uvv(lkhlgn(/m/m!<<e/~g9,,,9uf~p]w]x[l...........",
".........eeeeet||9(pv9ul/nmdnii~<<yng/^^^^^/b!lw0zz0[...........",
"..........eeeeeAm/uv(/uhgnm~ni~ne<ynl/BBBBB/<~gw]0Cs[...........",
"..........eeeeetA^au(ukhhhennnsssnnhuBteeetBn.n}w}d00_)'........",
"...........eeeeeta/mghA|h~nnnbo}oinnueeeeeeen..}}=////==........",
"............ttttt|mmh~~~~..bb555555<heeeeeeen...')@/)d'.........",
"............eeeeet|B.............DDDneeeeeeeDb1..='='='.........",
".............eeeeeEt.................eFFFFe.......=.=.=.........",
"..............eeeet.............D..DDeeeeee..DD.D...............",
"......................................eeee........D............."};
