/* XPM */
static char * sold5_xpm[] = {
"64 64 105 2",
"  	c None",
". 	c #980088",
"+ 	c #676B4F",
"@ 	c #6F7357",
"# 	c #7B7F63",
"$ 	c #937B63",
"% 	c #CF8353",
"& 	c #E79B6B",
"* 	c #FFBF9B",
"= 	c #FFB383",
"- 	c #EFA373",
"; 	c #9F876F",
"> 	c #2F6323",
", 	c #3F832F",
"' 	c #B37347",
") 	c #37732B",
"! 	c #CB5707",
"~ 	c #F7AB7B",
"{ 	c #BF7B4B",
"] 	c #8F5F37",
"^ 	c #27531B",
"/ 	c #D78B5B",
"( 	c #AB6F43",
"_ 	c #875733",
": 	c #1F4317",
"< 	c #EB6F0F",
"[ 	c #4F4F4F",
"} 	c #731313",
"| 	c #636363",
"1 	c #CB7F4F",
"2 	c #9B633B",
"3 	c #FF7F1B",
"4 	c #A36B3F",
"5 	c #13230B",
"6 	c #DF670F",
"7 	c #FF0000",
"8 	c #BF0000",
"9 	c #FF8F3B",
"0 	c #6B4727",
"a 	c #6B6B6B",
"b 	c #777777",
"c 	c #F37317",
"d 	c #9F8363",
"e 	c #836B4B",
"f 	c #AF4300",
"g 	c #B74700",
"h 	c #474747",
"i 	c #A78F77",
"j 	c #B34F4F",
"k 	c #BB5757",
"l 	c #BF5B5B",
"m 	c #9B3333",
"n 	c #972F2F",
"o 	c #A73F3F",
"p 	c #CB6B6B",
"q 	c #B79F87",
"r 	c #AF977F",
"s 	c #8F7753",
"t 	c #BFA78F",
"u 	c #6F5743",
"v 	c #43331B",
"w 	c #67533F",
"x 	c #DB7B7B",
"y 	c #9B7F6B",
"z 	c #533F2F",
"A 	c #332B13",
"B 	c #434343",
"C 	c #2F2F2F",
"D 	c #232323",
"E 	c #AF4747",
"F 	c #7F1B1B",
"G 	c #5F4323",
"H 	c #3B3B3B",
"I 	c #5B5B5B",
"J 	c #BFBFBF",
"K 	c #7F7F7F",
"L 	c #373737",
"M 	c #4B371B",
"N 	c #979797",
"O 	c #272727",
"P 	c #6F6F6F",
"Q 	c #8B8B8B",
"R 	c #838383",
"S 	c #5B6347",
"T 	c #53573B",
"U 	c #575757",
"V 	c #A33B3B",
"W 	c #8B2323",
"X 	c #3F2F17",
"Y 	c #8F2B2B",
"Z 	c #7F532F",
"` 	c #3F472B",
" .	c #831F1F",
"..	c #670B0B",
"+.	c #530707",
"@.	c #6B0F0F",
"#.	c #474F33",
"$.	c #373F27",
"%.	c #5B0707",
"&.	c #771717",
"*.	c #533F1F",
"=.	c #774F2B",
"-.	c #2B230F",
";.	c #1F170B",
">.	c #5F0707",
". . . . . . . . . . . . . . . . . . . . . . . . . . . . . . . . . . . . . . . . . . . . . . . . . . . . . . . . . . . . . . . . ",
". . . . . . . . . . . . . . . . . . . . . . . . . . . . . . . . . . . . . . . . . . . . . . . . . . . . . . . . . . . . . . . . ",
". . . . . . . . . . . . . . . . . . . . . . . . . . . . . . . . . . . . . . . . . . . . . . . . . . . . . . . . . . . . . . . . ",
". . . . . . . . . . . . . . . . . . . . . . . . . . . . . . . . . . . . . . . . . . . . . . . . . . . . . . . . . . . . . . . . ",
". . . . . . . . . . . . . . . . . . . . . . . . . . . . . . . . . . . . . . . . . . . . . . . . . . . . . . . . . . . . . . . . ",
". . . . . . . . . . . . . . . . . . . . . . . . . . . . . . . . . . . . . . . . . . . . . . . . . . . . . . . . . . . . . . . . ",
". . . . . . . . . . . . . . . . . . . . . . . . . . . . . . . . . . . . . . . . . . . . . . . . . . . . . . . . . . . . . . . . ",
". . . . . . . . . . . . . . . . . . . . . . . . . . . . . . . . . . . . . . . . . . . . . . . . . . . . . . . . . . . . . . . . ",
". . . . . . . . . . . . . . . . . . . . . . . . . . . . . . . . . . . . . . . . . . . . . . . . . . . . . . . . . . . . . . . . ",
". . . . . . . . . . . . . . . . . . . . . . . . . . . . . . . . . . . . + @ # # # $ . . . . . . . . . . . . . . . . . . . . . . ",
". . . . . . . . . . . . . . . . . . . . . . . . . . . . . . . . . . . % & * = - % # ; @ . . . . . . . . . . . . . . . . . . . . ",
". . . . . . . . . . . . . . . . . . . . . . . . . . . . . . . . . . > , * , > , ' ' > ) @ . . . . . . . . . . . . . . . . . . . ",
". . . . . . . . . . . . . . . . . . . . . . . . . . . . . . ! . . . . = ~ ~ { ] % > > ^ ^ . . . . . . . . . . . . . . . . . . . ",
". . . . . . . . . . . . . . . . . . . . . . . . . . . . . . . . . . / ( { & * = - > { _ : . . . . . . . . . . . . . . . . . . . ",
". . . . . . . . . . . . . . . . . . . . . . . . . . . . . . . . < . ] [ } | & { & 1 2 _ : . . . . . . . . . . . . . . . . . . . ",
". . . . . . . . . . . . . . . . . . . . . . . . . . . . . . . . . . ! } } } 3 4 % _ 2 : 5 . . . . . . . . . . . . . . . . . . . ",
". . . . . . . . . . . . . . . . . . . . . . . . . . . . . . . . 3 . 6 7 8 _ 9 ' / _ 0 5 . . . . . . . . . . . . . . . . . . . . ",
". . . . . . . . . . . . . . . . . . . . . . . . . . . . . . . . a b 2 c c 3 / / 2 _ 0 . . . . . . . . . . . . . . . . . . . . . ",
". . . . . . . . . . . . . . . . . . . . . . . . . . . d d d d d e | | f g g f h h h h . . . . . . . . . . . . . . . . . . . . . ",
". . . . . . . . . . . . . . . . . . . . . . . . . d d i d d i j k l m n o l p q r ; q r r d e . . . . . . . . . . . . . . . . . ",
". . . . . . . . . . . . . . . . . . . . . . . . s d i d d i p r p j n o k p q q q i ; t q r d d u . . . . . . . . . . . . . . . ",
". . . . . . . . . . . . . . . . . . . . . . . . v e d w d p j p k j o j k p x t q q y t r r i d w . . . . . . . . . . . . . . . ",
". . . . . . . . . . . . . . . . . . . . . . . . 2 2 { z d d d k o j m j k l q r i $ A v z w u s u w . . . . . . . . . . . . . . ",
". . . . . . . . . . . . . . . . . . . . . . . 2 1 ' ] B C C C C D j E m F F m e w v G 2 % ] 0 C H . . . . . . . . . . . . . . . ",
". . . . . . . . . . . . . . . . . . . . . . . C C C D D v w u D D I J k x q ; J K D C C C C C L D . . . . . . . . . . . . . . . ",
". . . . . . . . . . . . . . . . . . . B D C C C 0 0 M L u | K [ I N N N N N N I D C O D D D O O [ ] . . . . . . . . . . . . . . ",
". . . . . . . . . . . . . . . . . . D D D . . P b b b b b I B B B I Q Q R K P h D D L G G 2 # ; { v . . . . . . . . . . . . . . ",
". . . . . . . . . . . . . . . . . B C C [ b b P I [ B L [ L B B L h I I I I I I C D E ' ' 4 S # @ T . . . . . . . . . . . . . . ",
". . . . . . . . . . . . I I I I I B | U I B B L L L L B H B B B L L C O n V n V W X Y { ' j Z T T ` . . . . . . . . . . . . . . ",
". . . . . . . . . . . h C C C C C C L B B L L B B B B B B B B L L C D  .} ..+.}  .@.X o o ] F #.$.$.. . . . . . . . . . . . . . ",
". . . . . . . . . . . O C C C C C O L B B B B B B B B [ [ [ L C L C D D %.%.+.%.%.%.%.&.Y G G $.O . . . . . . . . . . . . . . . ",
". . . . . . . . . . . . D C C C C O B [ [ [ [ C C B L O O O O B [ [ B B D +.+.+.+.+.+.+.v v v *.. . . . . . . . . . . . . . . . ",
". . . . . . . . . . . . O C C C C  .W D C O C X W . + O O O O @ =.Z ] ] ] 2 ] S T #.O -.$.. . . . . . . . . . . . . . . . . . . ",
". . . . . . . . . . . . . C C C C } } n D O C D . . #.#.O O O #.0 G G G X ;.M O $.S -.-.-.. . . . . . . . . . . . . . . . . . . ",
". . . . . . . . . . . . . O C C . . } } W C C O D . S $.O O O C G G G G G M 0 #.-.$.O -.$.. . . . . . . . . . . . . . . . . . . ",
". . . . . . . . . . . . . . . . . . . ..} C C C O . $ A B O O A X X X X X M ;.d e D D C . . . . . . . . . . . . . . . . . . . . ",
". . . . . . . . . . . . . . . . . . . . . . . . . . w z v A A A $.#.#.#.S S w d s z A ;.;.. . . . . . . . . . . . . . . . . . . ",
". . . . . . . . . . . . . . . . . . . . . . . . . w w v A ;.z w -.$.$.#.#.C e e w v A A A v . . . . . . . . . . . . . . . . . . ",
". . . . . . . . . . . . . . . . . . . . . . . . e A w V V m z d -.O O O $.u d d u v A A A ;.. . . . . . . . . . . . . . . . . . ",
". . . . . . . . . . . . . . . . . . . . . . . . w u V l w v l z v -.-.;.u e w u E v A A A ;.. . . . . . . . . . . . . . . . . . ",
". . . . . . . . . . . . . . . . . . . . . . . . z s u z z l w z z -.-.v X w e E W z A A A ;.. . . . . . . . . . . . . . . . . . ",
". . . . . . . . . . . . . . . . . . . . . . . . z w z w u n v v v -.A ;.s u M M M v A A A ;.. . . . . . . . . . . . . . . . . . ",
". . . . . . . . . . . . . . . . . . . . . . . . v z z n n @.A v v A . ;.e E n  .M v v v v ;.. . . . . . . . . . . . . . . . . . ",
". . . . . . . . . . . . . . . . . . . . . . . . . v z n &.@.v z A A . w w w Y @.@. .A A A . . . . . . . . . . . . . . . . . . . ",
". . . . . . . . . . . . . . . . . . . . . . . . . v n &...A W v A . . . z u  .>.X @.>.v A . . . . . . . . . . . . . . . . . . . ",
". . . . . . . . . . . . . . . . . . . . . . . . . A &...v W &.A v . . . v v M M >.>.v v A . . . . . . . . . . . . . . . . . . . ",
". . . . . . . . . . . . . . . . . . . . . . . . . A z v >.&.>.v A v . . A v  .@.>.v v z A . . . . . . . . . . . . . . . . . . . ",
". . . . . . . . . . . . . . . . . . . . . . . . . $.S v v z &.v A A . . A $.$.` #.#.#.$.v . . . . . . . . . . . . . . . . . . . ",
". . . . . . . . . . . . . . . . . . . . . . . . . $.@ S #.$.v ;.;.;.. . . $.#.#.#.#.$.-.. . . . . . . . . . . . . . . . . . . . ",
". . . . . . . . . . . . . . . . . . . . . . . . . O #.#.#.#.$.$.$.O . . . A $.#.#.#.F -.. . . . . . . . . . . . . . . . . . . . ",
". . . . . . . . . . . . . . . . . . . . . . . . . $.` $.$.A ....A -.. . . ;.A A A A ;.... . . . . . . . . . . . . . . . . . . . ",
". . . . . . . . . . . . . . . . . . . . . . . . . . $.$.$.$.A -.$.-.. . . ;.$.$.$.$.$.;.. . . . . . . . . . . . . . . . . . . . ",
". . . . . . . . . . . . . . . . . . . . . . . . . . . $.A A A $.A -.. . . $.$.#.` $.$.$.. . . . . . . . . . . . . . . . . . . . ",
". . . . . . . . . . . . . . . . . . . . . . . . . . . . -.X $.A $.$.. . . $.#.#.#.$.F $.. . . . . . . . . . . . . . . . . . . . ",
". . . . . . . . . . . . . . . . . . . . . . . . . . . . -.;.X A A X . . . v M #.#.#.M $.. . . . . . . . . . . . . . . . . . . . ",
". . . . . . . . . . . . . . . . . . . . . . . . . . . . . -.X A A ;.. . . A #.o S M $.A . . . . . . . . . . . . . . . . . . . . ",
". . . . . . . . . . . . . . . . . . . . . . . . . . . .  .X -.X $.;.. . . . v  .o  .X A . . . . . . . . . . . . . . . . . . . . ",
". . . . . . . . . . . . . . . . . . . . . . . . . . . X X X -.-.X ;.. . . . X W Y  .;.. . . . . . . . . . . . . . . . . . . . . ",
". . . . . . . . . . . . . . . . . . . . . . . . . . X &.X X X X X -.. . . .  .X M  .;.. . . . . . . . . . . . . . . . . . . . . ",
". . . . . . . . . . . . . . . . . . . . . . . . . M  . .&.X X X O O . . . . X n n n M . . . . . . . . . . . . . . . . . . . . . ",
". . . . . . . . . . . . . . . . . . . . . . . . . O L L L O O O . . . . . . M n o Y  .. . . . . . . . . . . . . . . . . . . . . ",
". . . . . . . . . . . . . . . . . . . . . . . . . . . . . . . . . . . . . . X  .W W X . . . . . . . . . . . . . . . . . . . . . ",
". . . . . . . . . . . . . . . . . . . . . . . . . . . . . . . . . . . . . . ;.X X X ;.. . . . . . . . . . . . . . . . . . . . . ",
". . . . . . . . . . . . . . . . . . . . . . . . . . . . . . . . . . . . . . O O -.-.O . . . . . . . . . . . . . . . . . . . . . "};
