/* XPM */
static char * sold4_xpm[] = {
"64 64 114 2",
"  	c None",
". 	c #980088",
"+ 	c #9F876F",
"@ 	c #B79F87",
"# 	c #6F7357",
"$ 	c #2F6323",
"% 	c #27531B",
"& 	c #37732B",
"* 	c #3F832F",
"= 	c #439337",
"- 	c #9B7F6B",
"; 	c #AF977F",
"> 	c #CF8353",
", 	c #BF7B4B",
"' 	c #F7AB7B",
") 	c #FFBB93",
"! 	c #EFA373",
"~ 	c #875733",
"{ 	c #DF9363",
"] 	c #FFC7A7",
"^ 	c #B37347",
"/ 	c #9B0000",
"( 	c #D78B5B",
"_ 	c #FF7B7B",
": 	c #E79B6B",
"< 	c #A36B3F",
"[ 	c #C39B2F",
"} 	c #FF9B9B",
"| 	c #774F2B",
"1 	c #AF7B1F",
"2 	c #8F5F37",
"3 	c #636363",
"4 	c #9B3333",
"5 	c #9B633B",
"6 	c #D75F0B",
"7 	c #7F1B1B",
"8 	c #9B5B13",
"9 	c #3B3B3B",
"0 	c #777777",
"a 	c #A78F77",
"b 	c #9F8363",
"c 	c #6F5743",
"d 	c #5B472B",
"e 	c #AF4300",
"f 	c #BF5B5B",
"g 	c #732B00",
"h 	c #BFA78F",
"i 	c #836B4B",
"j 	c #533F2F",
"k 	c #5F4B37",
"l 	c #B74700",
"m 	c #775F4B",
"n 	c #43331B",
"o 	c #1F170B",
"p 	c #937B63",
"q 	c #FF8F3B",
"r 	c #FFA35B",
"s 	c #8F7753",
"t 	c #67533F",
"u 	c #831F1F",
"v 	c #4B371B",
"w 	c #836B57",
"x 	c #FF7F1B",
"y 	c #8B2323",
"z 	c #8F2B2B",
"A 	c #A73F00",
"B 	c #CB5707",
"C 	c #332B13",
"D 	c #6B4727",
"E 	c #5F4323",
"F 	c #6B0F0F",
"G 	c #DF670F",
"H 	c #CB7F4F",
"I 	c #5B0707",
"J 	c #5F0707",
"K 	c #7F532F",
"L 	c #EB6F0F",
"M 	c #575757",
"N 	c #771717",
"O 	c #D7BB43",
"P 	c #EBDB57",
"Q 	c #972F2F",
"R 	c #A73F3F",
"S 	c #AF4747",
"T 	c #FFFF73",
"U 	c #6F6F6F",
"V 	c #675333",
"W 	c #5B6347",
"X 	c #7B7F63",
"Y 	c #474F33",
"Z 	c #5B5B5B",
"` 	c #232323",
" .	c #272727",
"..	c #3F472B",
"+.	c #4F4F4F",
"@.	c #474747",
"#.	c #373F27",
"$.	c #2F2F2F",
"%.	c #434343",
"&.	c #A33B3B",
"*.	c #B34F4F",
"=.	c #4F3B23",
"-.	c #2B230F",
";.	c #53573B",
">.	c #3F2F17",
",.	c #731313",
"'.	c #373737",
").	c #670B0B",
"!.	c #7B634F",
"~.	c #676B4F",
"{.	c #C34F00",
"].	c #BB5757",
"^.	c #4F0000",
"/.	c #430000",
". . . . . . . . . . . . . . . . . . . . . . . . . . . . . . . . . . . . . . . . . . . . . . . . . . . . . . . . . . . . . . . . ",
". . . . . . . . . . . . . . . . . . . . . . . . . . . . . . . . . . . . . . . . . . . . . . . . . . . . . . . . . . . . . . . . ",
". . . . . . . . . . . . . . . . . . . . . . . . . . . . . . . . . . . . . . . . . . . . . . . . . . . . . . . . . . . . . . . . ",
". . . . . . . . . . . . . . . . . . . . . . . . . . . . . . . . . . . . . . . . . . . . . . . . . . . . . . . . . . . . . . . . ",
". . . . . . . . . . . . . . . . . . . . . . . . . . . . . . . . . . . . . . . . . . . . . . . . . . . . . . . . . . . . . . . . ",
". . . . . . . . . . . . . . . . . . . . . . . . . . . . . . . . . . . . . . . . . . . . . . . . . . . . . . . . . . . . . . . . ",
". . . . . . . . . . . . . . . . . . . . . . . . . . . . . . . . . . . . . . . . . . . . . . . . . . . . . . . . . . . . . . . . ",
". . . . . . . . . . . . . . . . . . . . . . . . . . . . . . . . . . . . . . . . . . . . . . . . . . . . . . . . . . . . . . . . ",
". . . . . . . . . . . . . . . . . . . . . . . . . . . . . . . . . . . . . . . . . . . . . . . . . . . . . . . . . . . . . . . . ",
". . . . . . . . . . . . . . . . . . . . . . . . . . . + @ @ @ + # $ % . . . . . . . . . . . . . . . . . . . . . . . . . . . . . ",
". . . . . . . . . . . . . . . . . . . . . . . . . . & * = = * & $ $ % . . . . . . . . . . . . . . . . . . . . . . . . . . . . . ",
". . . . . . . . . . . . . . . . . . . . . . . . . . - ; ; @ ; > , % % . . . . . . . . . . . . . . . . . . . . . . . . . . . . . ",
". . . . . . . . . . . . . . . . . . . . . . . . . , > ' ) ' ) ! , $ ~ . . . . . . . . . . . . . . . . . . . . . . . . . . . . . ",
". . . . . . . . . . . . . . . . . . . . . . . . . * { ' ] { ) = , * ^ . . . . . . . . . . . . . . . . . . . . . . . . . . . . . ",
". . . . . . . . . . . . . . . . . . . . . . . . . . / % ( % / _ : ^ < . . . . . . . . . . . . . . . . . . . . . . . . . . . . . ",
". . . . . . . . . . . . . . . . . . . . . . . . . , [ , ! > { } : | % . . . . . . . . . . . . . . . . . . . . . . . . . . . . . ",
". . . . . . . . . . . . . . . . . . . . . . . . . < { [ 1 [ ! , , 2 . . . . . . . . . . . . . . . . . . . . . . . . . . . . . . ",
". . . . . . . . . . . . . . . . . . . . . . . . . . 1 3 4 3 [ , 5 2 . . . . . . . . . . . . . . . . . . . . . . . . . . . . . . ",
". . . . . . . . . . . . . . . . . . . . . . . . . . 6 4 7 4 1 8 9 0 a a b b . . . . . . . . . . . . . . . . . . . . . . . . . . ",
". . . . . . . . . . . . . . . . . . . . . . . c c d e f f f 1 g c ; @ h @ h @ i j . . . . . . . . . . . . . . . . . . . . . . . ",
". . . . . . . . . . . . . . . . . . . . . . b k d 9 9 e l e g i - h h h h h @ + m j . . . . . . . . . . . . . . . . . . . . . . ",
". . . . . . . . . . . . . . . . . . . . . c c k n n n o n 7 4 a p - q r @ @ @ a s t . . . . . . . . . . . . . . . . . . . . . . ",
". . . . . . . . . . . . . . . . . . . . c i c u k v v n 7 4 f a p w x x r @ @ a s t j . . . . . . . . . . . . . . . . . . . . . ",
". . . . . . . . . . . . . . . . . . . . c i u c y z z u 4 f p b w A A A l B B c j n j . . . . . . . . . . . . . . . . . . . . . ",
". . . . . . . . . . . . . . . . . . . . . C n j c z z u 4 f s b j D ^ > ( , , ^ 5 | E . . . . . . . . . . . . . . . . . . . . . ",
". . . . . . . . . . . . . . . . . . . . . o n j j F F F y z k c | ~ G x q , H , 5 | E . . . . . . . . . . . . . . . . . . . . . ",
". . . . . . . . . . . . . . . . . . . B . o n C n C I I I I J C | 5 G x q ( > > K E . . . . . . . . . . . . . . . . . . . . . . ",
". . . . . . . . . . . . . . . . . . L [ L M i d C C N u u u c k c ~ ^ q q > > K D E . . . . . . . . . . . . . . . . . . . . . . ",
". . . . . . . . . . . . . . . . . L O P O L b i n n Q R S S i j n e G G @ @ + < E D . . . . . . . . . . . . . . . . . . . . . . ",
". . . . . . . . . . . . . . . . B [ P T P [ B U n n 7 7 u u V V , { H W X X X # Y . . . . . . . . . . . . . . . . . . . . . . . ",
". . . . . . . . . . . . . . . . . L O P O L Z Z ` ` `  .` K K G x x > ^ Y W W ..` . . . . . . . . . . . . . . . . . . . . . . . ",
". . . . . . . . . . . . . . . . . . G [ G ` +.+.@.@.n v D L L L L ^ 2 | Y  . .#.` . . . . . . . . . . . . . . . . . . . . . . . ",
". . . . . . . . . . . . . . . . . . | B $.` $.%.&.Q L f ^ f *.z z E =.n -.` $.`  .;.. . . . . . . . . . . . . . . . . . . . . . ",
". . . . . . . . . . . . . . . . . . E >.$. .$.` z S &.Q Q v ,.,.I I -.-.-.-.-.-.-.#.. . . . . . . . . . . . . . . . . . . . . . ",
". . . . . . . . . . . . . . . . . . 2 F 9 ` ` $.z y y J J I v n o o $.-.-.-.-.-.` -.. . . . . . . . . . . . . . . . . . . . . . ",
". . . . . . . . . . . . . . . . . . . F F '.` F F F F $.$.#.Y #.#.$.` ` o o o o o . . . . . . . . . . . . . . . . . . . . . . . ",
". . . . . . . . . . . . . . . . . . . y u F %.C C C C -.n n #.n C ` ` ` -.o o o C C . . . . . . . . . . . . . . . . . . . . . . ",
". . . . . . . . . . . . . . . . . . . . . . . c C C C -.o C C C o  .C -.o o o o C j n . . . . . . . . . . . . . . . . . . . . . ",
". . . . . . . . . . . . . . . . . . . . . . . o C C C o -.o o o -.-.o o o o -.-.n k k . . . . . . . . . . . . . . . . . . . . . ",
". . . . . . . . . . . . . . . . . . . . . . . o n C C C o -.o o C n -.-.C C C n -.c n . . . . . . . . . . . . . . . . . . . . . ",
". . . . . . . . . . . . . . . . . . . . . . . C n n n n C o -.-.n n C C N n n u j j n . . . . . . . . . . . . . . . . . . . . . ",
". . . . . . . . . . . . . . . . . . . . . . . n j n n n C C o o -.C C C u z y u j c n . . . . . . . . . . . . . . . . . . . . . ",
". . . . . . . . . . . . . . . . . . . . . . . o n j C n n o C o o -.n C u z z y k j C . . . . . . . . . . . . . . . . . . . . . ",
". . . . . . . . . . . . . . . . . . . . . . . o j j j n C I I o o C n =.N u u u N j C . . . . . . . . . . . . . . . . . . . . . ",
". . . . . . . . . . . . . . . . . . . . . . . j N n C C n o o o o C =.N R 4 v 4 N j . . . . . . . . . . . . . . . . . . . . . . ",
". . . . . . . . . . . . . . . . . . . . . . . y N n n n o I o o o n y 4 4 c y R Q n . . . . . . . . . . . . . . . . . . . . . . ",
". . . . . . . . . . . . . . . . . . . . . . . y y N n ).I C o o o C y z c !.c 4 y j . . . . . . . . . . . . . . . . . . . . . . ",
". . . . . . . . . . . . . . . . . . . . . . . y Q N n n ).C o o o C j ~.L L X ;.n d . . . . . . . . . . . . . . . . . . . . . . ",
". . . . . . . . . . . . . . . . . . . . . . . j y n N n C o o o o C W # X a # # ;.d . . . . . . . . . . . . . . . . . . . . . . ",
". . . . . . . . . . . . . . . . . . . . . . . #.~.~.Y #.C C C -.-.C Y # X X # W Y . . . . . . . . . . . . . . . . . . . . . . . ",
". . . . . . . . . . . . . . . . . . . . . . . W Y Y #.#.n C C -.-.o #.Y ~.~.4 y  .. . . . . . . . . . . . . . . . . . . . . . . ",
". . . . . . . . . . . . . . . . . . . . . . . . #...#.n C C C C C C #.#.#.Y ..;.Y . . . . . . . . . . . . . . . . . . . . . . . ",
". . . . . . . . . . . . . . . . . . . . . . . . . . C C C C C C C C ..A {.B {.A # #.. . . . . . . . . . . . . . . . . . . . . . ",
". . . . . . . . . . . . . . . . . . . . . . . . . . . C C C C C -.C #.Y W ~.~.~.~.#.. . . . . . . . . . . . . . . . . . . . . . ",
". . . . . . . . . . . . . . . . . . . . . . . . . . . . C #.C C -.C ..;.~.].~.~.W #.. . . . . . . . . . . . . . . . . . . . . . ",
". . . . . . . . . . . . . . . . . . . . . . . . . . . . C C J C -.C C Y ;.~.~.].;.Y . . . . . . . . . . . . . . . . . . . . . . ",
". . . . . . . . . . . . . . . . . . . . . . . . . . . . F F C J C -.#...4 W ].v #.. . . . . . . . . . . . . . . . . . . . . . . ",
". . . . . . . . . . . . . . . . . . . . . . . . . . . u ^././.C C -.#.. #.Q Q Q -.. . . . . . . . . . . . . . . . . . . . . . . ",
". . . . . . . . . . . . . . . . . . . . . . . . . . u N N F o J -.-.. . #.7 F F  .. . . . . . . . . . . . . . . . . . . . . . . ",
". . . . . . . . . . . . . . . . . . . . . . . . . 7 y F F >.C C C . . . ` y Q v >.. . . . . . . . . . . . . . . . . . . . . . . ",
". . . . . . . . . . . . . . . . . . . . . . . . . $.'.'.'.$.` ` . . . . 4 R R z u v . . . . . . . . . . . . . . . . . . . . . . ",
". . . . . . . . . . . . . . . . . . . . . . . . . . . . . . . . . . y R R R z y u  .. . . . . . . . . . . . . . . . . . . . . . ",
". . . . . . . . . . . . . . . . . . . . . . . . . . . . . . . . . . y y y y v >.v  .. . . . . . . . . . . . . . . . . . . . . . ",
". . . . . . . . . . . . . . . . . . . . . . . . . . . . . . . . . .  .$.'.'.'.'. .. . . . . . . . . . . . . . . . . . . . . . . "};
