/* XPM */
static char * sold8_xpm[] = {
"64 64 96 2",
"  	c None",
". 	c #980088",
"+ 	c #BF0000",
"@ 	c #CF8353",
"# 	c #FFB383",
"$ 	c #FFBF9B",
"% 	c #EFA373",
"& 	c #7B7F63",
"* 	c #EF0000",
"= 	c #CB5707",
"- 	c #FF0000",
"; 	c #4F4F4F",
"> 	c #27531B",
", 	c #B37347",
"' 	c #9B633B",
") 	c #439337",
"! 	c #2F6323",
"~ 	c #A36B3F",
"{ 	c #836B4B",
"] 	c #9F8363",
"^ 	c #8F7753",
"/ 	c #FF5F5F",
"( 	c #A78F77",
"_ 	c #A73F3F",
": 	c #6B4727",
"< 	c #972F2F",
"[ 	c #A33B3B",
"} 	c #CB7F4F",
"| 	c #D78B5B",
"1 	c #AB6F43",
"2 	c #C76363",
"3 	c #B79F87",
"4 	c #FF1F1F",
"5 	c #B34F4F",
"6 	c #CB6B6B",
"7 	c #9B0000",
"8 	c #BFA78F",
"9 	c #6F5743",
"0 	c #D37373",
"a 	c #E30000",
"b 	c #CB0000",
"c 	c #8B735B",
"d 	c #8B0000",
"e 	c #43331B",
"f 	c #533F2F",
"g 	c #5F4B37",
"h 	c #8F5F37",
"i 	c #BF5B5B",
"j 	c #FF3F3F",
"k 	c #4B371B",
"l 	c #774F2B",
"m 	c #7B634F",
"n 	c #7F532F",
"o 	c #875733",
"p 	c #9B3333",
"q 	c #AF4747",
"r 	c #A70000",
"s 	c #670000",
"t 	c #470000",
"u 	c #8B2323",
"v 	c #7F1B1B",
"w 	c #4F0000",
"x 	c #BF7B4B",
"y 	c #67533F",
"z 	c #3B3B3B",
"A 	c #5F4323",
"B 	c #6F7357",
"C 	c #9F876F",
"D 	c #373F27",
"E 	c #5B6347",
"F 	c #53573B",
"G 	c #272727",
"H 	c #474F33",
"I 	c #430000",
"J 	c #1F4317",
"K 	c #1F170B",
"L 	c #5B0000",
"M 	c #332B13",
"N 	c #8F2B2B",
"O 	c #675333",
"P 	c #4F3B23",
"Q 	c #BB5757",
"R 	c #831F1F",
"S 	c #730000",
"T 	c #775F3F",
"U 	c #3F472B",
"V 	c #731313",
"W 	c #676B4F",
"X 	c #6B0F0F",
"Y 	c #3F2F17",
"Z 	c #670B0B",
"` 	c #771717",
" .	c #2B230F",
"..	c #474747",
"+.	c #373737",
"@.	c #434343",
". . . . . . . . . . . . . . . . . . . . . . . . . . . . . . . . . . . . . . . . . . . . . . . . . . . . . . . . . . . . . . . . ",
". . . . . . . . . . . . . . . . . . . . . . . . . . . . . . . . . . . . . . . . . . . . . . . . . . . . . . . . . . . . . . . . ",
". . . . . . . . . . . . . . . . . . . . . . . . . . . . . . . . . . . . . . . . . . . . . . . . . . . . . . . . . . . . . . . . ",
". . . . . . . . . . . . . . . . . . . . . . . . . . . . . . . . . . . . . . . . . . . . . . . . . . . . . . . . . . . . . . . . ",
". . . . . . . . . . . . . . . . . . . . . . . . . . . . . . . . . . . . . . . . . . . . . . . . . . . . . . . . . . . . . . . . ",
". . . . . . . . . . . . . . . . . . . . . . . . . . . . . . . . . . . . . . . . . . . . . . . . . . . . . . . . . . . . . . . . ",
". . . . . . . . . . . . . . . . . . . . . . . . . . . . . . . . . . . . . . . . . . . . . . . . . . . . . . . . . . . . . . . . ",
". . . . . . . . . . . . . . . . . . . . . . . . . . . . . . . . . . . . . . . . . . . . . . . . . . . . . . . . . . . . . . . . ",
". . . . . . . . . . . . . . . . . . . . . . . . . . . . . . . . . . . . . . . . . . . . . . . . . . . . . . . . . . . . . . . . ",
". . . . . . . . . . . . . . . . . . . . . . . . . . . . . . . . . . . . . . . . . . . . . . . . . . . . . . . . . . . . . . . . ",
". . . . . . . . . . . . . . . . . . . . . . . . . . . . . . . . . . . . . . . . . . . . . . . . . . . . . . . . . . . . . . . . ",
". . . . . . . . . . . . . . . . . . . . . . . . . . . . . . . . . . . . . . . . . . . . . . . . . . . . . . . . . . . . . . . . ",
". . . . . . . . . . . . . . . . . . . . . . . . . . . . . . . . . . . . . . . . . . . . . . . . . . . . . . . . . . . . . . . . ",
". . . . . . . . . . . . . . . . . . . . . . . . . . . . . . . . . . . . . . . . . . . . . . . . . . . . . . . . . . . . . . . . ",
". . . . . . . . . . . . . . . . . . . . . . . . . . . . . . . . . . . . . . . . . . . . . . . . . . . . . . . . . . . . . . . . ",
". . . . . . . . . . . . . . . . . . . . . . . . . . . . . . . . . . . . . . . . . . . . . . . . . . . . . . . . . . . . . . . . ",
". . . . . . . . . . . . . . . . . . . . . . . . . . . . . . . . . . . . . . . . . . . . . . . . . . . . . . . . . . . . . . . . ",
". . . . . . . . . . . . . . . . . . . . . . . . . . . . . . . . . . . . . . . . . . . . . . . . . . . . . . . . . . . . . . . . ",
". . . . . . . . . . . . . . . . . . . . . . . . . . . . . . . . . . . . . . . . . . . . . . . . . . . . . . . . . . . . . . . . ",
". . . . . . . . . . . . . . . . . . . . . . . . . . . . . . . . . . . . . . . . . . . . . . . . . . . . . . . . . . . . . . . . ",
". . . . . . . . . . . . . . . . . . . . . . . . . . . . . . . . . . . . . . . . . . . . . . . . . . . . . . . . . . . . . . . . ",
". . . . . . . . . . . . . . . . . . . . . . . . . . . . . . . . . . . . . . . . . . . . . . . . . . . . . . . . . . . . . . . . ",
". . . . . . . . . . . . . . . . . . . . . . . . . . . . . . . . . . . . . . . . . . . . . . . . . . . . . . . . . . . . . . . . ",
". . . . . . . . . . . . . . . . . . . . . . . . . . . . . . . . . . . . . . . . . . . . . . . . . . . . . . . . . . . . . . . . ",
". . . . . . . . . . . . . . . . . . . . . . . . . . . . . . . . . . . . . . . . . . . . . . . . . . . . . . . . . . . . . . . . ",
". . . . . . . . . . . . . . . . . . . . . . . . . . . . . . . . . . . . . . . . . . . . . . . . . . . . . . . . . . . . . . . . ",
". . . . . . . . . . . . . . . . . . . . . . . . . . . . . . . . . . . . . . . . . . . . . . . . . . . . . . . . . . . . . . . . ",
". . . . . . . . . . . . . . . . . . . . . . . . . . . . . . . . . . . . . . . . . . . . . . . . . . . . . . . . . . . . . . . . ",
". . . . . . . . . . . . . . . . . . . . . . . . . . . . . . . . . . . . . . . . . . . . . . . . . . . . . . . . . . . . . . . . ",
". . . . . . . . . . . . . . . . . . . . . . . . . . . . . . . . . . . . . . . . . + . . . . . . . . . . . . . . . . . . . . . . ",
". . . . . . . . . . . . . . . . . . . . . . . . . . . . . . . . . . . . + . . . . . @ # $ # % @ & . . . . . . . . . . . . . . . ",
". . . . . . . . . . . . . . . . . . . . . . . . . . . . . . . . . . . . . * = - ; > , ' % ) & % , ! . . . . . . . . . . . . . . ",
". . . . . . . . . . . . . . . . . . . . . . . . . . ~ ~ ~ ~ { { ] ] { ^ / ( * _ : < [ ] ] ] ] ^ ( ] { . . . . . . . . . . . . . ",
". . . . . . . . . . . . . . . . . . . . . . . . { , } | } , 1 2 / 3 4 2 2 _ 5 - 6 6 7 8 8 8 ] 8 3 3 ( ] 9 . . . . . . . . . . . ",
". . . . . . . . . . . . . . . . . . . . . . . . ~ , | 0 | | 2 a { 4 b c b 4 3 d 3 ] ] ( ( ] 9 e f g 9 ] { g . . . . . . . . . . ",
". . . . . . . . . . . . . . . . . . . . . . . . h ~ , , i 2 2 2 j j d b d b b f e 4 3 { { g k : : : l f 9 m . . . . . . . . . . ",
". . . . . . . . . . . . . . . . . . . . . . . . n o _ ~ p 5 5 q d r s t u v w d 4 3 9 ] g e : , @ x ~ n f y . . . . . . . . . . ",
". . . . . . . . . . . . . . . . . . . . . . . . . : : : u p 5 j b b * 4 4 * + z w e f g 9 e A B & & C B ~ f d . . . . . . . . . ",
". . . . . . . . . . . . . . . . . . . . . . . . . . . D D u a d j + A A + * d d E F z f 9 e B ~ o ~ ' h E f . . . . . . . . . . ",
". . . . . . . . . . . . . . . . . . . . . . . . . . E D D D d F E E _ _ F d g e G H E F I f E o ~ x x ~ h d . d J . . . . . . . ",
". . . . . . . . . . . . . . . . . . . . . . . . g [ 5 i i i g f D F F 9 9 ] ] ^ { f K D D e H o [ x x [ h . . L L . . . . . . . ",
". . . . . . . . . . . . . . . . . . . . . . . g M e f g { 0 i q e M M g ] ] 2 9 g u e D e . H : ~ _ i n h . . . . . . . . . . . ",
". . . . . . . . . . . . . . . . . . . . . . f 5 5 9 5 q 9 p N N e K M e O o 5 q 5 g P e . . . : M e [ Q Q - b j . . . . . . . . ",
". . . . . . . . . . . . . . . . . . . . . u < p _ _ q [ g k R f M K K ^ 2 q < < < v R e M . . . M d p p p p d d . . . . . . . . ",
". . . . . . . . . . . . . . . . . . . . u 5 q q q q [ k e k k e K K P O _ { ] ] 5 N v e S . . . j b a p b [ . . . . . . . . . . ",
". . . . . . . . . . . . . . . . . . . N f e e f g N 5 R M k e M K w P R T f f e M e v M w S . . e d j d j d j . . . . . . . . . ",
". . . . . . . . . . . . . . . . . . . U F F F e e e R V M k M . . S M e e H E E H e f M M . . . e K d . d . d . . . . . . . . . ",
". . . . . . . . . . . . . . . . . . H E B B W E M M R e M k . . . S M M D W & & B F D M M S . . . . . . . . . . . . . . . . . . ",
". . . . . . . . . . . . . . . . . . H < 5 B W E H M K M M . . . . S S M F Q W W W Q _ e M . S . . . . . . . . . . . . . . . . . ",
". . . . . . . . . . . . . . . . . . U U U M k N E M k k . . . S . . S D H F F F F U p D . 7 . . . . . . . . . . . . . . . . . . ",
". . . . . . . . . . . . . . . . . . D E W E H U D U G . . . . . . . . M e F B B E F X D . S S . . . . . . . . . . . . . . . . . ",
". . . . . . . . . . . . . . . . . . F W B B W E F e . . . . . . . S . S D W i B W i F e . . L . S . . . . . . . . . . . . . . . ",
". . . . . . . . . . . . . . . . . . [ W 5 B W _ F e . . . . . . . . . S M H B 2 Q E u U . . . . . . . . . . . . . . . . . . . . ",
". . . . . . . . . . . . . . . . . . H 5 B E E k e . . . . . . . . S S . D e R Q E D M D . . S . . . . . . . . . . . . . . . . . ",
". . . . . . . . . . . . . . . . . . Y H _ N F u Z . . . . . . . . S S . D e p i i p D . . . . . . 7 . . . . . . . . . . . . . . ",
". . . . . . . . . . . . . . . . . H k 5 p u Y Z . . . . . . . . . . . S . R u p p u R . . . . . . . . . . . . . . . . . . . . . ",
". . . . . . . . . . . . . . . . . u q q q p X . . . . . . . . . . . . . . Y Y Y Y Y k . . . + . . . . + . . . . . . . . . . . . ",
". . . . . . . . . . . . . . . . . R R ` ` X k . . . . . . . . . . . . . . Y G G G G Y . . . . . . . . . . . . . . . . . . . . . ",
". . . . . . . . . . . . . . . . < q q u Y k Y . . . . . . . . . . . . . . K G G G G K . . . . . . . . . . . . . . . . . . . . . ",
". . . . . . . . . . . . . . . q q q q N R k G . . . . . . . . . . . . . . K G G G G K . . . . . . . . . . . . . . . . . . . . . ",
". . . . . . . . . . . . . . u [ q [ N u k G . . . . . . . . . . . . . . . . G  . . .. . . . . . . . . . . . . . . . . . . . . . ",
". . . . . . . . . . . . . . R u N N u ..+.. . . . . . . . . . . . . . . . . . . . . . . . . . . . 7 . . . . . . . . . . . . . . ",
". . . . . . . . . . . . . . U +.@.@.... . . . . . . . . . . . . . . . . . . . . . . . . . . . . . . . . . . . . . . . . . . . . ",
". . . . . . . . . . . . . . . . . . . . . . . . . . . . . . . . . . . . . . . . . . . . . . . . . . . . . . . . . . . . . . . . "};
