/* XPM */
static char * ustens1_xpm[] = {
"64 64 28 1",
" 	c None",
".	c #980088",
"+	c #005858",
"@	c #003838",
"#	c #001515",
"$	c #1A1A1A",
"%	c #232323",
"&	c #060606",
"*	c #616161",
"=	c #2F2F2F",
"-	c #0F0F0F",
";	c #4C4C4C",
">	c #383838",
",	c #007B7B",
"'	c #006969",
")	c #004646",
"!	c #404040",
"~	c #000000",
"{	c #008C8C",
"]	c #009E9E",
"^	c #239E9E",
"/	c #9E9E9E",
"(	c #292929",
"_	c #151515",
":	c #6C9E9E",
"<	c #002626",
"[	c #1D1D1D",
"}	c #0C0C0C",
".............+@#.................$%&.......%%...................",
".............+@#.................$*&.......=-...................",
".............+@#.................$*&.....*.;-...................",
".............+@#.................$>&.....;;,')@.................",
".............+@#................$!%&......=@''@.................",
"............@#@#................$~%&........@,@.................",
"...........)@###................$$%&........@,@.................",
"..........),'@###...............$=%&........@,@.................",
".........),{]'@####.............$!%&........@'@.................",
"........),{]]^'@####............$!%&........@'@.................",
".......),{]]^//'@####..........!!=(-........@+@.................",
"......),{]]^///^'@####.......!!=%%%_&~......@+@.................",
".....),{]]^///:]],@####.....!=(%%%%%_&~.....@)@.................",
"....),{]]^///:'::{,@<###...!>(%%%%%%[-&~....@)@.................",
"...),{]]^///^'))::'+)@##...!=%%%%%%%%_}~....@@@.................",
"...){]]^///^]'<)<'+)@<<#..!>(%%%%%%%%[-&~...@'@.................",
"...']]^///^]],+<)+)@<<#...!>%%%%%%%%%%-&~..<)'^'<...............",
"....,^///^]],+,'+)@<<#....!>%%%%%%%%%%-&~..<),]/]'<.............",
".....,//^]],+,'+)@<<#.....!>%%%%%%%%%[-&~..<+,]/^'')<...........",
"......,^]],+,'+)@<<#......!>%%%%%%%%%[}&~...<+'^''))<<..........",
".......'',+,'+)@<<#........>%%%%%%%%%_&~......<+')<<<...........",
".........','+)@<<#.........=(%%%%%%%[}&~........<<<.............",
"..........)))@<<#...........$%%%%%%[_&~.........................",
"............####.............$$$$__-}~..........................",
"...............................----~............................",
"................................................................",
"................................................................",
"................................................................",
"................................................................",
"................................................................",
"................................................................",
"................................................................",
"................................................................",
"................................................................",
"................................................................",
"................................................................",
"................................................................",
"................................................................",
"................................................................",
"................................................................",
"................................................................",
"................................................................",
"................................................................",
"................................................................",
"................................................................",
"................................................................",
"................................................................",
"................................................................",
"................................................................",
"................................................................",
"................................................................",
"................................................................",
"................................................................",
"................................................................",
"................................................................",
"................................................................",
"................................................................",
"................................................................",
"................................................................",
"................................................................",
"................................................................",
"...................===================..=============..=======..",
"................====%$$----------$$%%====%$------$$%==%%$---$$%.",
"..................===%%$$$$$$$$$%%=====%$$$$$$$$$$===%$$$$$$%%.."};
