/* XPM */
static char * wall3h_xpm[] = {
"64 64 27 1",
" 	c None",
".	c #998888",
"+	c #999988",
"@	c #888866",
"#	c #887766",
"$	c #998877",
"%	c #665544",
"&	c #554444",
"*	c #888877",
"=	c #776655",
"-	c #998866",
";	c #776666",
">	c #997766",
",	c #777766",
"'	c #887755",
")	c #887777",
"!	c #999977",
"~	c #886655",
"{	c #666655",
"]	c #665555",
"^	c #554433",
"/	c #555544",
"(	c #AA9988",
"_	c #444433",
":	c #443333",
"<	c #664444",
"[	c #553333",
".+@#$+$$$%#$$$$##$.$$$&$$$$$##$$$$*%$$$+$#@+$$$#=$$$+$#-.$$$=;$$",
".+#>$+$$$=$$$$$##$.$$$=$$$.$>#$$$$$=$$$+$##+$$$$,$$$+-#-+$$$#*$$",
"$$-'$$$$$*$$$$$##$.$$$*$$$$$'#$$$$$@$$$.$'-$$$$$)$$$$-'-$$$$$$$$",
"$!#~$.$$$@$$$.$#~$.$$$@$$$$$''$$$$$@$$$+$~>!$$$$)$$$+-=-+$$$@$$$",
"$$@#$.$$$)$$$$$##$.$$$#$$$$$##$$$$$)$$$.$#@$$$$$#$$$+-#-+$$$*$$$",
"$+@-$+$$${$$$$+##$.$$$%$$$$$##!.$$$]$$$.$@@+$$$#=$$$+$@-+$$$;#$$",
".+@#$+.$$%#$$+.##$+$$$^$$.+$##..$$)/$$.+$#@+.$$,]$$.+$#$+$$${;$$",
"++$#+++$$&#$.+($@(+.$$_$$+++@$(+.$)^$$++(#$+++$;%$.+++#!(+.$]=$.",
"++.*+++$*:]$+++$*+++$#:,$+++$$+++$=:)$+++*$+.+$%^$$+++@+++.$^&$+",
"+.+$+++$=%&$$+.$$.+$$]%]$.+.$$.+$$&%=$.++$!++$*&&#$+++$+..$,&&*$",
"++$*..+$#&%$+..$$..+$;&{$+.+$$.++$]^#$++.*$..+$&^)$++$*+.+.*^^$+",
"+($@+(+$$^#$.+($*((+$$:*$+((*$(+.$#^$$++(*$++$$=%$$+(+#+(+.$%=$.",
"++$#$+.$$/#$.++@#++.$$^$$.+!#@++$$#&$$$+$#@+.$$;%$$++$#$+$$$]=$$",
"$+@#$.$$$%*$$$$##$.$$$%$$$$$##!.$$#%$$$.$#@+$$$#=$$$+$#@+$$$=,$$",
"$!##$+$$$#$$$$$##$+$$$,$$$.$##$.$$$,$$$+$##+$$$$#$$$+@#@+$$$#*$$",
"$$@~$$$$@$$$$$$#'$$$$$@$$$$$'#$$$$-@$$$.$'#$$$$$$$$$$-'@.$$$@$$$",
"$!@~-!$$$@$$$$$#'$+$$**$$$$$'#$.$$$@$$$+$'#$$$$$#$$$!-=@+$$$@$$$",
"$$@#-+$$$#$$$$$##$$$$$#$$$$$##$$$$$#$$$+$##+$$$$#$$$!@#@+$$$#$$$",
"$+@#$+$$$%*$$$!@#$.$$$%$$$.$##$$$$$%$$$$$@@+$$$#=$$$+-#-+$$$=#$$",
".+@#$+.$$/#$$++##$+.$$^$$.+!##++$$)&$$$+$#@+.$$,]$$.+$#$+$$${=$$",
"+(+@((+.$^#$++($@((+$$^$$++(*$(++$)^$.++(*$++$$;%$$+(+@+(+.$]=..",
"+.$*+++$#^%$+..$$.++$;^=$+..$$.++$]^#$+++*$..+$&^$$+.+*+...$^&$+",
"+++$++.$=%&$$++!$.+$$]%%$$++$$++.$&<=$.++$!.+$$&&#$.++$+++$#&&*$",
"+.$*.++$#^]$++.$$.++$;[=$++.$$+.+$]^#$+++*$.+.$&^$$++$@+..$$^&$.",
"++!#(++$$&#$++($@(++$.:$$+++@$(++$#^$$++(#$+++$;%$$++(@!(+.$]=$.",
".!@#$+.$$%)$$+.##$+.$$^$$.++##++$$#/$$$+$##++$$,]$$.+$#$+.$$==$$",
"$!@#$+$$$]*$$$+@@$.$$$%$$$$$#@$$$$$]$$$$$@@+$$$#=$$$+$#-+$$$=#$$",
"$!@#$.$$$#$$$$$##$.$$$#$$$$$##$$$$$#$$$.$#@$$$$$#$$$+-#@+$$$)$$$",
".$@~$+$$$*$$$.$#'$.$$$@$$$+$'#$$$$$@$$$+$~#!$$$$)$$$!-=-+$$$*$$$",
".$@'$$$$$$$$$.$#'$.$$$*$$$$$'#$$$$$@$$$.$'-$$$$$*$$$$-'-.$$$*$$$",
"$!@#$+$$$,$$$$$##$.$$$,$$$.$##$$$$$,$$$+$##+$$$$#$$$+-#-+$$$#*$$",
"$!@#$+$$$%#$$$$##$$$$$%$$$$$##$$$$*%$$$.$#@+$$$#=$$$+$#-+$$$=,$$",
"++*#++.$$&#$.++@#++$$$^$$.++#@++$$#&$$.+!#*++$$,]$$++$#$+.$${=$$",
"+($@((+$$^#$++($$(++$$:*$.(($$(++$#_$$+++@$++.$=&$$++(@+++.$%{$.",
"+.$*+++$#^%$++.$$.++$=&=$+.+$$.++$%&,$+++$$..+$&^#$++.*..+$*^^$+",
"+.+$+++$=/&$.+.$$++$$]%%$.++$.++.$/%=$.++$+.+$*&&,$.++$+.+$#&&*$",
"++$@+++$$:{$+++$$+++$#:,$+++$$+++$=:$$+++@$++.$%^$$++$@+++.$^/$+",
"++$#(+.$$&#$++($@(++$$^$$.+(#$(+.$)&$$.((#$++$$;%$$+++#!++.$]=$$",
".+@#$+$$$%#$$+.##$.$$$^$$$$$##$.$$#&$$$+$#@+.$$,{$$.$$#$+$$$=;$$",
"$+@#$+$$$=$$$$+@#$$$$$%$$$$$##!$$$$=$$$.$##+$$$)=$$$+-#@+$$$,#$$",
"$$-#-!$$$#$$$$$##$$$$$#$$$$$##$$$$$#$$$.$#>+$$$$#$$$+-#-+$$$#$$$",
"$!#~-!$$$@$$$$$#~$!$$$*$$$+$''$$$$$$$$$+$=#+$$$$*$$$+-=-+$$$@$$$",
"$$-'$$$$*@$$$.$#'$$$$$@$$$$$'#$$$$$)$$$.$'-$$$$$)$$$$-'-.$$$@$$$",
"$+@>-!$$$=$$$$!#>$$$$$=$$$$$>#$$$$$=$$$.$##+$$$$;$$$+->-+$$$##$$",
".$@#$+.$$%)$$.$##$.$$$/$$$.$##$$$$#%$$$+$#@+$$$#=$$$+$#$..$$=;$$",
"+($#++.$$&#$$++@#++.$$^$$.++#@(+$$)&$$.++#$(+$$,%$$.+$#$++$$]=$$",
"++$@(++$$_;$+++$-+++$):)$+++*$+++$;:$$+++@$++.$]&$$+++@+++$$&%$.",
"..$$+++$;&%$+..$$.++${/]$.++$$..+$%&=$+.+$$+..$&&#$++$$+..$#&&$.",
"+.$$..+$,&/$+..$$.+.${/]$++.$$.++$%&;$.++$$+..$&&#$++.$+.+$#&&$.",
"++$@(++$$_;$+++$$+++$):#$+++$$+++$;:$$+++@$+++$]^$$+++@+++$$&%$.",
"++$#++.$$&#$$++@#++$$$^$..++#@(+$$#&$$.++#$(+$$,%$$.+$#$+.$$]=$$",
"$!@#$+.$$%#$$.$##$.$$$&$$$.$##$$$$#%$$$+$#@+.$$#=$$$+$#$..$$=;$$",
"$!@>$+$$$=$$$$!@>$$$$$=$$$$$>#$$$$$=$$$+$##+$$$$;$$$+->-+$$$##$$",
"$$@'$$$$$@$$$.$#'$$$$$@$$$$$'#$$$$$)$$$$$'-$.$$$)$$$.-'-.$$$@$$$",
"$!@~$+$$$@$$$$$#~$+$$$*$$$.$''$$$$$$$$$+$~#+$$$$*$$$+-=-+$$$@$$$",
"$$@'$+$$$#$$$$$##$$$$$#$$$$$##$$$$$)$$$.$#>.$$$$#$$$+-#-+$$$#$$$",
"$+@#$+$$$=$$$$$--$$$$$]$$$$$##!$$$$=$$$.$#@+$$$*=$$$+-#@+$$$,#$$",
".+@#$+$$$%#$$+$##$.$$$^$$$$$##!.$$#%$$$+$#@+.$$,]$$.+$#$+$$$=;$$",
"++$#(++$$&#$++($@(++$$^$$.+(#$(+.$#&$$.+(#$++$$;%$$+++#!+++$]=$$",
"++$@+++$$:{$+++$$+++$#:,$+++$$+++$=:$$+++@$++.$%^$$++!@++..$^/$+",
"+.+$.++$=%&$.+.$$++$$]%]$.++$.++.$/%=$..+$+.+$$&&,$.++$+.+$#&&*$",
"+.$*+.+$#^%$++.$$.++$=^=$+.+$$.++$%&,$+++$$..+$&^#$++.*..+$*&&$+",
"+(!@((+$$^,$+++$$(++$$:*$++($$(++$#_$$+++@$++.$=&$$+++@+++$$%{$.",
"++*#.+.$$/#$.++*#++$$$^$$.++#@++$$#&$$.+!#*++$$;]$$++$#$+.$${=$$"};
