/* XPM */
static char * wall4v_xpm[] = {
"64 64 35 1",
" 	c None",
".	c #4D4141",
"+	c #414141",
"@	c #414135",
"#	c #4D4D4D",
"$	c #414D4D",
"%	c #4D4D41",
"&	c #414D41",
"*	c #58584D",
"=	c #584D41",
"-	c #413535",
";	c #353535",
">	c #2A1E12",
",	c #1E1212",
"'	c #1E1E12",
")	c #2A1E1E",
"!	c #2A2A1E",
"~	c #1E1E1E",
"{	c #2A2A2A",
"]	c #352A2A",
"^	c #121212",
"/	c #120707",
"(	c #121207",
"_	c #41352A",
":	c #412A2A",
"<	c #352A1E",
"[	c #351E1E",
"}	c #1E1207",
"|	c #35352A",
"1	c #2A1212",
"2	c #584D4D",
"3	c #4D584D",
"4	c #070000",
"5	c #070700",
"6	c #070707",
".+@@@@@@@@+.@#$%%#%&%%+@@@@@@@@@@@@@+.%%%%%*=%#@@@@@@@-;.-@..@@@",
">,'))))!~{!''+&;]]]]]]!))))]])')',^/(,~)){{!!;%]''))>',,,(^,,,,,",
">>)!))>))))))@%]_____:]]<]]<<]][<))',,,,(,',,{%)>>>>>)[<>,,,,')'",
"!<!>'''',}(<<|%]]]<]]<)!<]])>)!)>)))>''>,'>>>)#>,,,'>>)!>>>,,>)>",
"))'//,))]])<>!.)!)))!)))!)!]!,,)>>>','>)>,>)>)%',,'>))>''>))))),",
">)),,)<<)<!),{%)'>>))))!)>)<),,)>>',,,,>,,,,,{#~'''>>)))>>)>'>>,",
">)))))))<<]][].)>)!))))!))))>))),''>>))),,,,,|#)>>>>>)[<<)))>>)>",
"<!)))))<))<)[|.))]])))>)!)>)))))))>>>>>>','),;%)}')!)>>>))<][))>",
"<)11>)<<)),/!=.{[[))))))'',,,)>>,),,))>,>}^^)==~},)<)>>)>>))),,1",
"]{{{]]{{{]]];++@||]]||]{]{{]{]{|!{)){|;|-;@@;%+{{{];|]{{]{]]]]]]",
"*####%####2*############22#*2#++*####222###3#####%#############+",
"--|]]];-;-------;---;;-@;-;@+.#$|{;;]]]]|]]||]|-;;-;{{-+;-@+.++#",
")>))))))))>,'))>,'>>>'>)/,''')-%,})<)<))>))))1,,,,>,//,)>''>)~]%",
">>)<<<<<<<<!))))!)>)<<!))))<<';%>)]]]]]])<<<)>>>'>))>)))))))>}!%",
")))!<<<!))<<!)!<)>>)!!)')))]_)-+)<!!))))'>)>>>>>',>))))>>)>)),!%",
")))<]<))<<<))))>>)))))>>>!)!<)-+>])))))))>))>>>,))))>>>,>)',>,{$",
")))<<)])[[)<<))))))))>'')))<])@+!)))))))1),>)'>!<)[)'>)])>>')>~%",
"<<<]<<<<)<)<)>)>))>))>>>,>>)!)@+))))))>>))>>',)))<!)>,)),,>>))!#",
"!')!!!)!!<<<))))))>>>>>>))>>>>-+>)))))>))))!'><)!_]<)'<>>'>,1,)%",
"]>>))<>>)))))))>>>1>>>>>>>'>)].#)>>1,,1>,)))>,)))]))>,'},,,,,'!.",
"-)))){)){!!!!))!)))))))))))!{-.&-|]{{!{]]-;--||;|]]]]]{{{];;-;;#",
"3%##%###%%2%&$+#######%%22#2#2#$3#&#####%*##*###3###2*###3#**###",
"]]]]]|-|;-@-@#+;|]]]]]]]]{{|{]{!]!!]]]]]||]|;+#;{]{]]{]{!!!{{{{]",
">>,'>))})>)>]%-,>',,,,,'>''>,>1>>,,>1,,>,},,,-={,)1>1,)1,11>>>>>",
"!)>)<<),))<>]#|1>>>,,>>))))>))))>))>>)))))>),|*!,))))>)>>)>>)))'",
"]<))!<))>)<>)#;,'',,,'''>)>>))))>>>'>>)>>>'>,]#{>))))))'>)))))))",
">''>))>,>>))~%|,''''>'',''','>>>>>''>))>'>>),]3|>))))>>,>>))))))",
",,>)))>>)))<)#;'>>>))))>)))>>))>>>>'>>>>'>>>,{#;,>>))>)''>>>>>))",
">>>>>>>)>>>)'%;,>>>>))>>>>>''>>>,>>,,,,,>>>,,|#-,>>>>>))>)>'''>)",
",,>>>>))>!)>>2@,)>>)))))>>>>>))>))))>1>>>1,,,;#-1)))>>[[<<))>)))",
"/(,,'',,,)',~+;,',,,,,,,,,,,,',,,'',,,,,',',,|&;,>',,,''>>',,,,,",
"]]]|||||]]]]-#+--|]]{]]]]]]]]]]!]]]]]]]]{]]!!@3+-@-;;|;|;;;||;;|",
"##############444566666666666666/66/666666655444%%%##%%#%##**##%",
"!!!!)))!))))))5//(^^^^^^^,^,^/66/^^^^^^^^^^^^(/6)))!!))){]];|]@%",
",,,',,>))>>>''6,'~~)!{{{{{{{!^6/6){{{{{!!!!))~~6,,,,,>))},,>>,;#",
",,'>'>)!))>>>>6''~)!!{{{{{{{!^///{{{{{{{!!!!)~~6)'>>,)|],},>),;%",
",,'',,'))>>>')6'~~!!{{{{{{{{{^6//{{{{{{{{{!!!)~5,,'','),,},)<'|&",
",,1>1,>))>))))6~~~!!{{{{{{{{{^///{]{{{{{{{!!!)~5>'>>,,',,('>)(|#",
",,,>>>>)>>>>1>6~~~!!{{{{{{{{{^///{]{{{{{{{!!!!~5>,,,,,'>,,'''/|#",
"'''>>>>>>>)>,>6~~)!!{{{{{{{]{^///{]]{{{{{{!!!!~5,,,,',,,>,',>(;#",
">,,,1>>>><>,,,6~~)!!{{{{{]]]{^///{]]{{{{{{{{!))6,,'',},,,',>,,;%",
"{!!!))~)!)~~))6~~!!!{{{{{]]]{^//({]]{{{{{{{{!!)6,}}}},,),'}>)!+#",
"######%%#%.%2#6~~!{{{{{{{]]]{^//({]]]{{{{{{{!!)6.+++++++%#.#2#3#",
"--@+.@@.++++.#6~~!{{{{{{]]]]{^//^{]]]{{{{{{{!!)6+@@@@;;;{;;@@;;;",
",,,>>'>)'>),~@6~~!{{{{{{{]]]{^//^{]]]]{{{{{{!!)6,,,,,,}(/}((,,))",
">>>>>>))>>>,,@/~~!{{{{{{{]]{!^//^{]]]]]{{{{{{!)6'>>''',,>,,,')))",
")>>>>>)))>>)}]/~~){!{{{{{{{{{^(/^{]]]]]{{{{{{{)6)))>>>>>,},,'>,,",
")',,,,,>'')|,!/~~)!!{{{{{{]]{^//^{]]]]]{{{{{{{)6>)))''',,,'>,,,'",
"',11>>,>,)%@)!/~~)!!{{{{]]]]{^((^{]]]]]{{{{{{!)6>>>>>>''1,,,',,>",
",,>'>>')'>_]>{6)~!{{{{{]]]]|{^//^{]]{{{{{{{{!!~6,>)>,((,'',,,},,",
",},,'))<>>)'1]/)){{{{{{]]]]|{^/(^{]]{{{{{{{{!!~6>>>>>>>,,,,,},'>",
",,}(,'1,,1',)|/))!{{{{]]]]]|{,(^^{]{{{{{{{{!!!~6>>1111,/((}(//,(",
"{{{{]|;;|-;;-+/))!{{{{]]]]]|{,(^^{]]{{{{{{{{{!)6;@@-;|;;;;;|]]]{",
"#2###%###**#%%/))!{{{{]]]]]|{,(^^{]]]]]]{{{{{!)6#%%####3##22#**#",
"#@{{)'''))!!!!/))!{{{{]]]]]|{,(^^{]]]]]]{{{{{{)6.|){]]{!{{{]||;;",
"#|(}>>)>>'>>>'/))!{{{{]]]]]|{,^^^{]]]]]]{{{{{{)6-),,>,,',,,},(('",
"2|(,,'>>)>>),,/))!{{{{]]]]]|{,(^^{]]]]]]{{{{{!)6''>))>''>>'''',,",
"#|^',,,')>>,,,/))!{{{{]{]]]]{,(^^{]]]]]]{{{{{{)6>>))))>>'>>,,,,,",
"#](,''>)>>>,,>/))){{{{{]]]]]{^(^^{]]]]]{{{{{{!)/>>>))>>>>)>',,,,",
"#|(,>',>>>>'')6~))!!{{{{{{{{{^^^^{{{{{{{{{{{!!)6'>>))>>>',,,,,(/",
"%;,,>>}},,,,',6~~~!!{{{{{]]]]^(^^{{{{{{{{{{{!{~6'>>>>>',)>,,',,(",
"%-,},,((>>,1>,6(^^^^^^^,,',,,^(^^',''''',,,^^^^6>>)>>>11,,,,,},,",
"#%!~'','>)''),5666666666666//((^////////6/666555'~)''',,,'~',,)!",
"+*....+.+%+@+++++++@@@@@+++@+2+$$+@+++%++++++++.+&%.++++++++++%#"};
