/* XPM */
static char *mdtlongraidwall10sm[] = {
/* columns rows colors chars-per-pixel */
"64 64 105 2 ",
"   c #1F1E16",
".  c #201F1A",
"X  c #24231B",
"o  c #29261C",
"O  c #29291E",
"+  c #262621",
"@  c #292721",
"#  c #2D2C25",
"$  c #2F2E29",
"%  c #33332C",
"&  c #39362E",
"*  c #39392F",
"=  c #363631",
"-  c #383732",
";  c #373832",
":  c #3C3B34",
">  c #3E3D38",
",  c #413E37",
"<  c #413F39",
"1  c #3F403A",
"2  c #434037",
"3  c #43433C",
"4  c #49493F",
"5  c #464641",
"6  c #484742",
"7  c #4C4B44",
"8  c #4F4E49",
"9  c #504D46",
"0  c #504F4A",
"q  c #505046",
"w  c #53534C",
"e  c #565651",
"r  c #585752",
"t  c #5C5C54",
"y  c #5E5E59",
"u  c #605F5A",
"i  c #5F605A",
"p  c #616157",
"a  c #64645C",
"s  c #69665E",
"d  c #6A685F",
"f  c #666660",
"g  c #686762",
"h  c #676862",
"j  c #6C6C64",
"k  c #6E6E69",
"l  c #706D66",
"z  c #706F6A",
"x  c #6F706A",
"c  c #707066",
"v  c #73736C",
"b  c #79766F",
"n  c #79786E",
"m  c #767671",
"M  c #787772",
"N  c #777872",
"B  c #7C7C74",
"V  c #7E7E79",
"C  c #807D76",
"Z  c #817F7A",
"A  c #7F807A",
"S  c #828177",
"D  c #84837C",
"F  c #89867E",
"G  c #8A897E",
"H  c #868681",
"J  c #898781",
"K  c #878882",
"L  c #8B8B84",
"P  c #8E8E89",
"I  c #918E86",
"U  c #918F89",
"Y  c #8F908A",
"T  c #929187",
"R  c #94938C",
"E  c #99958E",
"W  c #9A998E",
"Q  c #969690",
"!  c #999791",
"~  c #979892",
"^  c #9B9B93",
"/  c #9E9E98",
"(  c #A19E96",
")  c #A19F99",
"_  c #9FA099",
"`  c #A2A097",
"'  c #A4A39C",
"]  c #A9A69E",
"[  c #AAA99E",
"{  c #A7A6A1",
"}  c #A9A7A1",
"|  c #ACABA4",
" . c #AFAEA9",
".. c #B0ADA6",
"X. c #B0AFAA",
"o. c #AFB0A9",
"O. c #B3B1A6",
"+. c #B3B3AC",
"@. c #B8B8AE",
"#. c #B6B5B0",
"$. c #B8B7B2",
"%. c #BBBBB3",
"&. c #BEBEB8",
"*. c #C0BFBA",
"=. c #C4C4BD",
/* pixels */
"3 Y / N A A Y K A A A A N A A A h x x x m m V Y Y P P H G K _ @.a A Y K P P m x A K H P H P K K H H P P Y H H A m N H H H ~  .o.",
"> L { L P K Y ~ R Y K A A D K K P H V V K K H H H H P P Q Y ' %.f N Y L P Y P P M J Q ~ P H Y / Y P K H Y Y P A H V N N x x A / ",
"; H / L Q Y K Q Q Q P Y Q Y Y K P P P P Y H N m k B V N D G ] O.7 h Q L N V A K D J / ) / H P V A m h x A Y R Q H V N A H N A / ",
"1 H Y L / Y A K Y R K Y Q Y Y K A P Y Y P V m m x A N x A G { ..r v ~ R P K A A J V D P Y P P M B N m m x A L ^ Y P K K P P Q _ ",
"5 K K P Q A K K A P A P Y P K A V H H V V M M M m N k n D B Q ' 5 k Q L H V V H D Z Z L H U Q J L P K Y A D A H ~ Y Y P H K Q Q ",
": L L A A N K A Y A A A N A K P V H V m m z z z A V N B F A U W > r z m H H z m Z J P U H J U I Y P Y R R L A B A A Q ~ K A A A ",
"$ j x r q t i t h h i a a i h x f k g f y r 0 0 t y t 8 e t a s > 8 g g z z k z j g a g f f z M m N A A N j h k j j x x h t t t ",
"+ $ % # # # . # $ * 1 1 1 1 1 ; = = $ + $ $ + + . . X   X X X o . . = $ - > 5 5 3 = = > 3 % : < > ; 1 3 7 1 ; % # 1 % $ * * $ # ",
"A d d j c j c h c v c v A A n t - > r 0 8 r e 6 6 6 4 7 9 9 9 9 0 w w e 9 p a a a p l j l a d w % e a A A A A A j h j a h t p h ",
"_ _ ' o.o.o.+.o.o.+.o.[ | o.@.` > M X.} } #.X.#.] ) ( ( } [ | |  .+.+.#.| O.+.@.+...+.@.*.O.O.E q R @.@.O.o.O.O.o.| | o.o.[ [ o.",
"G T Y ~ W ' ^ Y _ _ ^ W ~ R ' R 6 J / H Q / Q / E J I I I E E E I ^ ^ ! E E E ( E E ^ ` ( E ` ( e ^ | ^ W ^ ^ R R G A G G A A A ",
"Y R Y T Y W _ ' _ _ _ ^ W ~ [ W 6 H P V J P J ! E Z Z F F I I F F T T L I G G E I F J T G I ] ( w T [ ^ W R W R T G G L A A A G ",
"^ W Y T R R T G ~ R ~ ~ R R [ ~ 6 J U H P E ! ( E L I E I R R L T E T G T I I E E T T E G G W E w A ~ Y ` [ ^ T G S A G G T K K ",
"G T _ _ _ T Y T R Y R W ~ ~ ' R 0 U U M M J U J J J J E E E E R I I I G T I I G I R W ( I G W ( q R [ A A T W W _ T A G G L L A ",
"' _ _ ^ _ R R W T G Y _ _ ^ [ T 6 ! U C M H E ! J J J U E E E R T L T I E E E G T L I G I E ] W 7 ~ | ~ R ^ W W ^ W W L A n A K ",
"T ^ W _ ~ T Y ~ ~ G T W ^ ^ | R 0 Q V z Z J J E I J I I R E R W E I T I T T E G T T W T T T ] ( 1 Y ' W W T G T W W R T ^ Y Q Y ",
"A G T T T T T T _ ^ ^ T P G [ W q G A x A R _ ~ R R Y ^ E T G ^ ~ Y R K P F J I I I E U E I ( ^ 1 A T G I J I I I E E J C I ) E ",
"W ` W ^ ' _ _ W W R Y T T G ' T w _ K A L P Y Q ^ R K W T S A L R L G G F F F F C I I J U J E E 1 D S A E E F I T R ! ! I Z U E ",
"T ` R W W T ^ ~ T ~ W T R R [ W 7 { Q A L L K G L D v b c j d c n G L Y F D F T Z I I Z ! I E E & U T S I ^ L I E I L ^ ( U E E ",
"G W R W Y A ~ W R ^ ^ W W T [ G 4 R A A D D Y D v v l h j v v n n A F K A G D D Z I C C I I E R , W ` T F T L L T U U U I Z I I ",
"T A T A W _ W ~ ` R W ^ ' T ` L 3 A j d h a x x M v x v M z z m A D A A b B n v Z C Z Z C C T J 9 P G F G E F B F F C F I I I F ",
"c p c A A R A A S A A A T T ' D 1 G B d n n B D M V D Z Z z h f j v n A b B B B Z C C l t j W ( 3 ~ ~ v j l d c l B C D b u s v ",
"d p a a p A A c j c d a c A ~ B 4 A n p a j a a k m B v B m v h t e t p l l d a r r p l s h D G , G A a x S B c p p y s j y t s ",
"t w 4 : * * * : 7 1 * % % # q 7 # * * * % 1 3 4 0 8 8 8 r 0 w r q 4 3 * , & , , , , , , : % 1 1 # w p r e e t w 7 7 * > 2 < 4 7 ",
"* h A c A v v v A A c j i h x v n c j d c n n n A B A D A D D A q t B B v v d a x x N N A N v N v a g v k g g g h a h j d j j a ",
"4 W %.[ [ [ | [ ' | | o._ { ] ] [ [ ^ ` o.+.+.@.+.o.+.#. .| +.&.p B ' Q P U R Q Q Q ^ _ ^ ^ ^ _ ) ! ! Q U U / / ~ ~ ~ Q R ^ ' ^ ",
"4 Y ' A D G T P T Y T Y P P K L L D S G T R R E ^ ~ ^ / / Q ` o.i N ~ L D F F D P A A A H P R Q P L D V V V H Z P J P U U P Q Q ",
"4 A _ G P R R T ~ Y G L Y R L P G D G T Y K G L I K K Q W Q ^ o.t x U P P L K P H H A A B A K P U L J P P Z V V J D J Q U J L E ",
"3 Y { ~ ^ ^ ^ T T T G Y Q R L Y L L P Y ~ R Y P U K D K T L R o.u M Q P L H H J H P P H A A H L H H L P K A V H H D V V M M D ! ",
"q ~ o.Q Y Q R G D L T R P P L Q Q Y K L Q ~ U L ^ ^ W E R Y W o.y M J M H L U L H H H A K K P L J U Q P H H L Q L P L N N V P ' ",
"3 K _ K K K K A G L T L A A L R Q R K H U Q P D G R ~ R T L T ' g J L V J Y P V K H N V P Q Q L H H P H A H Y Y K Y P A N V L / ",
"3 A Q A A v A L A G L L A A A A Y Q Y K P U L F B P L G T T W ' u Z P J P P L D A A H H K P L A H N m D A H L L Y Y P L H m H / ",
"* G W A T G A G K T K K Y U U H D H K T E E G G I S G T G G W O.u H P V A L H K N A H L K Y R K K B v N K W ~ T G A A A G A A W ",
"1 G ` S L Q L A L L D G L L P L L U R R E G G G W W W T W W G [ f H Y H Z H H P P P L H A K Y P R D N D Y T Y ~ Y Y G A A A T T ",
"2 S [ D D T L K D D Y T R R P P J U Q ^ ] ` ( W T W ` W T T W O.y m Y Y H H H H K K U ~ K m V Y T L A A A c n A A A A A A G R A ",
"* A _ S D P W W D G R P K Y P R P J D F R W ( W ( ` [ W T W W ` y m J Z V V V A G G G D A H H A A Y K D A v A A A A A A T A A A ",
"* G W A S Y E D D A K G G G A K L P L P E E G G I ( W E ` W ( O.p A G n M B M K R Y D S D L K F A W Y P G A G A A Y _ G A A _ A ",
"* A W G T D L G T S G ~ / Q K K H U ^ ^ ( T G G G E E T G S G ( w n A x V D S Q W K S D A k l C T P K L P A A A A ~ | Y A G G A ",
"* p A c n x B S D B x B D D H A Z H Z N n l n n n d s l s l S n 4 w w q w p a v S S k p d x v l c c j v A c c c A A A G A A A c ",
"4 4 q 4 4 7 7 1 4 8 4 2 1 3 8 3 3 3 - $ O & o o o o o o X o , 2 # X X X X O X @ $ * * 2 4 w 9 9 1 4 4 1 1 1 4 4 q q 1 q 4 4 4 3 ",
"G A A A A c n n n p p h t p a e % 5 3 1 * * $ % % % * * & & 2 7 4 2 1 * - , < 9 w w p p r l d w % p A A A A A A A A A a p A j j ",
"@.O.[ [ [ ` ` [ _ ' o.+.+.=.=.L w H ^ ~ L Y K K ^ ~ T Y T W ' ] ^ W T T U ! ( ] | | | ......+.T q T %.&.O.@.O.@.@.@.@.@.o.&.@.@.",
"G A c A G A A d c A D G T W @.A w Q ^ Y L P L L K L P P U W Q R R R L G J L E ! ^ | [ | } ) *.J q A _ G A T W T G T W A G G G W ",
"A c d c A S A A A j p a j A $.K t / P D G D G T P U U L K P T T Y R T Y I E ^ ( ` ) E ( ..] $.Z 1 A W A A A G G A A A A A A A A ",
"G S A c c c n A A A A c i j @.A w | ~ Y ^ ~ ~ R ~ ^ ! U L K T Y W ` ( ! E ^ ) ] | ( ^ ) } E ..F * A W A c c A A G T A A A A A T ",
"c c A S A A c c A T T D A A $.x 4 | Y T _ ' ' Y ! ^ / ^ ~ Q P K U U U J F J P E T ^ } ! U F } J : A W A A A A T A A T A A A A A ",
"S A c d p p n A n A T ~ P G o.A 4 ' A A T ^ o._ ^ ^ ~ ! W Q ~ ~ L J J L I E ! ^ U E E U E ( $.J 1 G [ G A A A G G A A A G W G G ",
"G S S A c c n A v A A P R Y o.x 4 _ v v v A / ' ^ ) { { ) R R ^ ! R T E / / ! ! E J V U ) ^ X.J : A ^ A G A A A A A T A G G A A ",
"S G S S F F C Z G C I F I E ..d 8 / x h N V m H A H P / ' ' ^ [ ' ' ~ T K G D x a a h c B P o.P 4 G ^ A c c A A A G ~ R A G G A ",
"G G G G D L F C C Z G Z Z F ] b 7 ~ A x h N m A N V V V A A v v v B k a p a d p a s h j c A | L : A ^ T A A A G G A G G G G A A ",
"D G W W F R R B C C C C C Z ] b 5 / Y N x A A A D L K N k j j k c n n x x k j a x n x n h n ' A : A R G Y A A G G A A A A A G A ",
"W T W T C C L I C C C C C C ] l 8 { Y V m K Y K Y H A x a p h B c k j k v n B B c x n A A D o.K : A ^ G A L L A G A G A G A T G ",
"G L L G B b F ! I I T T Z F ( r 5 { Y A x m H H D N j k c j a c A A D S F D A n A A G G P H { x # A R A A Y Y Y G A G A Y A G T ",
"A T D N n l l x C C D F Z F I 9 ; ~ ~ K N i h x x x j j v v c j v S K S D R R R G Y ^ Y Q ~ { h O t v c c c j j A N A A A A A A ",
"p l t w e e t p e e u a r e a 9 = h x x h e 8 0 y a i t p s j x s x D S A K D D K G D A m m x e * 3 q q t i t e e p t t p h p e ",
"* : $ # # # ; > = % $ # # o $ $ + + + $ = 1 $ + + $ 1 3 4 1 : * = $ % : : 3 1 7 7 1 : 7 ; ; = 1 * % # O # # # O . O O % % * % * ",
"$ < 5 0 0 5 0 u u u y y y a y r e e t i i k x y w t d j h a t q = 8 N N N x m B V m m x h x A H A V k h m x x f c i f x f k x e ",
"5 H {  . .{ {  .%.$.$.%.&.&.$.+.o.| o.&.&.&.*.*.o.o.o.+.+.@.o.| w N { { | { } { { {  .{ { o.#.{ X. .{ | #.o.o.{ _ _ _ | | |  ./ ",
"0 Q  .! / / ! / ! Q ! ^ ! Q / ) ~ ~ ~ ~ / / _ _ / ~ W _ _ ^ ^ ~ t H ' Y L H H V A P Y P H Y Y H K K K K K K P P P Q P Y / _ / / ",
"5 /  .! U J L Q U U Q U U P U / ~ ~ Q Q ~ ~ ~ ~ Y P Y W ~ Y ^ ' t A _ ~ Y Y K A x m N A A A V A A K K Y K P Y K ^ / Q Q / / _ _ ",
"= J { ! ~ Q L Y / Q Q Q ) / ! P ~ R R / _ R Y _ ^ R R ^ ^ ~ [ $.k A Y K L H V H V N N H K H V A A A H K K / / Q / / _ / / Q _ ~ ",
"8 U ) ! { ) ~ / Q Y Q P / ! ! J Y R / _ ~ Y Q ^ _ W Q / ^ ^ [ o.i V Y Y ~ P V H P A N N H K V N A H Y Y Y ~ ~ ~ P K Q Q R Q  ._ ",
"5 Y { Q ~ / ~ / Y Y Q P Q P / Q ~ Q ~ ~ Q / ' / ^ ~ W ` / ~ '  .h H P V A A V H P K A N H Y Y Y x V Q ~ ~ K N N x x A H P Y { { ",
"5 Y { K Y / ~ Y Q Y ~ P Q L Q Q L x v N A P ^ Q ~ R ~ ^ Q ~ { $.f A H x x V A K Y Q Y H H H H Y A V A K ~ K x x N A P K Y Y { / "
};
